<?xml version="1.0" encoding="UTF-8"?>
<!DOCTYPE svg PUBLIC "-//W3C//DTD SVG 1.1//EN" "http://www.w3.org/Graphics/SVG/1.1/DTD/svg11.dtd">
<!-- Creator: CorelDRAW 2020 (64-Bit) -->
<svg xmlns="http://www.w3.org/2000/svg" xml:space="preserve" width="1.4279mm" height="1.4921mm" version="1.1" style="shape-rendering:geometricPrecision; text-rendering:geometricPrecision; image-rendering:optimizeQuality; fill-rule:evenodd; clip-rule:evenodd"
viewBox="0 0 6.04 6.31"
 xmlns:xlink="http://www.w3.org/1999/xlink"
 xmlns:xodm="http://www.corel.com/coreldraw/odm/2003">
 <defs>
  <style type="text/css">
   <![CDATA[
    .fil0 {fill:#B2B3B3;fill-rule:nonzero}
   ]]>
  </style>
 </defs>
 <g id="Layer_x0020_1">
  <metadata id="CorelCorpID_0Corel-Layer"/>
  <path class="fil0" d="M2.39 3.05l1.25 0c0.06,0 0.12,-0.01 0.18,-0.02 0.22,-0.04 0.42,-0.15 0.57,-0.3 0.15,-0.15 0.24,-0.33 0.24,-0.54 0,-0.04 -0,-0.08 -0.01,-0.12l-0.25 -1.37c-0.03,-0.16 -0.1,-0.31 -0.2,-0.41l-0 -0c-0.09,-0.09 -0.2,-0.14 -0.34,-0.14l-1.64 0c-0.14,0 -0.25,0.05 -0.34,0.14l-0 0c-0.1,0.1 -0.17,0.25 -0.2,0.41l-0.25 1.37c-0.01,0.04 -0.01,0.08 -0.01,0.12 0,0.2 0.09,0.39 0.24,0.54 0.15,0.15 0.36,0.26 0.57,0.3 0.06,0.01 0.12,0.02 0.18,0.02zm0.55 0.22c0,-0.02 0.01,-0.05 0.03,-0.06l-0.58 0c-0.07,0 -0.14,-0.01 -0.21,-0.02 -0.25,-0.05 -0.48,-0.17 -0.66,-0.34 -0.18,-0.17 -0.29,-0.4 -0.29,-0.65 0,-0.05 0.01,-0.1 0.01,-0.15l0.25 -1.37c0.03,-0.19 0.12,-0.37 0.24,-0.49l0 -0c0.12,-0.12 0.27,-0.19 0.45,-0.19l1.64 0c0.18,0 0.33,0.07 0.45,0.19l0 0c0.13,0.13 0.21,0.3 0.24,0.5l0.25 1.37c0.01,0.05 0.01,0.1 0.01,0.15 0,0.25 -0.11,0.47 -0.29,0.65 -0.17,0.17 -0.41,0.29 -0.66,0.34 -0.07,0.01 -0.14,0.02 -0.21,0.02l-0.58 0c0.02,0.01 0.03,0.04 0.03,0.06l0 0.18 1.26 0c0.09,0 0.18,0.04 0.24,0.1l0 0c0.06,0.06 0.09,0.14 0.09,0.23l0 0.16c0,0.06 -0.02,0.13 -0.05,0.18l0.13 0c0.37,0.01 0.36,-0.42 0.36,-0.83l0 -0.28c0.01,-0.35 0.09,-0.63 0.44,-0.62l0.39 0.01c0.04,0 0.08,0.04 0.08,0.08 -0,0.04 -0.04,0.08 -0.08,0.08l-0.39 -0.01c-0.22,-0.01 -0.27,0.2 -0.28,0.47l-0 0.27c0.01,0.49 0.01,1 -0.52,0.99l-0.31 -0c-0.01,-0 -0.02,-0 -0.02,-0.01 -0.02,0.01 -0.05,0.01 -0.08,0.01l-1.26 0 0 0.65c0.08,0 0.16,0.01 0.23,0.02 0.1,0.01 0.2,0.03 0.3,0.06l0 0c0.09,0.03 0.18,0.06 0.26,0.09 0.08,0.04 0.16,0.08 0.23,0.13 0.07,0.05 0.14,0.1 0.2,0.16 0.06,0.06 0.11,0.12 0.15,0.18 0.01,0.02 0.01,0.04 0.01,0.06l0.03 -0c0.09,0 0.18,0.04 0.24,0.1 0.06,0.06 0.1,0.14 0.1,0.24 0,0.09 -0.04,0.18 -0.1,0.24 -0.06,0.06 -0.15,0.1 -0.24,0.1 -0.09,0 -0.18,-0.04 -0.24,-0.1l-0 -0c-0.06,-0.06 -0.09,-0.14 -0.09,-0.23 0,-0.09 0.04,-0.18 0.1,-0.24 0.02,-0.02 0.05,-0.04 0.08,-0.06l-0.01 -0.01c-0.04,-0.05 -0.08,-0.11 -0.13,-0.15 -0.05,-0.05 -0.11,-0.1 -0.17,-0.14 -0.06,-0.04 -0.14,-0.08 -0.21,-0.12 -0.08,-0.03 -0.16,-0.06 -0.24,-0.09l-0 -0c-0.09,-0.02 -0.18,-0.04 -0.27,-0.06 -0.07,-0.01 -0.14,-0.02 -0.21,-0.02l0 0.55c0.06,0.02 0.11,0.05 0.16,0.09 0.06,0.06 0.1,0.15 0.1,0.24 0,0.09 -0.04,0.18 -0.1,0.24 -0.06,0.06 -0.15,0.1 -0.24,0.1 -0.09,0 -0.18,-0.04 -0.24,-0.1 -0.06,-0.06 -0.1,-0.15 -0.1,-0.24 0,-0.09 0.04,-0.18 0.1,-0.24 0.04,-0.04 0.1,-0.07 0.16,-0.09l0 -0.55c-0.07,0 -0.14,0.01 -0.21,0.02 -0.1,0.01 -0.19,0.03 -0.28,0.06 -0.09,0.02 -0.17,0.05 -0.24,0.09 -0.08,0.03 -0.15,0.07 -0.21,0.12 -0.06,0.04 -0.12,0.09 -0.17,0.14 -0.05,0.05 -0.09,0.1 -0.13,0.15l-0.01 0.01c0.03,0.02 0.05,0.03 0.07,0.06 0.06,0.06 0.1,0.15 0.1,0.24 0,0.09 -0.04,0.18 -0.1,0.24 -0.06,0.06 -0.15,0.1 -0.24,0.1 -0.09,0 -0.18,-0.04 -0.24,-0.1l-0 -0c-0.06,-0.06 -0.09,-0.14 -0.09,-0.23 0,-0.09 0.04,-0.18 0.1,-0.24 0.06,-0.06 0.14,-0.1 0.24,-0.1l0.03 0c-0,-0.02 -0,-0.04 0.01,-0.06 0.04,-0.06 0.09,-0.12 0.15,-0.18 0.06,-0.06 0.13,-0.11 0.2,-0.16 0.07,-0.05 0.15,-0.09 0.23,-0.13 0.08,-0.04 0.17,-0.07 0.27,-0.1 0.09,-0.03 0.19,-0.05 0.3,-0.06 0.08,-0.01 0.15,-0.02 0.23,-0.02l0 -0.65 -1.26 0c-0.03,0 -0.05,-0 -0.08,-0.01 -0.01,0 -0.02,0.01 -0.02,0.01l-0.31 0c-0.53,0.01 -0.53,-0.5 -0.52,-0.99l-0 -0.27c-0.01,-0.26 -0.06,-0.48 -0.28,-0.47l-0.39 0.01c-0.04,0 -0.08,-0.03 -0.08,-0.08 -0,-0.04 0.03,-0.08 0.08,-0.08l0.39 -0.01c0.36,-0.01 0.43,0.27 0.44,0.62l0 0.28c-0.01,0.41 -0.01,0.83 0.36,0.83l0.13 -0c-0.03,-0.05 -0.05,-0.11 -0.05,-0.18l0 -0.16c0,-0.09 0.04,-0.18 0.1,-0.24 0.06,-0.06 0.15,-0.1 0.24,-0.1l1.26 0 0 -0.18zm1.7 2.58c-0.03,-0.03 -0.08,-0.05 -0.12,-0.05 -0.05,0 -0.09,0.02 -0.12,0.05 -0.03,0.03 -0.05,0.08 -0.05,0.12 0,0.05 0.02,0.09 0.05,0.12l0 0c0.03,0.03 0.08,0.05 0.12,0.05 0.05,0 0.09,-0.02 0.12,-0.05 0.03,-0.03 0.05,-0.08 0.05,-0.12 0,-0.05 -0.02,-0.09 -0.05,-0.12zm-1.49 0c-0.03,-0.03 -0.08,-0.05 -0.12,-0.05 -0.05,0 -0.09,0.02 -0.12,0.05 -0.03,0.03 -0.05,0.08 -0.05,0.12 0,0.05 0.02,0.09 0.05,0.12 0.03,0.03 0.08,0.05 0.12,0.05 0.05,0 0.09,-0.02 0.12,-0.05 0.03,-0.03 0.05,-0.08 0.05,-0.12 0,-0.05 -0.02,-0.09 -0.05,-0.12zm-1.49 0c-0.03,-0.03 -0.08,-0.05 -0.12,-0.05 -0.05,0 -0.09,0.02 -0.12,0.05 -0.03,0.03 -0.05,0.08 -0.05,0.12 0,0.05 0.02,0.09 0.05,0.12l0 0c0.03,0.03 0.08,0.05 0.12,0.05 0.05,0 0.09,-0.02 0.12,-0.05 0.03,-0.03 0.05,-0.08 0.05,-0.12 0,-0.05 -0.02,-0.09 -0.05,-0.12zm2.7 -2.24l-1.33 0 -0 0 -0 0 -1.33 0c-0.05,0 -0.09,0.02 -0.13,0.05 -0.03,0.03 -0.05,0.08 -0.05,0.13l0 0.16c0,0.05 0.02,0.09 0.05,0.13 0.03,0.03 0.08,0.05 0.13,0.05l1.33 0 0 0 0 0 1.33 0c0.05,0 0.09,-0.02 0.13,-0.05 0.03,-0.03 0.05,-0.08 0.05,-0.13l0 -0.16c0,-0.05 -0.02,-0.09 -0.05,-0.12l-0 -0c-0.03,-0.03 -0.08,-0.05 -0.13,-0.05z"/>
 </g>
</svg>
