<?xml version="1.0" encoding="UTF-8"?>
<!DOCTYPE svg PUBLIC "-//W3C//DTD SVG 1.1//EN" "http://www.w3.org/Graphics/SVG/1.1/DTD/svg11.dtd">
<!-- Creator: CorelDRAW 2020 (64-Bit) -->
<svg xmlns="http://www.w3.org/2000/svg" xml:space="preserve" width="1.7211mm" height="1.6661mm" version="1.1" style="shape-rendering:geometricPrecision; text-rendering:geometricPrecision; image-rendering:optimizeQuality; fill-rule:evenodd; clip-rule:evenodd"
viewBox="0 0 2.43 2.35"
 xmlns:xlink="http://www.w3.org/1999/xlink"
 xmlns:xodm="http://www.corel.com/coreldraw/odm/2003">
 <defs>
  <style type="text/css">
   <![CDATA[
    .fil0 {fill:#B2B3B3;fill-rule:nonzero}
   ]]>
  </style>
 </defs>
 <g id="Layer_x0020_1">
  <metadata id="CorelCorpID_0Corel-Layer"/>
  <path class="fil0" d="M2.42 1.78c0,0 0,0.01 0,0.01l0 0.52c0,0.02 -0.02,0.04 -0.04,0.04l-0.33 0c-0.02,0 -0.04,-0.02 -0.04,-0.04l0 -0.22 -1.59 0 0 0.22c0,0.02 -0.02,0.04 -0.04,0.04l-0.33 0c-0.02,0 -0.04,-0.02 -0.04,-0.04l0 -0.52c0,-0.01 0,-0.01 0,-0.01 -0,-0.01 -0.01,-0.01 -0.01,-0.02 0,-0.01 0,-0.01 0,-0.02l0.25 -0.78c0,-0.01 0.01,-0.02 0.02,-0.02 -0.01,-0.01 -0.01,-0.02 -0.01,-0.03l0 -0.71c0,-0.05 0.02,-0.1 0.06,-0.14 0.03,-0.04 0.08,-0.06 0.14,-0.06l1.54 0c0.05,0 0.1,0.02 0.14,0.06 0.03,0.04 0.06,0.09 0.06,0.14l0 0.71c0,0.01 -0.01,0.02 -0.01,0.03 0.01,0.01 0.01,0.01 0.02,0.02l0.25 0.79c0,0.01 0,0.02 -0,0.03zm-2.34 0.02l0 0.47 0.25 0 0 -0.22c0,-0.02 0.02,-0.04 0.04,-0.04l1.68 0c0.02,0 0.04,0.02 0.04,0.04l0 0.22 0.25 0 0 -0.47 -2.26 0zm0.25 -0.88c0.04,-0.01 0.08,-0.01 0.13,-0.02 -0.01,-0.01 -0.01,-0.02 -0.01,-0.03l0 -0.14c0,-0.06 0.02,-0.11 0.06,-0.15 0.04,-0.04 0.09,-0.06 0.15,-0.06l0.38 0c0.06,0 0.11,0.02 0.15,0.06 0.01,0.01 0.02,0.03 0.03,0.04 0.01,-0.01 0.02,-0.03 0.03,-0.04 0.04,-0.04 0.09,-0.06 0.15,-0.06l0.38 0c0.06,0 0.11,0.02 0.15,0.06 0.04,0.04 0.06,0.09 0.06,0.15l0 0.14c0,0.01 -0,0.01 -0,0.02 0.04,0.01 0.09,0.01 0.12,0.02 -0,-0 -0,-0.01 -0,-0.01l0 -0.71c0,-0.03 -0.01,-0.06 -0.03,-0.08 -0.02,-0.02 -0.05,-0.03 -0.08,-0.03l-1.54 0c-0.03,0 -0.06,0.01 -0.08,0.03 -0.02,0.02 -0.03,0.05 -0.03,0.08l0 0.71c0,0.01 -0,0.01 -0,0.02zm0.2 -0.03c0.2,-0.02 0.42,-0.03 0.63,-0.04 -0,-0 -0,-0.01 -0,-0.02l0 -0.1c0,-0.04 -0.01,-0.07 -0.04,-0.09 -0.02,-0.02 -0.05,-0.04 -0.09,-0.04l-0.38 0c-0.03,0 -0.06,0.01 -0.09,0.04 -0.02,0.02 -0.04,0.06 -0.04,0.09l0 0.14c0,0.01 -0,0.01 -0,0.02zm0.73 -0.04l0 0c0.23,0 0.45,0.01 0.63,0.03 -0,-0 -0,-0.01 -0,-0.01l0 -0.14c0,-0.04 -0.01,-0.07 -0.04,-0.09 -0.02,-0.02 -0.05,-0.04 -0.09,-0.04l-0.38 0c-0.03,0 -0.06,0.01 -0.09,0.04 -0.02,0.02 -0.04,0.06 -0.04,0.09l0 0.1c0,0.01 -0,0.01 -0,0.01zm0 0.08c-0.32,0 -0.66,0.02 -0.94,0.07l-0.23 0.71 2.23 0 -0.22 -0.71c-0.19,-0.04 -0.5,-0.06 -0.84,-0.06z"/>
 </g>
</svg>
