<?xml version="1.0" encoding="UTF-8"?>
<!DOCTYPE svg PUBLIC "-//W3C//DTD SVG 1.1//EN" "http://www.w3.org/Graphics/SVG/1.1/DTD/svg11.dtd">
<!-- Creator: CorelDRAW 2020 (64-Bit) -->
<svg xmlns="http://www.w3.org/2000/svg" xml:space="preserve" width="1.6922mm" height="1.6696mm" version="1.1" style="shape-rendering:geometricPrecision; text-rendering:geometricPrecision; image-rendering:optimizeQuality; fill-rule:evenodd; clip-rule:evenodd"
viewBox="0 0 4.6 4.54"
 xmlns:xlink="http://www.w3.org/1999/xlink"
 xmlns:xodm="http://www.corel.com/coreldraw/odm/2003">
 <defs>
  <style type="text/css">
   <![CDATA[
    .fil0 {fill:#B2B3B3;fill-rule:nonzero}
   ]]>
  </style>
 </defs>
 <g id="Layer_x0020_1">
  <metadata id="CorelCorpID_0Corel-Layer"/>
  <path class="fil0" d="M4.53 1.34c-0.29,0 -0.58,0 -0.88,0l-0.04 0 0 -0.42c0,-0.03 -0.03,-0.06 -0.07,-0.06l-1.55 0c-0.27,0 -0.5,0.19 -0.54,0.45l-0 0.03 -0.18 0 0.04 -0.05c0.04,-0.06 0.07,-0.14 0.07,-0.22 0,-0.22 -0.18,-0.39 -0.4,-0.39 -0.08,0 -0.15,0.03 -0.22,0.07l-0.05 0.04 0 -0.72c0,-0.03 -0.03,-0.06 -0.07,-0.06l-0.58 0c-0.03,0 -0.07,0.03 -0.07,0.06l0 4.41c0,0.03 0.03,0.06 0.07,0.06l0.58 0c0.03,0 0.07,-0.03 0.07,-0.06l0 -0.8 3.17 0 0 0.8c0,0.03 0.03,0.06 0.07,0.06l0.58 0c0.03,0 0.07,-0.03 0.07,-0.06l0 -3.06c-0,-0.03 -0.03,-0.07 -0.07,-0.07zm-1.03 1.63l-1.91 0 0.01 -0.04c0.05,-0.18 0.21,-0.32 0.41,-0.32l1.49 0 0 0.36zm0.07 -0.48l-1.55 0c-0.27,0 -0.49,0.19 -0.54,0.45l-0 0.03 -0.18 0 0.04 -0.05c0.04,-0.06 0.07,-0.14 0.07,-0.22 0,-0.22 -0.18,-0.39 -0.4,-0.39 -0.08,0 -0.15,0.03 -0.22,0.07l-0.05 0.04 0 -0.38 3.17 0 0 0.94 -0.27 0 0 -0.42c0,-0.03 -0.03,-0.06 -0.06,-0.06zm-2.85 0.2c0,-0.15 0.13,-0.27 0.28,-0.27 0.15,0 0.28,0.12 0.28,0.27 0,0.15 -0.13,0.27 -0.28,0.27 -0.15,0 -0.28,-0.12 -0.28,-0.27zm3.17 -0.78l-3.17 0 0 -0.45 0.04 0c1.03,0 2.07,0 3.1,0l0.04 0 0 0.45zm-1.87 -0.93l1.49 0 0 0.35 -1.92 0 0.01 -0.04c0.05,-0.19 0.22,-0.31 0.41,-0.31zm-1.02 -0.19c0.15,0 0.28,0.12 0.28,0.27 0,0.15 -0.13,0.27 -0.28,0.27 -0.15,0 -0.28,-0.12 -0.28,-0.27 0,-0.15 0.13,-0.27 0.28,-0.27zm-0.4 3.61l-0.46 0 0 -4.29 0.46 0 0 0.04c0,1.41 0,2.81 0,4.22l0 0.04zm0.12 -0.86l0 -0.45 0.04 0c1.03,0 2.07,0 3.1,0l0.04 0 0 0.45 -3.17 0zm3.75 0.86l-0.46 0 0 -0.04c0,-0.96 0,-1.92 0,-2.87l0 -0.04 0.46 0 0 2.94z"/>
 </g>
</svg>
