<?xml version="1.0" encoding="UTF-8"?>
<!DOCTYPE svg PUBLIC "-//W3C//DTD SVG 1.1//EN" "http://www.w3.org/Graphics/SVG/1.1/DTD/svg11.dtd">
<!-- Creator: CorelDRAW 2020 (64-Bit) -->
<svg xmlns="http://www.w3.org/2000/svg" xml:space="preserve" width="2.1566mm" height="1.2777mm" version="1.1" style="shape-rendering:geometricPrecision; text-rendering:geometricPrecision; image-rendering:optimizeQuality; fill-rule:evenodd; clip-rule:evenodd"
viewBox="0 0 3.58 2.12"
 xmlns:xlink="http://www.w3.org/1999/xlink"
 xmlns:xodm="http://www.corel.com/coreldraw/odm/2003">
 <defs>
  <style type="text/css">
   <![CDATA[
    .fil0 {fill:#898989;fill-rule:nonzero}
   ]]>
  </style>
 </defs>
 <g id="Layer_x0020_1">
  <metadata id="CorelCorpID_0Corel-Layer"/>
  <path class="fil0" d="M3.33 1.95c0,-0.01 0.01,-0.01 0.01,-0.02l-0.39 0 0 0.01 0 0.13 0.38 0 0 -0.12zm-0.27 -0.81c0,0 0,0.01 0,0.02l0 0.41c0,0.02 -0.01,0.04 -0.02,0.05 -0.01,0.01 -0.03,0.02 -0.05,0.02l-2.38 0c-0.02,0 -0.04,-0.01 -0.05,-0.02 -0.01,-0.01 -0.02,-0.03 -0.02,-0.05l0 -0.41c0,-0.01 0,-0.01 0,-0.02l0 -0.15c0,-0.08 -0.03,-0.15 -0.08,-0.2 -0.05,-0.05 -0.12,-0.08 -0.2,-0.08l-0.16 0 0 1.13 3.39 0 0 -1.13 -0.16 0c-0.08,0 -0.15,0.03 -0.2,0.08 -0.05,0.05 -0.08,0.12 -0.08,0.2l0 0.16zm-2.43 0.25l0 0.17 2.34 0 0 -0.17c-0.16,-0.08 -0.29,-0.13 -0.45,-0.17l-0 -0c-0.17,-0.04 -0.38,-0.06 -0.71,-0.06 -0.34,0 -0.57,0.03 -0.76,0.07 -0.17,0.04 -0.3,0.1 -0.42,0.16zm-0.08 -0.63l0 -0.28c-0,-0.23 0.15,-0.35 0.39,-0.41 0.22,-0.06 0.53,-0.06 0.85,-0.06 0.33,0 0.64,0.01 0.87,0.07 0.24,0.06 0.4,0.18 0.4,0.4l-0 0.26 0.01 -0.01c0.07,-0.07 0.16,-0.11 0.26,-0.11l0.17 0c0.02,0 0.05,0.01 0.06,0.03 0.02,0.02 0.03,0.04 0.03,0.06l0 1.14c0,0.02 -0.01,0.05 -0.03,0.06 -0.02,0.02 -0.04,0.03 -0.06,0.03l-0.09 0c0.01,0 0.01,0.01 0.01,0.02l0 0.14c0,0.01 -0.02,0.03 -0.05,0.03l-0.47 0c-0.03,0 -0.05,-0.01 -0.05,-0.03l0 -0.16 0 -0.01 -2.13 0 0 0.01 0 0.16c0,0.01 -0.02,0.03 -0.05,0.03l-0.47 0c-0.03,0 -0.05,-0.01 -0.05,-0.03l0 -0.14c0,-0.01 0.01,-0.01 0.01,-0.02l-0.09 0c-0.02,0 -0.05,-0.01 -0.06,-0.03 -0.02,-0.02 -0.03,-0.04 -0.03,-0.06l0 -1.14c0,-0.02 0.01,-0.05 0.03,-0.06 0.02,-0.02 0.04,-0.03 0.06,-0.03l0.17 0c0.1,0 0.19,0.04 0.26,0.11 0.01,0.01 0.02,0.02 0.03,0.03zm2.42 0.14l0.01 -0.42c0,-0.16 -0.13,-0.25 -0.34,-0.31 -0.22,-0.06 -0.53,-0.07 -0.85,-0.07 -0.32,0 -0.62,0 -0.83,0.06 -0.2,0.05 -0.32,0.14 -0.32,0.32l-0.01 0.5 0 0.01 0 0.3c0.11,-0.05 0.24,-0.11 0.4,-0.14 0.19,-0.05 0.43,-0.08 0.78,-0.08 0.34,0 0.56,0.02 0.73,0.06l0 0c0.15,0.03 0.27,0.09 0.42,0.16l-0 -0.29c0,-0.03 0,-0.06 0.01,-0.09zm-2.34 1.04l-0.39 0c0.01,0 0.01,0.01 0.01,0.02l0 0.12 0.38 0 0 -0.13 0 -0.01z"/>
 </g>
</svg>
