<?xml version="1.0" encoding="UTF-8"?>
<!DOCTYPE svg PUBLIC "-//W3C//DTD SVG 1.1//EN" "http://www.w3.org/Graphics/SVG/1.1/DTD/svg11.dtd">
<!-- Creator: CorelDRAW 2020 (64-Bit) -->
<svg xmlns="http://www.w3.org/2000/svg" xml:space="preserve" width="1.6942mm" height="1.4448mm" version="1.1" style="shape-rendering:geometricPrecision; text-rendering:geometricPrecision; image-rendering:optimizeQuality; fill-rule:evenodd; clip-rule:evenodd"
viewBox="0 0 2.22 1.89"
 xmlns:xlink="http://www.w3.org/1999/xlink"
 xmlns:xodm="http://www.corel.com/coreldraw/odm/2003">
 <defs>
  <style type="text/css">
   <![CDATA[
    .fil0 {fill:#898989}
   ]]>
  </style>
 </defs>
 <g id="Layer_x0020_1">
  <metadata id="CorelCorpID_0Corel-Layer"/>
  <path class="fil0" d="M2.22 0.57c-0,-0.01 -0.02,-0.03 -0.03,-0.03l-0.63 0 0.01 -0.03c0.01,-0.07 -0.04,-0.13 -0.1,-0.13l-0.32 0c-0.07,0 -0.12,0.06 -0.1,0.13l0.01 0.03 -0.29 0 0.01 -0.03c0.01,-0.04 -0,-0.08 -0.04,-0.11l-0.02 -0.02 0.01 -0.02c0.08,-0.12 0.06,-0.27 -0.05,-0.36l-0 -0 -0 -0c-0,-0 -0.01,-0 -0.01,-0l-0.31 0c-0,0 -0.01,0 -0.01,0l-0 0 -0 0c-0.11,0.09 -0.13,0.24 -0.05,0.36l0.01 0.02 -0.02 0.02c-0.03,0.02 -0.05,0.06 -0.04,0.1l0.01 0.03 -0.2 0c-0.01,0 -0.03,0.01 -0.03,0.03 0,0.43 0,0.87 0,1.3 0,0.01 0.01,0.03 0.03,0.03 0.72,0 1.44,0 2.16,0 0.01,0 0.03,-0.01 0.03,-0.03 0,-0.43 0,-0.86 0,-1.3zm-1.06 0.35c0.14,0 0.29,0 0.43,0l0.03 0 0 0.22 -0.49 0 0 -0.22 0.03 0zm0.52 0l0.49 0 0 0.22 -0.49 0 0 -0.22zm0.46 -0.05c-0.25,0 -0.5,0 -0.75,0l-0.03 0 0 -0.27 0.03 0c0.25,0 0.5,0 0.75,0l0.03 0 0 0.27 -0.03 0zm-1.05 -0.38c0,-0.03 0.03,-0.05 0.05,-0.05l0.33 0c0.03,0 0.05,0.03 0.05,0.05 0,0.03 -0.02,0.05 -0.05,0.05 -0.11,0 -0.21,0 -0.32,0 -0.03,0 -0.06,-0.02 -0.06,-0.05zm-0.74 -0.43l0.29 0 0.01 0.01c0.09,0.09 0.09,0.22 0,0.31l-0.01 0.01 -0.29 0 -0.01 -0.01c-0.09,-0.09 -0.09,-0.22 0,-0.31l0.01 -0.01zm-0.07 0.43c0,-0.03 0.03,-0.05 0.05,-0.05 0.11,0 0.22,0 0.33,0 0.03,0 0.05,0.03 0.05,0.05 0,0.03 -0.02,0.05 -0.05,0.05l-0.32 0c-0.03,0 -0.06,-0.02 -0.06,-0.05zm-0.19 0.11c0.4,0 0.79,0 1.19,0l0.03 0 0 0.27 -0.03 0c-0.4,0 -0.79,0 -1.19,0l-0.03 0 0 -0.27 0.03 0zm-0.03 0.32l1.03 0 0 0.92 -1.03 0 0 -0.92zm1.08 0.27l0.49 0 0 0.65 -0.49 0 0 -0.65zm0.54 0.65l0 -0.65 0.49 0 0 0.65 -0.49 0zm0.03 -1.08l0.05 0c0.01,0 0.03,-0.01 0.03,-0.03 0,-0.01 -0.01,-0.03 -0.03,-0.03l-0.06 0c-0.01,0 -0.03,0.01 -0.03,0.03 0,0.02 0.02,0.03 0.03,0.03zm-0.7 -0.06c-0.01,0 -0.03,0.01 -0.03,0.03 0,0.01 0.01,0.03 0.03,0.03 0.01,0 0.03,-0.01 0.03,-0.03 0,-0.01 -0.01,-0.03 -0.03,-0.03zm-0.17 0c-0.01,0 -0.03,0.01 -0.03,0.03 0,0.01 0.01,0.03 0.03,0.03 0.01,0 0.03,-0.01 0.03,-0.03 0,-0.01 -0.01,-0.03 -0.03,-0.03zm-0.16 0c-0.01,0 -0.03,0.01 -0.03,0.03 0,0.01 0.01,0.03 0.03,0.03 0.01,0 0.03,-0.01 0.03,-0.03 0,-0.01 -0.01,-0.03 -0.03,-0.03zm-0.16 0c-0.01,0 -0.03,0.01 -0.03,0.03 0,0.01 0.01,0.03 0.03,0.03 0.01,0 0.03,-0.01 0.03,-0.03 0,-0.01 -0.01,-0.03 -0.03,-0.03zm-0.16 0c-0.01,0 -0.03,0.01 -0.03,0.03 0,0.01 0.01,0.03 0.03,0.03 0.01,0 0.03,-0.01 0.03,-0.03 0,-0.01 -0.01,-0.03 -0.03,-0.03zm1.16 0.79c-0,-0.01 -0.02,-0.03 -0.03,-0.03 -0.01,0 -0.03,0.01 -0.03,0.03l0 0.05c0,0.01 0.01,0.03 0.03,0.03 0.01,0 0.03,-0.01 0.03,-0.03l0 -0.05zm0.29 -0.03c-0.01,0 -0.03,0.01 -0.03,0.03l0 0.05c0,0.01 0.01,0.03 0.03,0.03 0.01,0 0.03,-0.01 0.03,-0.03l0 -0.06c0,-0.01 -0.02,-0.02 -0.03,-0.02zm-1.56 -0.36l0.63 0c0.01,0 0.02,0 0.03,0.01 0.01,0.01 0.01,0.02 0.01,0.03l0 0.51c0,0.01 -0,0.02 -0.01,0.03 -0.01,0.01 -0.02,0.01 -0.03,0.01l-0.63 0c-0.01,0 -0.02,-0 -0.03,-0.01 -0.01,-0.01 -0.01,-0.02 -0.01,-0.03l0 -0.51c0,-0.01 0,-0.02 0.01,-0.03 0.01,-0.01 0.02,-0.01 0.03,-0.01zm0.01 0.51l0.22 -0.21c0.01,-0.01 0.03,-0.01 0.04,0 0.01,0.01 0.01,0.03 -0,0.04l-0.22 0.2 0.57 0 0 -0.21 -0.12 0.1c-0.01,0.01 -0.03,0.01 -0.04,-0 -0.01,-0.01 -0.01,-0.03 0,-0.04l0.15 -0.14 0 -0.21 -0.61 0 0 0.46z"/>
 </g>
</svg>
