<?xml version="1.0" encoding="UTF-8"?>
<!DOCTYPE svg PUBLIC "-//W3C//DTD SVG 1.1//EN" "http://www.w3.org/Graphics/SVG/1.1/DTD/svg11.dtd">
<!-- Creator: CorelDRAW 2020 (64-Bit) -->
<svg xmlns="http://www.w3.org/2000/svg" xml:space="preserve" width="1.1884mm" height="1.3587mm" version="1.1" style="shape-rendering:geometricPrecision; text-rendering:geometricPrecision; image-rendering:optimizeQuality; fill-rule:evenodd; clip-rule:evenodd"
viewBox="0 0 1.1 1.25"
 xmlns:xlink="http://www.w3.org/1999/xlink"
 xmlns:xodm="http://www.corel.com/coreldraw/odm/2003">
 <defs>
  <style type="text/css">
   <![CDATA[
    .fil0 {fill:#898989;fill-rule:nonzero}
   ]]>
  </style>
 </defs>
 <g id="Layer_x0020_1">
  <metadata id="CorelCorpID_0Corel-Layer"/>
  <path class="fil0" d="M0.05 0l0.99 0c0.01,0 0.03,0.01 0.04,0.02l0 0c0.01,0.01 0.01,0.02 0.01,0.04l0 0.34 0 0 0 0 0 0.37 0 0 0 0 0 0.34c0,0.01 -0.01,0.03 -0.02,0.04 -0.01,0.01 -0.02,0.01 -0.03,0.02l0 0.05c0,0 -0,0 -0,0.01 0,0 0,0 0,0.01 0,0.01 -0.01,0.02 -0.02,0.02l-0.96 0c-0.01,0 -0.02,-0.01 -0.02,-0.02 0,-0 0,-0 0,-0.01 -0,-0 -0,-0 -0,-0.01l0 -0.05c-0.01,-0 -0.02,-0.01 -0.03,-0.02 -0.01,-0.01 -0.02,-0.02 -0.02,-0.04l0 -0.34 0 -0 0 -0 0 -0.37 0 -0 0 -0 0 -0.34c0,-0.01 0.01,-0.03 0.02,-0.04 0.01,-0.01 0.02,-0.02 0.04,-0.02zm0.56 0.84c0.01,0 0.02,0.01 0.02,0.02 0,0.01 -0.01,0.02 -0.02,0.02l-0.13 0c-0.01,0 -0.02,-0.01 -0.02,-0.02 0,-0.01 0.01,-0.02 0.02,-0.02l0.13 0zm0.44 -0.05l-1 0 0 0.32c0,0 0,0 0,0.01 0,0 0,0 0.01,0l0.99 0c0,0 0,-0 0.01,-0 0,-0 0,-0 0,-0.01l0 -0.32zm-1 -0.05l1 0 0 -0.32 -1 0 0 0.32zm0.57 -0.28c0.01,0 0.02,0.01 0.02,0.02 0,0.01 -0.01,0.02 -0.02,0.02l-0.13 0c-0.01,0 -0.02,-0.01 -0.02,-0.02 0,-0.01 0.01,-0.02 0.02,-0.02l0.13 0zm-0.57 -0.09l1 0 0 -0.32c0,-0 -0,-0 -0,-0l-0 -0c-0,-0 -0,-0 -0.01,-0l-0.99 0c-0,0 -0,0 -0.01,0 -0,0 -0,0 -0,0.01l0 0.32zm0.57 -0.28c0.01,0 0.02,0.01 0.02,0.02 0,0.01 -0.01,0.02 -0.02,0.02l-0.13 0c-0.01,0 -0.02,-0.01 -0.02,-0.02 0,-0.01 0.01,-0.02 0.02,-0.02l0.13 0zm0.39 1.07l-0.91 0 0 0.04 0.91 0 0 -0.04z"/>
 </g>
</svg>
