<?xml version="1.0" encoding="UTF-8"?>
<!DOCTYPE svg PUBLIC "-//W3C//DTD SVG 1.1//EN" "http://www.w3.org/Graphics/SVG/1.1/DTD/svg11.dtd">
<!-- Creator: CorelDRAW 2020 (64-Bit) -->
<svg xmlns="http://www.w3.org/2000/svg" xml:space="preserve" width="1.4761mm" height="1.4772mm" version="1.1" style="shape-rendering:geometricPrecision; text-rendering:geometricPrecision; image-rendering:optimizeQuality; fill-rule:evenodd; clip-rule:evenodd"
viewBox="0 0 1.69 1.69"
 xmlns:xlink="http://www.w3.org/1999/xlink"
 xmlns:xodm="http://www.corel.com/coreldraw/odm/2003">
 <defs>
  <style type="text/css">
   <![CDATA[
    .fil0 {fill:#898989;fill-rule:nonzero}
   ]]>
  </style>
 </defs>
 <g id="Layer_x0020_1">
  <metadata id="CorelCorpID_0Corel-Layer"/>
  <path class="fil0" d="M0.07 0l0.46 0 0 0 0 0 0.63 0 0 0 0 0 0.46 0c0.02,0 0.03,0.01 0.05,0.02l0 0c0.01,0.01 0.02,0.03 0.02,0.05l0 0.65 0 0 0 0 0 0.34 0 0 0 0 0 0.25 0 0 0 0 0 0.2c0,0.02 -0.01,0.03 -0.02,0.05 -0.01,0.01 -0.03,0.02 -0.04,0.02l0 0.07c0,0.01 -0.01,0.03 -0.03,0.03 -0.01,0 -0.03,-0.01 -0.03,-0.03l0 -0.07 -0.41 0 -0 0 -0 0 -0.63 0 -0 0 -0 0 -0.41 0 0 0.07c0,0.01 -0.01,0.03 -0.03,0.03 -0.01,0 -0.03,-0.01 -0.03,-0.03l0 -0.07c-0.02,-0 -0.03,-0.01 -0.04,-0.02l-0 -0c-0.01,-0.01 -0.02,-0.03 -0.02,-0.04l0 -0.2 0 -0 0 -0 0 -0.25 0 -0 0 -0 0 -0.69 0 -0 0 -0 0 -0.31c0,-0.02 0.01,-0.03 0.02,-0.05 0.01,-0.01 0.03,-0.02 0.05,-0.02zm0.29 1.41c0.01,0 0.03,0.01 0.03,0.03 0,0.01 -0.01,0.03 -0.03,0.03l-0.17 0c-0.01,0 -0.03,-0.01 -0.03,-0.03 0,-0.01 0.01,-0.03 0.03,-0.03l0.17 0zm1.15 0c0.01,0 0.03,0.01 0.03,0.03 0,0.01 -0.01,0.03 -0.03,0.03l-0.17 0c-0.01,0 -0.03,-0.01 -0.03,-0.03 0,-0.01 0.01,-0.03 0.03,-0.03l0.17 0zm-0.57 0c0.01,0 0.03,0.01 0.03,0.03 0,0.01 -0.01,0.03 -0.03,0.03l-0.17 0c-0.01,0 -0.03,-0.01 -0.03,-0.03 0,-0.01 0.01,-0.03 0.03,-0.03l0.17 0zm0.71 -0.07l-0.45 0 0 0.19 0.43 0c0,0 0.01,-0 0.01,-0 0,-0 0,-0.01 0,-0.01l0 -0.18zm-0.5 0l-0.58 0 0 0.19 0.58 0 0 -0.19zm-0.63 0l-0.45 0 0 0.18c0,0 0,0.01 0,0.01 0,0 0.01,0 0.01,0l0.43 0 0 -0.19zm-0.45 -0.05l0.45 0 0 -0.2 -0.45 0 0 0.2zm0.5 0l0.58 0 0 -0.2 -0.58 0 0 0.2zm0.63 0l0.45 0 0 -0.2 -0.45 0 0 0.2zm-0.83 -0.13c0.01,0 0.03,0.01 0.03,0.03 0,0.01 -0.01,0.03 -0.03,0.03l-0.17 0c-0.01,0 -0.03,-0.01 -0.03,-0.03 0,-0.01 0.01,-0.03 0.03,-0.03l0.17 0zm1.15 0c0.01,0 0.03,0.01 0.03,0.03 0,0.01 -0.01,0.03 -0.03,0.03l-0.17 0c-0.01,0 -0.03,-0.01 -0.03,-0.03 0,-0.01 0.01,-0.03 0.03,-0.03l0.17 0zm-0.57 0c0.01,0 0.03,0.01 0.03,0.03 0,0.01 -0.01,0.03 -0.03,0.03l-0.17 0c-0.01,0 -0.03,-0.01 -0.03,-0.03 0,-0.01 0.01,-0.03 0.03,-0.03l0.17 0zm-0.87 -0.12l0.45 0 0 -0.3c-0,0 -0.01,0 -0.01,0l-0.43 0 0 0.29zm0.5 0l0.58 0 0 -0.47 -0.58 0 0 0.47zm0.63 0l0.45 0 0 -0.29 -0.43 0c-0.01,0 -0.01,-0 -0.01,-0l0 0.3zm-0.7 -0.35c0,0 0.01,0 0.01,0l0 -0.15 0 -0 0 -0 0 -0.15c-0,0 -0.01,0 -0.01,0l-0.43 0 0 0.29 0.43 0zm-0 -0.35c0.01,0 0.01,0 0.01,0l0 -0.3 -0.43 0c-0,0 -0.01,0 -0.01,0 -0,0 -0,0.01 -0,0.01l0 0.28 0.43 0zm0.7 0.35c0,-0 0.01,-0 0.01,-0l0.43 0 0 -0.29 -0.43 0c-0,0 -0.01,-0 -0.01,-0l0 0.15 0 0 0 0 0 0.15zm0 -0.35c0,-0 0.01,-0 0.01,-0l0.43 0 0 -0.28c0,-0 -0,-0.01 -0,-0.01l-0 -0c-0,-0 -0.01,-0 -0.01,-0l-0.43 0 0 0.3zm-0.26 0.29c0.01,0 0.03,0.01 0.03,0.03 0,0.01 -0.01,0.03 -0.03,0.03l-0.17 0c-0.01,0 -0.03,-0.01 -0.03,-0.03 0,-0.01 0.01,-0.03 0.03,-0.03l0.17 0zm-0.37 -0.12l0.58 0 0 -0.47 -0.58 0 0 0.47z"/>
 </g>
</svg>
