<?xml version="1.0" encoding="UTF-8"?>
<!DOCTYPE svg PUBLIC "-//W3C//DTD SVG 1.1//EN" "http://www.w3.org/Graphics/SVG/1.1/DTD/svg11.dtd">
<!-- Creator: CorelDRAW 2020 (64-Bit) -->
<svg xmlns="http://www.w3.org/2000/svg" xml:space="preserve" width="1.6056mm" height="1.3286mm" version="1.1" style="shape-rendering:geometricPrecision; text-rendering:geometricPrecision; image-rendering:optimizeQuality; fill-rule:evenodd; clip-rule:evenodd"
viewBox="0 0 1.99 1.65"
 xmlns:xlink="http://www.w3.org/1999/xlink"
 xmlns:xodm="http://www.corel.com/coreldraw/odm/2003">
 <defs>
  <style type="text/css">
   <![CDATA[
    .fil0 {fill:#898989;fill-rule:nonzero}
   ]]>
  </style>
 </defs>
 <g id="Layer_x0020_1">
  <metadata id="CorelCorpID_0Corel-Layer"/>
  <g id="_6005398352">
   <path class="fil0" d="M0.06 1.43l1.87 0 0 -0.37 -1.87 0 0 0.37zm1.9 0.06l-1.93 0c-0.02,0 -0.03,-0.01 -0.03,-0.03l0 -0.43c0,-0.02 0.01,-0.03 0.03,-0.03l1.93 0c0.02,0 0.03,0.01 0.03,0.03l0 0.43c0,0.02 -0.01,0.03 -0.03,0.03z"/>
   <path class="fil0" d="M1.96 1.65c-0.02,0 -0.03,-0.01 -0.03,-0.03l-0 -0.15c-0,-0.02 0.01,-0.03 0.03,-0.03 0.02,-0 0.03,0.01 0.03,0.03l0 0.15c0,0.02 -0.01,0.03 -0.03,0.03 -0,0 -0,0 -0,0z"/>
   <path class="fil0" d="M0.04 1.64c-0.02,0 -0.03,-0.01 -0.03,-0.03l-0 -0.14c-0,-0.02 0.01,-0.03 0.03,-0.03 0.02,-0 0.03,0.01 0.03,0.03l0 0.14c0,0.02 -0.01,0.03 -0.03,0.03 -0,0 -0,0 -0,0z"/>
   <path class="fil0" d="M1.96 1.05c-0.01,0 -0.03,-0.01 -0.03,-0.02 -0.06,-0.32 -0.39,-0.29 -0.4,-0.29 -0,0 -0,0 -0,0l-1.1 -0c-0.02,0 -0.32,0.01 -0.36,0.29 -0,0.02 -0.02,0.03 -0.03,0.02 -0.02,-0 -0.03,-0.02 -0.02,-0.03 0.05,-0.33 0.41,-0.34 0.41,-0.34l1.1 0c0.03,-0 0.39,-0.02 0.46,0.34 0,0.02 -0.01,0.03 -0.02,0.03 -0,0 -0,0 -0.01,0z"/>
   <path class="fil0" d="M1.81 0.81c-0.02,0 -0.03,-0.01 -0.03,-0.03l0 -0.73 -1.56 0 0 0.71c0,0.02 -0.01,0.03 -0.03,0.03 -0.02,0 -0.03,-0.01 -0.03,-0.03l0 -0.74c0,-0.02 0.01,-0.03 0.03,-0.03l1.62 0c0.02,0 0.03,0.01 0.03,0.03l0 0.75c0,0.02 -0.01,0.03 -0.03,0.03z"/>
   <path class="fil0" d="M0.47 0.71c-0.01,0 -0.02,-0.01 -0.03,-0.02 -0.02,-0.06 -0.02,-0.16 -0.02,-0.2 -0,-0.14 0.02,-0.15 0.02,-0.16 0.01,-0.01 0.02,-0.01 0.03,-0 0.09,0.04 0.32,0.04 0.35,0.01 0.01,-0.01 0.02,-0.01 0.02,-0.01 0.01,0 0.02,0.01 0.02,0.01 0.05,0.09 0.03,0.31 0.03,0.34 -0,0.02 -0.02,0.03 -0.03,0.03 -0.02,-0 -0.03,-0.02 -0.03,-0.03 0.01,-0.06 0.01,-0.2 -0.01,-0.28 -0.09,0.04 -0.26,0.03 -0.36,-0 -0.01,0.06 -0.01,0.21 0.02,0.28 0,0.02 -0,0.03 -0.02,0.04 -0,0 -0.01,0 -0.01,0z"/>
   <path class="fil0" d="M1.14 0.71c-0.01,0 -0.02,-0.01 -0.03,-0.02 -0.02,-0.06 -0.02,-0.16 -0.02,-0.2 -0,-0.14 0.01,-0.15 0.02,-0.16 0.01,-0.01 0.02,-0.01 0.03,-0 0.09,0.04 0.32,0.04 0.35,0.01 0.01,-0.01 0.02,-0.01 0.02,-0.01 0.01,0 0.02,0.01 0.02,0.01 0.05,0.09 0.03,0.31 0.03,0.34 -0,0.02 -0.02,0.03 -0.03,0.03 -0.02,-0 -0.03,-0.02 -0.03,-0.03 0.01,-0.06 0.01,-0.2 -0.01,-0.28 -0.08,0.04 -0.26,0.03 -0.36,-0 -0.01,0.06 -0.01,0.21 0.02,0.28 0,0.02 -0,0.03 -0.02,0.04 -0,0 -0.01,0 -0.01,0z"/>
  </g>
 </g>
</svg>
