<?xml version="1.0" encoding="UTF-8"?>
<!DOCTYPE svg PUBLIC "-//W3C//DTD SVG 1.1//EN" "http://www.w3.org/Graphics/SVG/1.1/DTD/svg11.dtd">
<!-- Creator: CorelDRAW 2020 (64-Bit) -->
<svg xmlns="http://www.w3.org/2000/svg" xml:space="preserve" width="1.4656mm" height="1.5234mm" version="1.1" style="shape-rendering:geometricPrecision; text-rendering:geometricPrecision; image-rendering:optimizeQuality; fill-rule:evenodd; clip-rule:evenodd"
viewBox="0 0 1.66 1.73"
 xmlns:xlink="http://www.w3.org/1999/xlink"
 xmlns:xodm="http://www.corel.com/coreldraw/odm/2003">
 <defs>
  <style type="text/css">
   <![CDATA[
    .fil0 {fill:#898989;fill-rule:nonzero}
   ]]>
  </style>
 </defs>
 <g id="Layer_x0020_1">
  <metadata id="CorelCorpID_0Corel-Layer"/>
  <g id="_5972247216">
   <path class="fil0" d="M0.36 1.41l0.28 0.25 0.95 -1.06 -0.28 -0.25 -0.95 1.06zm0.27 0.32l-0.33 -0.29c-0.01,-0.01 -0.01,-0.03 -0,-0.04l0.99 -1.11c0.01,-0.01 0.03,-0.01 0.04,-0l0.33 0.29c0.01,0.01 0.01,0.03 0,0.04l-0.99 1.11c-0.01,0.01 -0.03,0.01 -0.04,0z"/>
   <path class="fil0" d="M1.16 0.87l-0.19 -0.17c-0.01,-0.01 -0.01,-0.03 -0,-0.04 0.01,-0.01 0.03,-0.01 0.04,-0l0.19 0.17c0.01,0.01 0.01,0.03 0,0.04 -0.01,0.01 -0.03,0.01 -0.04,0z"/>
   <path class="fil0" d="M0.92 1.16l-0.19 -0.17c-0.01,-0.01 -0.01,-0.03 -0,-0.04 0.01,-0.01 0.03,-0.01 0.04,-0l0.19 0.17c0.01,0.01 0.01,0.03 0,0.04 -0.01,0.01 -0.03,0.01 -0.04,0z"/>
   <path class="fil0" d="M0.67 1.42l-0.19 -0.17c-0.01,-0.01 -0.01,-0.03 -0,-0.04 0.01,-0.01 0.03,-0.01 0.04,-0l0.19 0.17c0.01,0.01 0.01,0.03 0,0.04 -0.01,0.01 -0.03,0.01 -0.04,0z"/>
   <path class="fil0" d="M1.37 0.62l-0.19 -0.17c-0.01,-0.01 -0.01,-0.03 -0,-0.04 0.01,-0.01 0.03,-0.01 0.04,-0l0.19 0.17c0.01,0.01 0.01,0.03 0,0.04 -0.01,0.01 -0.03,0.01 -0.04,0z"/>
   <path class="fil0" d="M1.18 0.69l0 0 -0.11 -0.1c-0.01,-0.01 -0.01,-0.03 0,-0.05 0.01,-0.01 0.03,-0.02 0.04,-0.01l0 0 0.11 0.1c0.01,0.01 0.01,0.03 -0,0.05 -0.01,0.01 -0.03,0.02 -0.04,0.01z"/>
   <path class="fil0" d="M0.95 0.95c-0,0 -0,0 -0,0l-0.11 -0.1c-0.01,-0.01 -0.01,-0.03 0,-0.05 0.01,-0.01 0.03,-0.02 0.04,-0.01l0 0 0.11 0.1c0.01,0.01 0.01,0.03 -0,0.05 -0.01,0.01 -0.03,0.02 -0.04,0.01z"/>
   <path class="fil0" d="M0.7 1.22l0 0 -0.11 -0.1c-0.01,-0.01 -0.01,-0.03 0,-0.04 0.01,-0.01 0.03,-0.02 0.04,-0.01 0,0 0,0 0,0l0.11 0.1c0.01,0.01 0.01,0.03 -0,0.04 -0.01,0.01 -0.03,0.02 -0.04,0.01z"/>
   <path class="fil0" d="M0.31 1.19l-0.29 -0.26c-0.01,-0.01 -0.01,-0.03 -0,-0.04l0.58 -0.64c0.01,-0.01 0.03,-0.01 0.04,-0 0.01,0.01 0.01,0.03 0,0.04l-0.56 0.62 0.25 0.23 0.55 -0.61c0.01,-0.01 0.03,-0.01 0.04,-0l0 0c0.01,0.01 0.01,0.03 0,0.04l-0.57 0.63c-0.01,0.01 -0.03,0.01 -0.04,0z"/>
   <path class="fil0" d="M1.01 0.09l0.03 0.03 0.01 -0.05 -0.05 0.02zm0.03 0.1c-0,-0 -0,-0 -0,-0l-0.11 -0.09c-0.01,-0.01 -0.01,-0.02 -0.01,-0.03 0,-0.01 0.01,-0.02 0.02,-0.02l0.14 -0.05c0.01,-0 0.02,-0 0.03,0.01 0.01,0.01 0.01,0.02 0.01,0.03l-0.04 0.14c-0,0.01 -0,0.01 -0.01,0.02 -0.01,0.01 -0.03,0.01 -0.04,0z"/>
   <path class="fil0" d="M0.96 0.46l-0.28 -0.25c-0.01,-0.01 -0.01,-0.02 -0.01,-0.03 0,-0.01 0.01,-0.02 0.02,-0.02l0.18 -0.06c0.01,-0.01 0.03,0 0.04,0.02 0.01,0.01 -0,0.03 -0.02,0.04l-0.13 0.05 0.22 0.19 0.04 -0.13c0,-0.01 0.02,-0.02 0.04,-0.02 0.01,0 0.02,0.02 0.02,0.04l-0.05 0.17c-0,0.01 -0.01,0.02 -0.02,0.02 -0.01,0 -0.02,0 -0.03,-0.01z"/>
   <path class="fil0" d="M0.04 1.2c-0,-0 -0.01,-0.01 -0.01,-0.02l-0.03 -0.26c-0,-0.02 0.01,-0.03 0.02,-0.03 0.02,-0 0.03,0.01 0.03,0.02l0.03 0.23 0.24 -0.01c0.02,-0 0.03,0.01 0.03,0.03 0,0.02 -0.01,0.03 -0.03,0.03l-0.27 0.01c-0.01,0 -0.02,-0 -0.02,-0.01z"/>
  </g>
 </g>
</svg>
