<?xml version="1.0" encoding="UTF-8"?>
<!DOCTYPE svg PUBLIC "-//W3C//DTD SVG 1.1//EN" "http://www.w3.org/Graphics/SVG/1.1/DTD/svg11.dtd">
<!-- Creator: CorelDRAW 2020 (64-Bit) -->
<svg xmlns="http://www.w3.org/2000/svg" xml:space="preserve" width="1.3758mm" height="1.3757mm" version="1.1" style="shape-rendering:geometricPrecision; text-rendering:geometricPrecision; image-rendering:optimizeQuality; fill-rule:evenodd; clip-rule:evenodd"
viewBox="0 0 1.47 1.47"
 xmlns:xlink="http://www.w3.org/1999/xlink"
 xmlns:xodm="http://www.corel.com/coreldraw/odm/2003">
 <defs>
  <style type="text/css">
   <![CDATA[
    .fil0 {fill:#898989;fill-rule:nonzero}
   ]]>
  </style>
 </defs>
 <g id="Layer_x0020_1">
  <metadata id="CorelCorpID_0Corel-Layer"/>
  <g id="_11571483504">
   <polygon class="fil0" points="1.02,0.94 0.97,0.94 0.97,0.03 1.02,0.03 "/>
   <polygon class="fil0" points="0.44,0.97 0.03,0.97 0.03,0.92 0.44,0.92 "/>
   <polygon class="fil0" points="1.21,0.97 0.65,0.97 0.65,0.92 1.21,0.92 "/>
   <polygon class="fil0" points="0.47,1.41 0.42,1.41 0.42,1.13 0.47,1.13 "/>
   <polygon class="fil0" points="1.02,1.44 0.97,1.44 0.97,1.14 1.02,1.14 "/>
   <polygon class="fil0" points="1.44,0.48 0.99,0.48 0.99,0.42 1.44,0.42 "/>
   <polygon class="fil0" points="0.97,0.48 0.52,0.48 0.52,0.42 0.97,0.42 "/>
   <polygon class="fil0" points="1.41,0.42 1.41,1.41 0.05,1.41 0.05,0.05 1.02,0.05 1.02,0 -0,0 -0,1.47 1.47,1.47 1.47,0.42 "/>
  </g>
 </g>
</svg>
