<?xml version="1.0" encoding="UTF-8"?>
<!DOCTYPE svg PUBLIC "-//W3C//DTD SVG 1.1//EN" "http://www.w3.org/Graphics/SVG/1.1/DTD/svg11.dtd">
<!-- Creator: CorelDRAW 2020 (64-Bit) -->
<svg xmlns="http://www.w3.org/2000/svg" xml:space="preserve" width="1.3738mm" height="1.4354mm" version="1.1" style="shape-rendering:geometricPrecision; text-rendering:geometricPrecision; image-rendering:optimizeQuality; fill-rule:evenodd; clip-rule:evenodd"
viewBox="0 0 1.46 1.53"
 xmlns:xlink="http://www.w3.org/1999/xlink"
 xmlns:xodm="http://www.corel.com/coreldraw/odm/2003">
 <defs>
  <style type="text/css">
   <![CDATA[
    .fil0 {fill:#898989;fill-rule:nonzero}
   ]]>
  </style>
 </defs>
 <g id="Layer_x0020_1">
  <metadata id="CorelCorpID_0Corel-Layer"/>
  <path class="fil0" d="M0.58 0.74l0.3 0c0.02,0 0.03,-0 0.04,-0 0.05,-0.01 0.1,-0.04 0.14,-0.07 0.04,-0.04 0.06,-0.08 0.06,-0.13 0,-0.01 -0,-0.02 -0,-0.03l-0.06 -0.33c-0.01,-0.04 -0.02,-0.07 -0.05,-0.1l-0 -0c-0.02,-0.02 -0.05,-0.03 -0.08,-0.03l-0.4 0c-0.03,0 -0.06,0.01 -0.08,0.03l-0 0c-0.02,0.02 -0.04,0.06 -0.05,0.1l-0.06 0.33c-0,0.01 -0,0.02 -0,0.03 0,0.05 0.02,0.09 0.06,0.13 0.04,0.04 0.09,0.06 0.14,0.07 0.01,0 0.03,0 0.04,0zm0.13 0.05c0,-0.01 0,-0.01 0.01,-0.01l-0.14 0c-0.02,0 -0.03,-0 -0.05,-0 -0.06,-0.01 -0.12,-0.04 -0.16,-0.08 -0.04,-0.04 -0.07,-0.1 -0.07,-0.16 0,-0.01 0,-0.02 0,-0.04l0.06 -0.33c0.01,-0.05 0.03,-0.09 0.06,-0.12l0 -0c0.03,-0.03 0.07,-0.05 0.11,-0.05l0.4 0c0.04,0 0.08,0.02 0.11,0.05l0 0c0.03,0.03 0.05,0.07 0.06,0.12l0.06 0.33c0,0.01 0,0.02 0,0.04 0,0.06 -0.03,0.11 -0.07,0.16 -0.04,0.04 -0.1,0.07 -0.16,0.08 -0.02,0 -0.03,0 -0.05,0l-0.14 0c0,0 0.01,0.01 0.01,0.01l0 0.04 0.3 0c0.02,0 0.04,0.01 0.06,0.02l0 0c0.01,0.01 0.02,0.03 0.02,0.06l0 0.04c0,0.02 -0,0.03 -0.01,0.04l0.03 0c0.09,0 0.09,-0.1 0.09,-0.2l0 -0.07c0,-0.09 0.02,-0.15 0.11,-0.15l0.09 0c0.01,0 0.02,0.01 0.02,0.02 -0,0.01 -0.01,0.02 -0.02,0.02l-0.09 -0c-0.05,-0 -0.07,0.05 -0.07,0.11l0 0.06c0,0.12 0,0.24 -0.13,0.24l-0.08 -0c-0,-0 -0,-0 -0.01,-0 -0.01,0 -0.01,0 -0.02,0l-0.3 0 0 0.16c0.02,0 0.04,0 0.06,0 0.03,0 0.05,0.01 0.07,0.01l0 0c0.02,0.01 0.04,0.01 0.06,0.02 0.02,0.01 0.04,0.02 0.06,0.03 0.02,0.01 0.03,0.02 0.05,0.04 0.01,0.01 0.03,0.03 0.04,0.04 0,0 0,0.01 0,0.01l0.01 -0c0.02,0 0.04,0.01 0.06,0.02 0.01,0.01 0.02,0.04 0.02,0.06 0,0.02 -0.01,0.04 -0.02,0.06 -0.01,0.01 -0.04,0.02 -0.06,0.02 -0.02,0 -0.04,-0.01 -0.06,-0.02l-0 -0c-0.01,-0.01 -0.02,-0.03 -0.02,-0.06 0,-0.02 0.01,-0.04 0.02,-0.06 0.01,-0.01 0.01,-0.01 0.02,-0.01l-0 -0c-0.01,-0.01 -0.02,-0.03 -0.03,-0.04 -0.01,-0.01 -0.03,-0.02 -0.04,-0.03 -0.02,-0.01 -0.03,-0.02 -0.05,-0.03 -0.02,-0.01 -0.04,-0.02 -0.06,-0.02l-0 -0c-0.02,-0.01 -0.04,-0.01 -0.07,-0.01 -0.02,-0 -0.03,-0 -0.05,-0l0 0.13c0.01,0 0.03,0.01 0.04,0.02 0.01,0.01 0.02,0.04 0.02,0.06 0,0.02 -0.01,0.04 -0.02,0.06 -0.01,0.01 -0.04,0.02 -0.06,0.02 -0.02,0 -0.04,-0.01 -0.06,-0.02 -0.01,-0.01 -0.02,-0.04 -0.02,-0.06 0,-0.02 0.01,-0.04 0.02,-0.06 0.01,-0.01 0.02,-0.02 0.04,-0.02l0 -0.13c-0.02,0 -0.03,0 -0.05,0 -0.02,0 -0.05,0.01 -0.07,0.01 -0.02,0.01 -0.04,0.01 -0.06,0.02 -0.02,0.01 -0.04,0.02 -0.05,0.03 -0.02,0.01 -0.03,0.02 -0.04,0.03 -0.01,0.01 -0.02,0.02 -0.03,0.04l-0 0c0.01,0 0.01,0.01 0.02,0.01 0.01,0.01 0.02,0.04 0.02,0.06 0,0.02 -0.01,0.04 -0.02,0.06 -0.01,0.01 -0.04,0.02 -0.06,0.02 -0.02,0 -0.04,-0.01 -0.06,-0.02l-0 -0c-0.01,-0.01 -0.02,-0.03 -0.02,-0.06 0,-0.02 0.01,-0.04 0.02,-0.06 0.01,-0.01 0.04,-0.02 0.06,-0.02l0.01 0c-0,-0 -0,-0.01 0,-0.01 0.01,-0.02 0.02,-0.03 0.04,-0.04 0.01,-0.01 0.03,-0.03 0.05,-0.04 0.02,-0.01 0.04,-0.02 0.06,-0.03 0.02,-0.01 0.04,-0.02 0.06,-0.02 0.02,-0.01 0.05,-0.01 0.07,-0.01 0.02,-0 0.04,-0 0.06,-0l0 -0.16 -0.3 0c-0.01,0 -0.01,-0 -0.02,-0 -0,0 -0,0 -0.01,0l-0.08 0c-0.13,0 -0.13,-0.12 -0.13,-0.24l-0 -0.07c-0,-0.06 -0.01,-0.12 -0.07,-0.11l-0.09 0c-0.01,0 -0.02,-0.01 -0.02,-0.02 -0,-0.01 0.01,-0.02 0.02,-0.02l0.09 -0c0.09,-0 0.1,0.07 0.11,0.15l0 0.07c-0,0.1 -0,0.2 0.09,0.2l0.03 -0c-0.01,-0.01 -0.01,-0.03 -0.01,-0.04l0 -0.04c0,-0.02 0.01,-0.04 0.02,-0.06 0.01,-0.01 0.04,-0.02 0.06,-0.02l0.3 0 0 -0.04zm0.41 0.62c-0.01,-0.01 -0.02,-0.01 -0.03,-0.01 -0.01,0 -0.02,0 -0.03,0.01 -0.01,0.01 -0.01,0.02 -0.01,0.03 0,0.01 0,0.02 0.01,0.03l0 0c0.01,0.01 0.02,0.01 0.03,0.01 0.01,0 0.02,-0 0.03,-0.01 0.01,-0.01 0.01,-0.02 0.01,-0.03 0,-0.01 -0,-0.02 -0.01,-0.03zm-0.36 0c-0.01,-0.01 -0.02,-0.01 -0.03,-0.01 -0.01,0 -0.02,0 -0.03,0.01 -0.01,0.01 -0.01,0.02 -0.01,0.03 0,0.01 0,0.02 0.01,0.03 0.01,0.01 0.02,0.01 0.03,0.01 0.01,0 0.02,-0 0.03,-0.01 0.01,-0.01 0.01,-0.02 0.01,-0.03 0,-0.01 -0,-0.02 -0.01,-0.03zm-0.36 0c-0.01,-0.01 -0.02,-0.01 -0.03,-0.01 -0.01,0 -0.02,0 -0.03,0.01 -0.01,0.01 -0.01,0.02 -0.01,0.03 0,0.01 0,0.02 0.01,0.03l0 0c0.01,0.01 0.02,0.01 0.03,0.01 0.01,0 0.02,-0 0.03,-0.01 0.01,-0.01 0.01,-0.02 0.01,-0.03 0,-0.01 -0,-0.02 -0.01,-0.03zm0.65 -0.54l-0.32 0 -0 0 -0 0 -0.32 0c-0.01,0 -0.02,0 -0.03,0.01 -0.01,0.01 -0.01,0.02 -0.01,0.03l0 0.04c0,0.01 0,0.02 0.01,0.03 0.01,0.01 0.02,0.01 0.03,0.01l0.32 0 0 0 0 0 0.32 0c0.01,0 0.02,-0 0.03,-0.01 0.01,-0.01 0.01,-0.02 0.01,-0.03l0 -0.04c0,-0.01 -0,-0.02 -0.01,-0.03l-0 -0c-0.01,-0.01 -0.02,-0.01 -0.03,-0.01z"/>
 </g>
</svg>
