<?xml version="1.0" encoding="UTF-8"?>
<!DOCTYPE svg PUBLIC "-//W3C//DTD SVG 1.1//EN" "http://www.w3.org/Graphics/SVG/1.1/DTD/svg11.dtd">
<!-- Creator: CorelDRAW 2020 (64-Bit) -->
<svg xmlns="http://www.w3.org/2000/svg" xml:space="preserve" width="1.6382mm" height="1.5176mm" version="1.1" style="shape-rendering:geometricPrecision; text-rendering:geometricPrecision; image-rendering:optimizeQuality; fill-rule:evenodd; clip-rule:evenodd"
viewBox="0 0 2.07 1.92"
 xmlns:xlink="http://www.w3.org/1999/xlink"
 xmlns:xodm="http://www.corel.com/coreldraw/odm/2003">
 <defs>
  <style type="text/css">
   <![CDATA[
    .fil0 {fill:#898989;fill-rule:nonzero}
   ]]>
  </style>
 </defs>
 <g id="Layer_x0020_1">
  <metadata id="CorelCorpID_0Corel-Layer"/>
  <path class="fil0" d="M0.08 0l1.92 0c0.02,0 0.04,0.01 0.05,0.02l0 0c0.01,0.01 0.02,0.03 0.02,0.05l0 1.63c0,0.02 -0.01,0.04 -0.02,0.05 -0.01,0.01 -0.03,0.02 -0.05,0.02l0 0.09c0,0 -0,0.01 -0,0.01 0,0 0,0.01 0,0.01 0,0.02 -0.01,0.03 -0.03,0.03l-1.87 0c-0.02,0 -0.03,-0.01 -0.03,-0.03 0,-0 0,-0.01 0,-0.01 -0,-0 -0,-0.01 -0,-0.01l0 -0.09c-0.02,-0 -0.04,-0.01 -0.05,-0.02 -0.01,-0.01 -0.02,-0.03 -0.02,-0.05l0 -1.63c0,-0.02 0.01,-0.04 0.02,-0.05 0.01,-0.01 0.03,-0.02 0.05,-0.02zm1.49 0.99c0,0.02 -0.01,0.03 -0.03,0.03 -0.02,0 -0.03,-0.01 -0.03,-0.03l0 -0.2c0,-0.02 0.01,-0.03 0.03,-0.03 0.02,0 0.03,0.01 0.03,0.03l0 0.2zm-0.71 0c0,0.02 -0.01,0.03 -0.03,0.03 -0.02,0 -0.03,-0.01 -0.03,-0.03l0 -0.2c0,-0.02 0.01,-0.03 0.03,-0.03 0.02,0 0.03,0.01 0.03,0.03l0 0.2zm-0.29 0c0,0.02 -0.01,0.03 -0.03,0.03 -0.02,0 -0.03,-0.01 -0.03,-0.03l0 -0.2c0,-0.02 0.01,-0.03 0.03,-0.03 0.02,0 0.03,0.01 0.03,0.03l0 0.2zm1.38 0.79l-1.81 0 0 0.08 1.81 0 0 -0.08zm-0.58 -0.06l0 -1.67 -0.65 0 0 1.67 0.65 0zm0.06 -1.67l0 1.67 0.58 0c0,0 0.01,-0 0.01,-0.01 0,-0 0.01,-0.01 0.01,-0.01l0 -1.63c0,-0 -0,-0.01 -0,-0.01l-0 -0c-0,-0 -0.01,-0.01 -0.01,-0.01l-0.58 0zm-0.77 1.67l0 -1.67 -0.58 0c-0.01,0 -0.01,0 -0.01,0.01 -0,0 -0.01,0.01 -0.01,0.01l0 1.63c0,0.01 0,0.01 0.01,0.01 0,0 0.01,0.01 0.01,0.01l0.58 0z"/>
 </g>
</svg>
