<?xml version="1.0" encoding="UTF-8"?>
<!DOCTYPE svg PUBLIC "-//W3C//DTD SVG 1.1//EN" "http://www.w3.org/Graphics/SVG/1.1/DTD/svg11.dtd">
<!-- Creator: CorelDRAW 2020 (64-Bit) -->
<svg xmlns="http://www.w3.org/2000/svg" xml:space="preserve" width="1.4366mm" height="1.0702mm" version="1.1" style="shape-rendering:geometricPrecision; text-rendering:geometricPrecision; image-rendering:optimizeQuality; fill-rule:evenodd; clip-rule:evenodd"
viewBox="0 0 1.6 1.19"
 xmlns:xlink="http://www.w3.org/1999/xlink"
 xmlns:xodm="http://www.corel.com/coreldraw/odm/2003">
 <defs>
  <style type="text/css">
   <![CDATA[
    .fil0 {fill:#898989;fill-rule:nonzero}
   ]]>
  </style>
 </defs>
 <g id="Layer_x0020_1">
  <metadata id="CorelCorpID_0Corel-Layer"/>
  <g id="_5960757760">
   <path class="fil0" d="M0.06 0.71l0.3 0 0 0.13 -0.3 0 0 -0.13zm0.33 -0.06l-0.33 0 0 -0.62c0,-0.02 -0.01,-0.03 -0.03,-0.03 -0.02,0 -0.03,0.01 -0.03,0.03 0,0.05 0,1.11 0,1.13 0,0.02 0.01,0.03 0.03,0.03 0.02,0 0.03,-0.01 0.03,-0.03l0 -0.26 0.3 0 0 0.26c0,0.02 0.01,0.03 0.03,0.03 0.02,0 0.03,-0.01 0.03,-0.03 0,-0.03 0,-0.45 0,-0.48 -0,-0.02 -0.02,-0.03 -0.03,-0.03z"/>
   <path class="fil0" d="M1.24 0.84l0 -0.13 0.3 0 0 0.13 -0.3 0zm0.33 -0.84c-0.02,0 -0.03,0.01 -0.03,0.03l0 0.62 -0.33 0c-0.02,0 -0.03,0.01 -0.03,0.03 0,0.03 0,0.45 0,0.48 0,0.02 0.01,0.03 0.03,0.03 0.02,0 0.03,-0.01 0.03,-0.03l0 -0.26 0.3 0 0 0.26c0,0.02 0.01,0.03 0.03,0.03 0.02,0 0.03,-0.01 0.03,-0.03 0,-0.05 0,-1.08 0,-1.13 -0,-0.02 -0.02,-0.03 -0.03,-0.03z"/>
   <path class="fil0" d="M1.23 0.49c0.02,0 0.03,-0.01 0.03,-0.03 0,-0.02 -0.01,-0.03 -0.03,-0.03l-0.86 0c-0.02,0 -0.03,0.01 -0.03,0.03 0,0.02 0.01,0.03 0.03,0.03l0.12 0 0 0.67c0,0.02 0.01,0.03 0.03,0.03 0.02,0 0.03,-0.01 0.03,-0.03l0 -0.67 0.52 0 0 0.67c0,0.02 0.01,0.03 0.03,0.03 0.02,0 0.03,-0.01 0.03,-0.03l0 -0.67 0.11 0z"/>
  </g>
 </g>
</svg>
