<svg xmlns="http://www.w3.org/2000/svg" width="7.729" height="7.512" viewBox="0 0 9.85 9.57" shape-rendering="geometricPrecision" text-rendering="geometricPrecision" image-rendering="optimizeQuality" fill-rule="evenodd" clip-rule="evenodd"><path d="M4.9.32l4.47 4.47c.14.14.21.32.21.5s-.07.37-.21.5L5.8 9.36c-.14.14-.32.21-.5.21s-.37-.07-.5-.21L.33 4.89a1.7 1.7 0 01-.22-.33C.05 4.44 0 4.31 0 4.22V1.4C0 1.22.27.87.57.57c.3-.3.66-.57.84-.57h2.82c.09 0 .22.04.34.1.13.06.26.15.33.22zm4.17 4.77L4.6.62a.933.933 0 00-.22-.14C4.31.45 4.25.42 4.23.42H1.41c-.06 0-.3.21-.54.45-.23.24-.44.47-.44.53v2.82c0 .03.03.09.06.15.04.09.1.18.14.21L5.1 9.05c.05.05.13.08.2.08s.15-.03.2-.08l3.57-3.57c.05-.05.08-.13.08-.2s-.03-.15-.08-.2zM1.61 1.6c.21-.21.48-.31.76-.31a1.058 1.058 0 011.07 1.07c0 .27-.11.55-.31.76-.21.21-.48.31-.76.31A1.058 1.058 0 011.3 2.36c0-.27.11-.55.31-.76zm.76.11c-.16 0-.33.06-.45.19a.63.63 0 000 .9c.13.13.29.19.46.19.16 0 .33-.06.45-.19a.63.63 0 000-.9.63.63 0 00-.45-.19zM4.1 6.6c-.08.08-.22.08-.3 0a.217.217 0 010-.3c3.63-3.63 3.94-3.33.3.3zm.84.84c-.08.08-.22.08-.3 0a.217.217 0 010-.3c3.63-3.63 3.94-3.33.3.3zm2.71-3.97a.216.216 0 01-.25-.18c-.02-.12.06-.23.18-.25.58-.1 1.07-.25 1.41-.44.28-.16.44-.33.44-.49 0-.25-.33-.49-.87-.69-.6-.22-1.44-.35-2.37-.35-.93 0-1.77.14-2.37.35-.54.2-.87.44-.87.69 0 .04.01.07.02.11.02.04.05.09.09.13.08.09.07.22-.02.3-.09.08-.22.07-.3-.02-.07-.08-.12-.16-.16-.24a.671.671 0 01-.06-.28c0-.45.44-.83 1.15-1.09C4.32.78 5.21.64 6.19.64s1.87.15 2.52.38c.71.26 1.15.64 1.15 1.09 0 .33-.24.63-.66.86-.38.21-.92.39-1.55.49z" fill="#1e3264" fill-rule="nonzero"/></svg>