<?xml version="1.0" encoding="UTF-8"?>
<!DOCTYPE svg PUBLIC "-//W3C//DTD SVG 1.1//EN" "http://www.w3.org/Graphics/SVG/1.1/DTD/svg11.dtd">
<!-- Creator: CorelDRAW 2020 (64-Bit) -->
<svg xmlns="http://www.w3.org/2000/svg" xml:space="preserve" width="1.7631mm" height="1.763mm" version="1.1" style="shape-rendering:geometricPrecision; text-rendering:geometricPrecision; image-rendering:optimizeQuality; fill-rule:evenodd; clip-rule:evenodd"
viewBox="0 0 2.34 2.34"
 xmlns:xlink="http://www.w3.org/1999/xlink"
 xmlns:xodm="http://www.corel.com/coreldraw/odm/2003">
 <defs>
  <style type="text/css">
   <![CDATA[
    .fil0 {fill:#FEFEFE;fill-rule:nonzero}
   ]]>
  </style>
 </defs>
 <g id="Layer_x0020_1">
  <metadata id="CorelCorpID_0Corel-Layer"/>
  <path class="fil0" d="M1.86 0.53c-0.03,0 -0.05,-0.02 -0.05,-0.05 0,-0.03 0.02,-0.05 0.05,-0.05l0.36 0 0 0 0 0 0 0 0 0 0 0c0.03,0 0.06,0.01 0.08,0.04 0.02,0.02 0.03,0.05 0.03,0.08l0 0 0 0 0 0 0 0 0 0 0 0.21 0 0 0 0 0 0 0 0 -0 0c-0,0.03 -0.01,0.06 -0.03,0.08 -0.02,0.02 -0.05,0.03 -0.08,0.04l-0 0 -0 0 -0 0 -0 0 -0 0 -0.03 0 -0.05 0.25c-0,0.03 -0.03,0.04 -0.06,0.04 -0.03,-0 -0.04,-0.03 -0.04,-0.05l0.04 -0.23 -1.84 0 0.15 0.83 0 0 0 0 0 0 0 0c0,0.02 0.02,0.04 0.03,0.06 0.02,0.01 0.04,0.02 0.06,0.02l0 0 0 0 0 0 0.56 0c0.03,0 0.05,0.02 0.05,0.05 0,0.03 -0.02,0.05 -0.05,0.05l-0.56 0 -0 0 -0 0 -0 0c-0.05,-0 -0.09,-0.02 -0.12,-0.05 -0.03,-0.03 -0.06,-0.07 -0.06,-0.11l0 -0 -0 -0 -0 -0 -0.15 -0.85 -0.03 0 -0 0 -0 0 -0 0 -0 0 -0 -0c-0.03,-0 -0.06,-0.01 -0.08,-0.04 -0.02,-0.02 -0.03,-0.05 -0.03,-0.08l-0 -0 0 -0 0 -0 0 -0 0 -0 0 -0.21 0 -0 0 -0 0 -0 0 -0 0 -0c0,-0.03 0.01,-0.06 0.03,-0.08 0.02,-0.02 0.05,-0.03 0.08,-0.04l0 -0 0 0 0 0 0 0 0 0 0.36 0c0.03,0 0.05,0.02 0.05,0.05 0,0.03 -0.02,0.05 -0.05,0.05l-0.36 0 -0 0c-0.01,0 -0.01,0 -0.02,0.01 -0,0 -0.01,0.01 -0.01,0.02l0 0 0 0.21 0 0c0,0.01 0,0.01 0.01,0.02 0,0 0.01,0.01 0.02,0.01l0 0 2.1 0 0 0c0.01,0 0.01,-0 0.02,-0.01 0,-0 0.01,-0.01 0.01,-0.02l0 -0 0 -0.21 0 -0c0,-0.01 -0,-0.01 -0.01,-0.02 -0,-0 -0.01,-0.01 -0.02,-0.01l-0 0 -0.36 0zm-0.36 1.27c-0.03,0 -0.05,-0.02 -0.05,-0.05 0,-0.03 0.02,-0.05 0.05,-0.05l0.21 0 0 -0.21c0,-0.03 0.02,-0.05 0.05,-0.05 0.03,0 0.05,0.02 0.05,0.05l0 0.21 0.21 0c0.03,0 0.05,0.02 0.05,0.05 0,0.03 -0.02,0.05 -0.05,0.05l-0.21 0 0 0.21c0,0.03 -0.02,0.05 -0.05,0.05 -0.03,0 -0.05,-0.02 -0.05,-0.05l0 -0.21 -0.21 0zm0.84 -0.05c0,0.16 -0.07,0.31 -0.17,0.42l-0 0c-0.11,0.1 -0.25,0.17 -0.41,0.17 -0.16,0 -0.31,-0.07 -0.42,-0.17 -0.11,-0.11 -0.17,-0.25 -0.17,-0.42 0,-0.16 0.07,-0.31 0.17,-0.42 0.11,-0.11 0.25,-0.17 0.42,-0.17 0.16,0 0.31,0.07 0.42,0.17 0.11,0.11 0.17,0.25 0.17,0.42zm-0.24 0.35c0.09,-0.09 0.15,-0.21 0.15,-0.35 0,-0.14 -0.06,-0.26 -0.14,-0.35 -0.09,-0.09 -0.21,-0.15 -0.35,-0.15 -0.14,0 -0.26,0.06 -0.35,0.14 -0.09,0.09 -0.15,0.21 -0.15,0.35 0,0.14 0.06,0.26 0.15,0.35 0.09,0.09 0.21,0.15 0.35,0.15 0.14,0 0.26,-0.05 0.35,-0.14l0 -0zm-0.27 -1.46c0.01,0.02 0.01,0.05 -0.01,0.07 -0.02,0.01 -0.05,0.01 -0.07,-0.01l-0.4 -0.62c-0.01,-0.02 -0.01,-0.05 0.01,-0.07 0.02,-0.01 0.05,-0.01 0.07,0.01l0.4 0.62zm-1.23 0.05c-0.01,0.02 -0.04,0.03 -0.07,0.01 -0.02,-0.01 -0.03,-0.04 -0.01,-0.07l0.4 -0.62c0.01,-0.02 0.04,-0.03 0.07,-0.01 0.02,0.01 0.03,0.04 0.01,0.07l-0.4 0.62zm0.9 -0.25c0.03,0 0.05,0.02 0.05,0.05 0,0.03 -0.02,0.05 -0.05,0.05l-0.65 0c-0.03,0 -0.05,-0.02 -0.05,-0.05 0,-0.03 0.02,-0.05 0.05,-0.05l0.65 0z"/>
 </g>
</svg>
