<?xml version="1.0" encoding="UTF-8"?>
<!DOCTYPE svg PUBLIC "-//W3C//DTD SVG 1.1//EN" "http://www.w3.org/Graphics/SVG/1.1/DTD/svg11.dtd">
<!-- Creator: CorelDRAW 2020 (64-Bit) -->
<svg xmlns="http://www.w3.org/2000/svg" xml:space="preserve" width="1.9052mm" height="1.7258mm" version="1.1" style="shape-rendering:geometricPrecision; text-rendering:geometricPrecision; image-rendering:optimizeQuality; fill-rule:evenodd; clip-rule:evenodd"
viewBox="0 0 2.91 2.63"
 xmlns:xlink="http://www.w3.org/1999/xlink"
 xmlns:xodm="http://www.corel.com/coreldraw/odm/2003">
 <defs>
  <style type="text/css">
   <![CDATA[
    .fil0 {fill:#2B2A29}
   ]]>
  </style>
 </defs>
 <g id="Layer_x0020_1">
  <metadata id="CorelCorpID_0Corel-Layer"/>
  <path class="fil0" d="M1.06 2.41c0,0.12 -0.1,0.22 -0.22,0.22 -0.12,0 -0.22,-0.1 -0.22,-0.22 0,-0.12 0.1,-0.22 0.22,-0.22 0.12,0 0.22,0.1 0.22,0.22zm1.52 0c0,0.12 -0.1,0.22 -0.22,0.22 -0.12,0 -0.22,-0.1 -0.22,-0.22 0,-0.12 0.1,-0.22 0.22,-0.22 0.12,0 0.22,0.1 0.22,0.22zm-1.77 -0.49l1.64 0c0.05,0 0.1,0.04 0.1,0.1 0,0.05 -0.04,0.1 -0.1,0.1l-1.78 0c-0.05,0 -0.06,-0.04 -0.06,-0.08 0.01,-0.08 0.02,-0.18 0.03,-0.25l-0.38 -1.59 -0.17 0c-0.05,0 -0.1,-0.04 -0.1,-0.1 0,-0.05 0.04,-0.1 0.1,-0.1l0.24 0c0.05,0 0.09,0.04 0.1,0.08l0.06 0.29 2.32 0 0.01 0c0.05,0.01 0.09,0.06 0.08,0.12l-0.35 1.3c-0.01,0.05 -0.05,0.08 -0.1,0.08l-1.63 0 -0.01 0.05zm1.56 -0.24l0.31 -1.11 -2.15 -0.01 0.28 1.12 1.55 0z"/>
 </g>
</svg>
