<?xml version="1.0" encoding="UTF-8"?>
<!DOCTYPE svg PUBLIC "-//W3C//DTD SVG 1.1//EN" "http://www.w3.org/Graphics/SVG/1.1/DTD/svg11.dtd">
<!-- Creator: CorelDRAW 2020 (64-Bit) -->
<svg xmlns="http://www.w3.org/2000/svg" xml:space="preserve" width="2.401mm" height="2.3089mm" version="1.1" style="shape-rendering:geometricPrecision; text-rendering:geometricPrecision; image-rendering:optimizeQuality; fill-rule:evenodd; clip-rule:evenodd"
viewBox="0 0 34.33 33.02"
 xmlns:xlink="http://www.w3.org/1999/xlink"
 xmlns:xodm="http://www.corel.com/coreldraw/odm/2003">
 <defs>
  <style type="text/css">
   <![CDATA[
    .fil0 {fill:#FEFEFE;fill-rule:nonzero}
   ]]>
  </style>
 </defs>
 <g id="Layer_x0020_1">
  <metadata id="CorelCorpID_0Corel-Layer"/>
  <path class="fil0" d="M14.24 26.41c-7.08,0 -12.84,-5.62 -12.84,-12.52 0,-6.9 5.76,-12.52 12.84,-12.52 7.08,0 12.83,5.62 12.83,12.52 0,6.91 -5.76,12.52 -12.83,12.52zm11.65 -4.55c1.63,-2.26 2.59,-5.01 2.59,-7.98 0,-7.66 -6.39,-13.89 -14.24,-13.89 -7.85,0 -14.24,6.23 -14.24,13.89 0,7.66 6.39,13.89 14.24,13.89 2.98,0 5.74,-0.9 8.03,-2.43 2.89,2.5 5.77,5.02 8.65,7.52 0.14,0.12 0.38,0.13 0.56,0.13 0.19,-0.01 0.33,-0.07 0.45,-0.21l2.25 -2.65c0.24,-0.28 0.21,-0.7 -0.07,-0.94l-8.21 -7.35z"/>
 </g>
</svg>
