<svg xmlns="http://www.w3.org/2000/svg" width="7.13" height="6.492" viewBox="0 0 3.09 2.81" shape-rendering="geometricPrecision" text-rendering="geometricPrecision" image-rendering="optimizeQuality" fill-rule="evenodd" clip-rule="evenodd"><path d="M.16 2.77c.16-.22.36-.4.6-.53.24-.12.51-.19.78-.19s.54.07.78.19.45.31.6.53c.03.04.09.05.13.02.04-.03.05-.09.02-.13-.17-.25-.4-.45-.67-.58-.27-.14-.56-.21-.86-.21-.3 0-.6.07-.86.21-.27.14-.49.34-.67.58-.03.04-.02.1.02.13s.1.02.13-.02zM1.56 0a.75.75 0 100 1.499.75.75 0 000-1.499zm.4.35c.11.11.17.25.17.4 0 .15-.06.3-.17.4a.56.56 0 01-.4.17c-.15 0-.3-.06-.4-.17a.56.56 0 01-.17-.4c0-.15.06-.3.17-.4a.56.56 0 01.4-.17c.15 0 .3.06.4.17z" fill="#2b2a29"/></svg>