<svg xmlns="http://www.w3.org/2000/svg" width="9.362" height="8.928" viewBox="0 0 20.31 19.37" shape-rendering="geometricPrecision" text-rendering="geometricPrecision" image-rendering="optimizeQuality" fill-rule="evenodd" clip-rule="evenodd"><defs><style>.fil0{fill:#fefefe;fill-rule:nonzero}</style></defs><g id="Layer_x0020_1"><g id="_11371921776"><path class="fil0" d="M8.17 15.15c-4.06 0-7.36-3.22-7.36-7.18C.81 4.01 4.11.79 8.17.79c4.06 0 7.36 3.22 7.36 7.18 0 3.96-3.3 7.18-7.36 7.18zm8.16-7.18C16.33 3.58 12.67 0 8.17 0S0 3.57 0 7.97c0 4.39 3.66 7.97 8.17 7.97 4.5 0 8.16-3.57 8.16-7.97z"/><path class="fil0" d="M20.18 17.17l-4.54-4.07a.428.428 0 00-.57.02c-.15.16-.14.41.02.56l4.26 3.81-.78.92-4.35-3.78a.428.428 0 00-.57.03c-.15.16-.13.41.03.55l4.66 4.05c.07.06.17.1.27.1h.03a.42.42 0 00.28-.14l1.29-1.52c.14-.16.12-.4-.04-.54z"/></g></g></svg>