<?xml version="1.0" encoding="UTF-8"?>
<!DOCTYPE svg PUBLIC "-//W3C//DTD SVG 1.1//EN" "http://www.w3.org/Graphics/SVG/1.1/DTD/svg11.dtd">
<!-- Creator: CorelDRAW 2020 (64-Bit) -->
<svg xmlns="http://www.w3.org/2000/svg" xml:space="preserve" width="1.9259mm" height="2.2585mm" version="1.1" style="shape-rendering:geometricPrecision; text-rendering:geometricPrecision; image-rendering:optimizeQuality; fill-rule:evenodd; clip-rule:evenodd"
viewBox="0 0 6.51 7.64"
 xmlns:xlink="http://www.w3.org/1999/xlink"
 xmlns:xodm="http://www.corel.com/coreldraw/odm/2003">
 <defs>
  <style type="text/css">
   <![CDATA[
    .fil0 {fill:#E31E24;fill-rule:nonzero}
   ]]>
  </style>
 </defs>
 <g id="Layer_x0020_1">
  <metadata id="CorelCorpID_0Corel-Layer"/>
  <path class="fil0" d="M5.52 7.5c-0.08,0.08 -0.22,0.07 -0.29,-0.01 -0.08,-0.08 -0.07,-0.22 0.01,-0.29 0.68,-0.64 0.91,-1.28 0.85,-1.92 -0.05,-0.52 -0.28,-1.05 -0.61,-1.58l-0.06 0.15c-0.09,0.19 -0.21,0.36 -0.37,0.49 -0.17,0.14 -0.38,0.22 -0.63,0.2 -0.14,-0.01 -0.3,-0.05 -0.46,-0.12l-0.04 -0.02c-0.66,-0.45 -0.41,-0.92 -0.12,-1.49 0.21,-0.42 0.46,-0.9 0.23,-1.43 -0.1,-0.22 -0.25,-0.41 -0.47,-0.58 -0.16,-0.12 -0.36,-0.24 -0.61,-0.35 0.07,0.51 -0.02,0.98 -0.21,1.45 -0.23,0.57 -0.62,1.11 -1.07,1.68 -0.04,0.05 -0.09,0.07 -0.15,0.08 -0.25,0.02 -0.33,-0.14 -0.43,-0.32l-0.05 -0.1c-0.46,0.62 -0.66,1.24 -0.6,1.86 0.06,0.69 0.43,1.39 1.09,2.09 0.08,0.08 0.08,0.22 -0.01,0.29 -0.08,0.08 -0.22,0.08 -0.29,-0.01 -0.73,-0.77 -1.14,-1.55 -1.21,-2.34 -0.07,-0.78 0.2,-1.56 0.82,-2.32 0.05,-0.06 0.14,-0.09 0.23,-0.07 0.23,0.08 0.32,0.25 0.4,0.4l0 0.01c0.38,-0.48 0.69,-0.95 0.89,-1.42 0.21,-0.5 0.27,-1.02 0.12,-1.58 -0.01,-0.04 -0.01,-0.09 0.01,-0.13 0.04,-0.11 0.16,-0.16 0.27,-0.12 0.45,0.17 0.8,0.35 1.07,0.55 0.28,0.21 0.47,0.45 0.6,0.74 0.31,0.71 0.01,1.29 -0.24,1.79 -0.2,0.39 -0.36,0.71 -0.02,0.95 0.11,0.05 0.21,0.07 0.29,0.08 0.14,0.01 0.26,-0.04 0.35,-0.11 0.11,-0.08 0.19,-0.21 0.25,-0.34 0.08,-0.17 0.12,-0.35 0.13,-0.5 0,-0.06 0.03,-0.13 0.09,-0.17 0.09,-0.07 0.22,-0.04 0.29,0.05 0.51,0.72 0.89,1.45 0.96,2.19 0.07,0.76 -0.2,1.51 -0.99,2.26zm-2.75 -1.45c-0.11,0 -0.21,-0.02 -0.3,-0.07 -0.09,-0.05 -0.16,-0.11 -0.21,-0.2 -0.05,-0.08 -0.08,-0.17 -0.08,-0.27 0,-0.1 0.03,-0.19 0.08,-0.27 0.05,-0.08 0.12,-0.15 0.21,-0.2 0.09,-0.05 0.19,-0.07 0.3,-0.07 0.11,0 0.21,0.02 0.3,0.07 0.09,0.05 0.16,0.11 0.21,0.2 0.05,0.08 0.08,0.17 0.08,0.27 0,0.1 -0.03,0.19 -0.08,0.27 -0.05,0.08 -0.12,0.15 -0.21,0.2 -0.09,0.05 -0.19,0.07 -0.3,0.07zm0 -0.24c0.05,0 0.09,-0.01 0.13,-0.04 0.04,-0.03 0.07,-0.07 0.09,-0.11 0.02,-0.05 0.03,-0.09 0.03,-0.15 0,-0.06 -0.01,-0.11 -0.04,-0.15 -0.02,-0.05 -0.05,-0.08 -0.09,-0.11 -0.04,-0.03 -0.08,-0.04 -0.13,-0.04 -0.05,0 -0.09,0.01 -0.13,0.04 -0.04,0.03 -0.07,0.06 -0.09,0.11 -0.02,0.05 -0.03,0.1 -0.03,0.15 0,0.05 0.01,0.11 0.04,0.15 0.02,0.05 0.05,0.08 0.09,0.11 0.04,0.03 0.08,0.04 0.13,0.04zm1.38 1.73c-0.11,0 -0.21,-0.02 -0.3,-0.07 -0.09,-0.05 -0.16,-0.11 -0.21,-0.2 -0.05,-0.08 -0.08,-0.17 -0.08,-0.27 0,-0.1 0.03,-0.19 0.08,-0.28 0.05,-0.08 0.12,-0.15 0.21,-0.2 0.09,-0.05 0.19,-0.07 0.3,-0.07 0.11,0 0.21,0.02 0.3,0.07 0.09,0.05 0.16,0.11 0.21,0.2 0.05,0.08 0.08,0.17 0.08,0.27 0,0.1 -0.03,0.19 -0.08,0.27 -0.05,0.08 -0.12,0.15 -0.21,0.2 -0.09,0.05 -0.19,0.07 -0.3,0.07zm0 -0.24c0.05,0 0.09,-0.01 0.13,-0.04 0.04,-0.03 0.07,-0.07 0.09,-0.11 0.02,-0.05 0.03,-0.09 0.03,-0.15 0,-0.06 -0.01,-0.11 -0.03,-0.15 -0.02,-0.05 -0.05,-0.08 -0.09,-0.11 -0.04,-0.03 -0.08,-0.04 -0.13,-0.04 -0.05,0 -0.09,0.01 -0.13,0.04 -0.04,0.03 -0.07,0.06 -0.09,0.11 -0.02,0.05 -0.03,0.1 -0.03,0.15 0,0.06 0.01,0.11 0.04,0.15 0.02,0.05 0.05,0.08 0.09,0.11 0.04,0.03 0.08,0.04 0.13,0.04zm-1.77 0.04l1.01 -1.16 0.93 -1.21 0.22 0.19 -0.98 1.14 -0.96 1.22 -0.21 -0.19z"/>
 </g>
</svg>
