<?xml version="1.0" encoding="UTF-8"?>
<!DOCTYPE svg PUBLIC "-//W3C//DTD SVG 1.1//EN" "http://www.w3.org/Graphics/SVG/1.1/DTD/svg11.dtd">
<!-- Creator: CorelDRAW 2020 (64-Bit) -->
<svg xmlns="http://www.w3.org/2000/svg" xml:space="preserve" width="1.0311mm" height="0.9792mm" version="1.1" style="shape-rendering:geometricPrecision; text-rendering:geometricPrecision; image-rendering:optimizeQuality; fill-rule:evenodd; clip-rule:evenodd"
viewBox="0 0 0.8 0.76"
 xmlns:xlink="http://www.w3.org/1999/xlink"
 xmlns:xodm="http://www.corel.com/coreldraw/odm/2003">
 <defs>
  <style type="text/css">
   <![CDATA[
    .fil0 {fill:#E31E24;fill-rule:nonzero}
   ]]>
  </style>
 </defs>
 <g id="Layer_x0020_1">
  <metadata id="CorelCorpID_0Corel-Layer"/>
  <path class="fil0" d="M0.78 0l0.02 0.03c-0.08,0.06 -0.17,0.16 -0.27,0.29 -0.1,0.13 -0.18,0.25 -0.23,0.36l-0.04 0.03c-0.04,0.02 -0.06,0.04 -0.07,0.05 -0.01,-0.02 -0.02,-0.05 -0.03,-0.09l-0.02 -0.04c-0.02,-0.05 -0.04,-0.09 -0.06,-0.12 -0.02,-0.03 -0.04,-0.04 -0.07,-0.05 0.04,-0.04 0.08,-0.07 0.11,-0.07 0.03,0 0.06,0.04 0.1,0.12l0.02 0.04c0.06,-0.11 0.15,-0.22 0.25,-0.32 0.1,-0.1 0.2,-0.18 0.3,-0.24z"/>
 </g>
</svg>
