<?xml version="1.0" encoding="UTF-8"?>
<!DOCTYPE svg PUBLIC "-//W3C//DTD SVG 1.1//EN" "http://www.w3.org/Graphics/SVG/1.1/DTD/svg11.dtd">
<!-- Creator: CorelDRAW 2020 (64-Bit) -->
<svg xmlns="http://www.w3.org/2000/svg" xml:space="preserve" width="1.2412mm" height="1.2412mm" version="1.1" style="shape-rendering:geometricPrecision; text-rendering:geometricPrecision; image-rendering:optimizeQuality; fill-rule:evenodd; clip-rule:evenodd"
viewBox="0 0 3.53 3.53"
 xmlns:xlink="http://www.w3.org/1999/xlink"
 xmlns:xodm="http://www.corel.com/coreldraw/odm/2003">
 <defs>
  <style type="text/css">
   <![CDATA[
    .fil1 {fill:#2B2A29}
    .fil0 {fill:#1E3264;fill-rule:nonzero}
   ]]>
  </style>
 </defs>
 <g id="Layer_x0020_1">
  <metadata id="CorelCorpID_0Corel-Layer"/>
  <path class="fil0" d="M0.52 0.52c-0.69,0.69 -0.69,1.81 0,2.5 0.69,0.69 1.81,0.69 2.5,0 0.69,-0.69 0.69,-1.81 0,-2.5 -0.69,-0.69 -1.81,-0.69 -2.5,0zm2.41 2.41l0 0c-0.64,0.64 -1.68,0.64 -2.32,0 -0.64,-0.64 -0.64,-1.68 0,-2.32 0.64,-0.64 1.68,-0.64 2.32,0 0.64,0.64 0.64,1.68 0,2.32z"/>
  <polygon class="fil1" points="2.19,1.06 1.77,1.48 1.35,1.06 1.06,1.35 1.48,1.77 1.06,2.19 1.35,2.47 1.77,2.05 2.19,2.47 2.47,2.19 2.05,1.77 2.47,1.35 "/>
 </g>
</svg>
