<?xml version="1.0" encoding="UTF-8"?>
<!DOCTYPE svg PUBLIC "-//W3C//DTD SVG 1.1//EN" "http://www.w3.org/Graphics/SVG/1.1/DTD/svg11.dtd">
<!-- Creator: CorelDRAW 2020 (64-Bit) -->
<svg xmlns="http://www.w3.org/2000/svg" xml:space="preserve" width="2.2143mm" height="1.6426mm" version="1.1" style="shape-rendering:geometricPrecision; text-rendering:geometricPrecision; image-rendering:optimizeQuality; fill-rule:evenodd; clip-rule:evenodd"
viewBox="0 0 3.61 2.68"
 xmlns:xlink="http://www.w3.org/1999/xlink"
 xmlns:xodm="http://www.corel.com/coreldraw/odm/2003">
 <defs>
  <style type="text/css">
   <![CDATA[
    .fil1 {fill:#E31E24;fill-rule:nonzero}
    .fil0 {fill:#28459C;fill-rule:nonzero}
   ]]>
  </style>
 </defs>
 <g id="Layer_x0020_1">
  <metadata id="CorelCorpID_0Corel-Layer"/>
  <g id="_11294896720">
   <path class="fil0" d="M1.91 2.39l0 -1.79c0.04,-0.02 0.08,-0.06 0.1,-0.1l0.92 0 0.03 -0.06c0.01,-0.01 0.02,-0.02 0.03,-0.02 0.01,0 0.03,0.01 0.03,0.02l0.03 0.06 0.05 0c0.06,0 0.1,-0.05 0.1,-0.1 0,-0.06 -0.05,-0.1 -0.1,-0.1l-1.09 0c-0.02,-0.04 -0.06,-0.08 -0.1,-0.1l0 -0.1c0,-0.06 -0.05,-0.1 -0.1,-0.1 -0.06,0 -0.1,0.05 -0.1,0.1l0 0.1c-0.04,0.02 -0.08,0.06 -0.1,0.1l-1.09 0c-0.06,0 -0.1,0.05 -0.1,0.1 0,0.06 0.05,0.1 0.1,0.1l0.05 0 0.03 -0.06c0.01,-0.01 0.02,-0.02 0.03,-0.02 0.01,0 0.03,0.01 0.03,0.02l0.03 0.06 0.92 0c0.02,0.04 0.06,0.08 0.1,0.1l0 1.79 0.2 0z"/>
   <path class="fil1" d="M0.66 0.45c-0.01,-0.01 -0.02,-0.02 -0.03,-0.02 -0.01,0 -0.03,0.01 -0.03,0.02l-0.03 0.05 -0.52 1.02c-0,0.01 -0,0.01 -0,0.02l-0.05 0c0,0.35 0.28,0.63 0.63,0.63 0.35,0 0.63,-0.28 0.63,-0.63l-0.05 0c0,-0.01 -0,-0.01 -0,-0.02l-0.52 -1.02 -0.03 -0.05zm1.75 1.09l-0.05 0c0,0.35 0.28,0.63 0.63,0.63 0.35,0 0.63,-0.28 0.63,-0.63l-0.05 0c0,-0.01 -0,-0.01 -0,-0.02l-0.52 -1.02 -0.03 -0.05c-0.01,-0.01 -0.02,-0.02 -0.03,-0.02 -0.01,0 -0.03,0.01 -0.03,0.02l-0.03 0.05 -0.52 1.02c-0,0.01 -0,0.01 -0,0.02zm1.09 0l-1.01 0 0.51 -1 0.51 1zm-3.37 0l0.51 -1 0.51 1 -1.01 0z"/>
   <polygon class="fil0" points="1.91,2.39 1.17,2.39 1.17,2.53 0.84,2.53 0.84,2.68 2.77,2.68 2.77,2.53 2.44,2.53 2.44,2.39 "/>
  </g>
 </g>
</svg>
