<?xml version="1.0" encoding="UTF-8"?>
<!DOCTYPE svg PUBLIC "-//W3C//DTD SVG 1.1//EN" "http://www.w3.org/Graphics/SVG/1.1/DTD/svg11.dtd">
<!-- Creator: CorelDRAW 2020 (64-Bit) -->
<svg xmlns="http://www.w3.org/2000/svg" xml:space="preserve" width="1.905mm" height="1.4728mm" version="1.1" style="shape-rendering:geometricPrecision; text-rendering:geometricPrecision; image-rendering:optimizeQuality; fill-rule:evenodd; clip-rule:evenodd"
viewBox="0 0 22.04 17.04"
 xmlns:xlink="http://www.w3.org/1999/xlink"
 xmlns:xodm="http://www.corel.com/coreldraw/odm/2003">
 <defs>
  <style type="text/css">
   <![CDATA[
    .fil0 {fill:#B2B3B3;fill-rule:nonzero}
   ]]>
  </style>
 </defs>
 <g id="Layer_x0020_1">
  <metadata id="CorelCorpID_0Corel-Layer"/>
  <g id="_2017368384">
   <path class="fil0" d="M18.63 6.18c1.53,0 2.77,-1.24 2.77,-2.77 0,-1.53 -1.25,-2.77 -2.77,-2.77 -1.53,0 -2.77,1.24 -2.77,2.77 0,1.53 1.24,2.77 2.77,2.77zm3.41 -2.77c0,2.48 -2.89,5.39 -3.01,5.52 -0.11,0.11 -0.25,0.16 -0.4,0.16 -0.15,0 -0.3,-0.06 -0.4,-0.16 -0.12,-0.13 -3.01,-3.04 -3.01,-5.52 0,-1.88 1.52,-3.41 3.41,-3.41 1.88,0 3.41,1.53 3.41,3.41z"/>
   <path class="fil0" d="M19.9 2.46c0,0.06 -0.05,0.11 -0.11,0.11l-0.45 0c-0.06,0 -0.11,-0.05 -0.11,-0.11l0 -0.74c0,-0.06 0.04,-0.11 0.11,-0.11l0.45 0c0.06,0 0.11,0.05 0.11,0.11l0 0.74zm0.34 0.18l-1.53 -1.09c-0.03,-0.02 -0.08,-0.04 -0.13,-0.04 -0.03,0 -0.08,0.02 -0.12,0.04l-1.52 1.09c-0.06,0.04 -0.09,0.11 -0.09,0.18l0 1.63c0,0.3 0.24,0.54 0.54,0.54l0.61 0 0 -1.09c0,-0.12 0.1,-0.22 0.22,-0.22l0.73 0c0.12,0 0.22,0.1 0.22,0.22l0 1.09 0.6 0c0.3,0 0.55,-0.24 0.55,-0.54l0 -1.63c0,-0.07 -0.03,-0.14 -0.09,-0.18z"/>
   <path class="fil0" d="M6.67 5.53c-0.1,-0.14 -0.22,-0.33 -0.4,-0.33l-1.11 0 0.35 1.79 1.71 0c0.17,0 0.31,-0.16 0.31,-0.36l-0.85 -1.1zm-3.31 0c0.09,-0.14 0.22,-0.33 0.39,-0.33l1.12 0 -0.34 1.79 -1.71 0c-0.17,0 -0.31,-0.16 -0.31,-0.36l0.86 -1.1zm3.71 3.65c0,-0.15 -0.11,-0.28 -0.25,-0.28l-0.49 0c-0.14,0 -0.24,0.13 -0.24,0.28l0 0.28c0,0.15 0.11,0.28 0.24,0.28l0.49 0c0.14,0 0.25,-0.13 0.25,-0.28l0 -0.28zm0.45 0.68c0,0.2 -0.14,0.36 -0.31,0.36l-4.39 0c-0.17,0 -0.31,-0.16 -0.31,-0.36l0 -2.15c0,-0.2 0.14,-0.36 0.31,-0.36l4.39 0c0.17,0 0.31,0.16 0.31,0.36l0 2.15z"/>
   <path class="fil0" d="M5.02 12.12c2.25,0 4.08,-1.83 4.08,-4.07 0,-2.26 -1.82,-4.08 -4.08,-4.08 -2.25,0 -4.08,1.82 -4.08,4.08 0,2.24 1.82,4.07 4.08,4.07zm5.02 -4.07c0,3.64 -4.24,7.94 -4.43,8.12 -0.16,0.16 -0.37,0.25 -0.59,0.25 -0.21,0 -0.43,-0.08 -0.59,-0.25 -0.18,-0.18 -4.43,-4.47 -4.43,-8.12 0,-2.77 2.25,-5.02 5.02,-5.02 2.76,0 5.02,2.25 5.02,5.02z"/>
   <path class="fil0" d="M16.12 11.25l0.44 0.29c0.14,0.1 0.38,0.12 0.55,0.13 0.12,0.01 0.24,0.02 0.36,0 0.09,-0.01 0.19,-0.02 0.26,-0.06l0.27 -0.17 1.47 -1.22c0.07,-0.07 0.07,-0.14 0.01,-0.21l0 0c-0.06,-0.06 -0.18,-0.11 -0.34,-0.12l-3.94 -0.06c-0.36,-0.01 -0.6,0.04 -0.78,0.13 -0.06,0.03 -0.22,0.19 -0.06,0.27l0.37 0.2 -4.06 0.47c-0.26,0.62 -0.58,1.26 -1,1.93l2.58 1.27 1.26 0.62 -5.64 0.63c-0.63,0.75 -1.12,1.25 -1.2,1.33 -0.12,0.12 -0.25,0.2 -0.38,0.28l0.19 0.1 9.6 -1.06 1.86 -0.21 0.12 -0.01 0.02 0c0.02,0 0.04,-0 0.06,-0.01 0.12,-0.02 0.22,-0.11 0.24,-0.22 0.02,-0.11 -0.04,-0.22 -0.15,-0.28l-0.06 -0.02 -0.21 -0.1 -0.4 -0.2 -0.81 -0.41 -3.28 -1.61 -1.81 -0.89 -0.42 -0.22 4.88 -0.56 0.01 0z"/>
  </g>
 </g>
</svg>
