<?xml version="1.0" encoding="UTF-8"?>
<!DOCTYPE svg PUBLIC "-//W3C//DTD SVG 1.1//EN" "http://www.w3.org/Graphics/SVG/1.1/DTD/svg11.dtd">
<!-- Creator: CorelDRAW 2020 (64-Bit) -->
<svg xmlns="http://www.w3.org/2000/svg" xml:space="preserve" width="1.6199mm" height="1.5215mm" version="1.1" style="shape-rendering:geometricPrecision; text-rendering:geometricPrecision; image-rendering:optimizeQuality; fill-rule:evenodd; clip-rule:evenodd"
viewBox="0 0 2.16 2.03"
 xmlns:xlink="http://www.w3.org/1999/xlink"
 xmlns:xodm="http://www.corel.com/coreldraw/odm/2003">
 <defs>
  <style type="text/css">
   <![CDATA[
    .str0 {stroke:#1E3264;stroke-width:0.17;stroke-miterlimit:22.9256}
    .fil0 {fill:none;fill-rule:nonzero}
   ]]>
  </style>
 </defs>
 <g id="Layer_x0020_1">
  <metadata id="CorelCorpID_0Corel-Layer"/>
  <path class="fil0 str0" d="M0.2 0.12c0.05,-0.03 0.11,-0.04 0.17,-0.03 0.06,0.01 0.11,0.05 0.14,0.1l0.2 0.3c0.01,-0.01 0.03,-0.03 0.05,-0.04l0.01 -0c0.05,-0.03 0.1,-0.04 0.15,-0.03 0.02,0 0.04,0.01 0.06,0.02l0.01 -0.01c0.02,-0.03 0.04,-0.05 0.07,-0.07l0.01 -0c0.05,-0.03 0.1,-0.04 0.15,-0.03 0.02,0 0.04,0.01 0.06,0.02l0 -0.01c0.02,-0.03 0.04,-0.06 0.08,-0.08l0.01 -0.01c0.05,-0.03 0.11,-0.04 0.16,-0.02 0.06,0.01 0.11,0.05 0.14,0.1 0.11,0.19 0.22,0.41 0.33,0.6 0.08,0.14 0.1,0.3 0.07,0.45 -0.03,0.13 -0.09,0.25 -0.17,0.34 -0.09,0.1 -0.2,0.17 -0.32,0.2 -0.13,0.03 -0.27,0.03 -0.41,-0.04l-0.89 -0.42c-0.05,-0.03 -0.09,-0.07 -0.11,-0.13 -0.02,-0.05 -0.02,-0.11 0.01,-0.17 0.01,-0.02 0.02,-0.03 0.03,-0.04 0.05,-0.03 0.12,-0.05 0.19,-0.05 0.06,-0.01 0.12,-0 0.16,0.01l-0.42 -0.65c-0.03,-0.05 -0.04,-0.12 -0.03,-0.17 0.01,-0.06 0.05,-0.11 0.1,-0.14l0.01 -0z"/>
 </g>
</svg>
