<?xml version="1.0" encoding="UTF-8"?>
<!DOCTYPE svg PUBLIC "-//W3C//DTD SVG 1.1//EN" "http://www.w3.org/Graphics/SVG/1.1/DTD/svg11.dtd">
<!-- Creator: CorelDRAW 2020 (64-Bit) -->
<svg xmlns="http://www.w3.org/2000/svg" xml:space="preserve" width="15.008mm" height="9.5492mm" version="1.1" style="shape-rendering:geometricPrecision; text-rendering:geometricPrecision; image-rendering:optimizeQuality; fill-rule:evenodd; clip-rule:evenodd"
viewBox="0 0 1484.93 944.82"
 xmlns:xlink="http://www.w3.org/1999/xlink"
 xmlns:xodm="http://www.corel.com/coreldraw/odm/2003">
 <defs>
  <style type="text/css">
   <![CDATA[
    .fil2 {fill:#FEFEFE}
    .fil1 {fill:#FEFEFE}
    .fil0 {fill:#9D9E9E}
   ]]>
  </style>
 </defs>
 <g id="Layer_x0020_1">
  <metadata id="CorelCorpID_0Corel-Layer"/>
  <g id="_2255131312">
   <path class="fil0" d="M1140.69 0c-160.92,0 -321.85,0 -482.77,0 -3,0 -5.78,2.65 -5.78,5.68l0 477.21c0,3.04 2.78,5.68 5.78,5.68 160.92,0 321.85,0 482.77,0 3.01,0 5.81,-2.63 5.81,-5.68l0.04 -476.68c-0.38,-2.63 -2.94,-6.21 -5.85,-6.21zm-152.7 15.62l0 311.24c0,2.82 -2.31,5.13 -5.13,5.13l-167.93 0c-2.82,0 -5.13,-2.31 -5.13,-5.13l0 -311.24c0,-2.83 2.31,-5.13 5.13,-5.13l167.93 0c2.82,0 5.13,2.3 5.13,5.13zm-319.98 -5.13l125.93 0c2.83,0 5.13,2.3 5.13,5.13 0,152.17 0,304.33 0,456.5 0,2.82 -2.3,5.13 -5.13,5.13l-125.93 0c-2.82,0 -5.13,-2.31 -5.13,-5.13l0 -456.5c0,-2.83 2.31,-5.13 5.13,-5.13zm141.8 461.63l0 -124.5c0,-2.82 2.31,-5.13 5.13,-5.13l167.93 0c2.82,0 5.13,2.31 5.13,5.13l0 124.5c0,2.82 -2.31,5.13 -5.13,5.13l-167.93 0c-2.82,0 -5.13,-2.31 -5.13,-5.13zm319.96 5.13l-125.93 0c-2.82,0 -5.13,-2.31 -5.13,-5.13 0,-152.17 0,-304.33 0,-456.5 0,-2.83 2.31,-5.13 5.13,-5.13l125.93 0c2.83,0 5.13,2.3 5.13,5.13l0 456.5c0,2.82 -2.3,5.13 -5.13,5.13zm-258.82 -374.79l31.91 -31.54c2.16,-2.14 2.15,-5.51 -0.01,-7.65 -2.2,-2.19 -5.7,-2.18 -7.91,0l-31.92 31.53c-2.17,2.15 -2.24,5.43 -0.25,7.42 2.61,2.14 5.58,2.78 8.17,0.24zm0 51.46l31.91 -31.54c2.16,-2.15 2.15,-5.52 -0.01,-7.66 -2.2,-2.19 -5.7,-2.18 -7.91,0l-31.92 31.53c-2.17,2.16 -2.24,5.44 -0.25,7.44 2.61,2.14 5.58,2.78 8.17,0.23zm-129.07 43.62c-2.98,0 -5.78,2.63 -5.78,5.66l0 52.3c0,3.03 2.8,5.65 5.78,5.65 2.99,0 5.8,-2.62 5.8,-5.65l0.03 -51.82c-0.37,-2.96 -2.52,-6.14 -5.83,-6.14zm188.92 186.76l-62.97 0c-3,0 -5.8,2.62 -5.8,5.65 0,3.03 2.8,5.66 5.8,5.66l62.97 0c3,0 5.8,-2.47 5.81,-5.18 -0.37,-2.97 -2.49,-6.12 -5.81,-6.12zm125.93 -124.81c3,0 5.78,-2.64 5.78,-5.68l0 -52.28c0,-3.03 -2.79,-5.66 -5.78,-5.66 -2.99,0 -5.78,2.63 -5.78,5.66l0 52.28c0,3.04 2.78,5.68 5.78,5.68z"/>
   <path class="fil1" d="M989.08 470.05c-1.77,-56.77 212.31,-128.3 299.24,-26.32 62.76,73.6 96.76,151.14 75.49,255.73 -10.83,53.27 -465.69,-22.02 -465.69,-39.55 0,-153.58 44.57,-34.16 90.96,-189.86z"/>
   <path class="fil2" d="M1375.88 849.38c-3.06,30.29 -28.69,53.97 -59.78,53.97l-56.16 0c-22.04,0 -41.32,-11.93 -51.78,-29.67l-100.79 0c-10.45,17.74 -29.75,29.67 -51.82,29.67l-56.18 0c-31.34,0 -57.16,-24.12 -59.85,-54.77 -22.56,-19.21 -36.89,-47.77 -36.89,-79.69 0,-5.29 -0.16,-10.6 -0.29,-15.9 -42.06,-15.29 -72.18,-55.64 -72.18,-102.94 0,-48.68 31.92,-90.02 75.93,-104.23 20.76,-122.31 127.67,-213.04 252.61,-213.04 124.89,0 232.36,91.26 252.75,213.86 42.74,14.91 73.47,55.63 73.47,103.4 0,46.99 -29.7,87.14 -71.34,102.63 0.06,5.4 0.09,10.8 0.09,16.21 0,32.35 -14.71,61.27 -37.81,80.49zm-109.54 -169.71c-0.26,-9.86 -0.37,-19.75 -0.37,-29.62 0,-43.7 25.72,-81.5 62.8,-99.03 -17.52,-78.61 -88.41,-136.24 -170.06,-136.24 -82.26,0 -153.19,57.98 -170.32,137.22 35.98,17.96 60.75,55.16 60.75,98.05 0,10.23 -0.11,20.44 -0.39,30.66 55.45,-14.9 160.12,-16.45 217.58,-1.04zm35.89 73.36c-12.95,14.11 -34.58,17.65 -50.99,7.64 -15.46,-7.45 -70.31,-9.56 -88.05,-9.74 -21.81,-0.23 -80.16,1.07 -99.53,10.92 -5.74,2.92 -12.12,4.49 -18.57,4.49 -11.8,0 -22.83,-5.09 -30.49,-13.62 -3.53,0.73 -7.21,1.02 -10.97,0.78 -7.13,-0.47 -13.75,-2.75 -19.4,-6.36 0.02,0.92 0.05,1.85 0.07,2.78 0.17,6.31 0.34,12.65 0.34,18.97 0,12.65 10.46,22.81 23.04,22.81l301.01 0c12.59,0 23.01,-10.16 23.01,-22.81 0,-7.38 -0.05,-14.75 -0.2,-22.12 -5.77,3.84 -12.6,6.26 -19.99,6.74 -3.17,0.2 -6.27,0.04 -9.28,-0.47zm-335.43 -74.31c0.26,-9.56 0.36,-19.12 0.36,-28.67 0,-15.14 -12.33,-27.5 -27.48,-27.5 -15.14,0 -27.51,12.35 -27.51,27.5 0,15.15 12.37,27.49 27.51,27.49 1.81,0 3.61,-0.17 5.39,-0.51 7.54,-1.45 14.99,-0.75 21.73,1.7zm381.54 0c6.75,-2.45 14.22,-3.16 21.77,-1.69 1.76,0.34 3.56,0.5 5.35,0.5 15.14,0 27.5,-12.35 27.5,-27.49 0,-15.14 -12.36,-27.5 -27.5,-27.5 -15.13,0 -27.5,12.36 -27.5,27.5 0,9.56 0.12,19.13 0.38,28.67z"/>
   <g>
    <g>
     <path class="fil0" d="M1317.77 868.23c13.77,0 24.97,-11.19 24.97,-24.96 0,-3.33 -0.62,-6.56 -1.92,-9.64 -1.24,-2.98 -4.69,-4.38 -7.67,-3.14 -2.98,1.24 -4.38,4.68 -3.13,7.67 0.68,1.62 0.97,3.33 0.97,5.11 0,7.3 -5.92,13.22 -13.23,13.22l-56.15 0c-7.28,0 -13.18,-5.95 -13.18,-13.22 0,-2.12 0.48,-4.13 1.44,-6.01 1.48,-2.9 0.34,-6.45 -2.54,-7.95 -2.88,-1.47 -6.44,-0.33 -7.93,2.54 -1.8,3.51 -2.72,7.47 -2.72,11.41 0,13.74 11.16,24.96 24.92,24.96l56.15 0z"/>
    </g>
    <g>
     <path class="fil0" d="M1057.23 868.23c13.75,0 24.96,-11.21 24.96,-24.96 0,-3.33 -0.64,-6.56 -1.94,-9.64 -1.24,-2.97 -4.71,-4.39 -7.68,-3.14 -2.97,1.24 -4.41,4.68 -3.16,7.67 0.68,1.62 1.03,3.32 1.03,5.11 0,7.28 -5.94,13.22 -13.22,13.22l-56.18 0c-7.28,0 -13.21,-5.94 -13.21,-13.22 0,-2.13 0.47,-4.14 1.43,-6.02 1.48,-2.9 0.38,-6.44 -2.52,-7.92 -2.91,-1.48 -6.42,-0.32 -7.92,2.57 -1.8,3.5 -2.76,7.42 -2.76,11.36 0,13.75 11.21,24.96 24.97,24.96l56.18 0z"/>
    </g>
    <g>
     <path class="fil0" d="M1046.76 731.22c0.91,0 1.84,-0.27 2.65,-0.67 26.53,-13.5 86.28,-15.04 115.79,-14.74 22.89,0.24 85.94,2.7 105.38,14.53 2.76,1.67 6.4,0.81 8.09,-1.94 1.68,-2.76 0.78,-6.42 -1.97,-8.09 -37.18,-22.7 -193.17,-20.32 -232.61,-0.22 -2.91,1.48 -4.04,4.99 -2.56,7.9 1.01,1.98 3,3.24 5.22,3.24z"/>
    </g>
    <g>
     <path class="fil0" d="M1310.35 838.56c38.47,0 69.89,-31.15 69.89,-69.67 0,-15 -0.22,-29.98 -0.89,-44.97 -0.13,-3.23 -2.88,-5.75 -6.12,-5.59 -3.24,0.16 -5.77,2.91 -5.62,6.15 0.67,14.8 0.89,29.59 0.89,44.41 0,32.03 -26.17,57.93 -58.15,57.93l-301 0c-32,0 -58.17,-25.89 -58.17,-57.93 0,-6.03 -0.18,-12.05 -0.33,-18.09 -0.23,-9.63 -0.45,-19.27 -0.48,-28.92 -0.01,-3.27 -2.65,-5.84 -5.93,-5.84 -3.23,0 -5.83,2.65 -5.82,5.87 0.03,9.73 0.23,19.46 0.48,29.21 0.15,5.92 0.33,11.85 0.33,17.77 0,38.52 31.45,69.67 69.91,69.67l301 0z"/>
    </g>
    <g>
     <path class="fil0" d="M1377.13 724.41c41.01,0 74.36,-33.34 74.36,-74.36 0,-41.01 -33.34,-74.37 -74.36,-74.37 -41.02,0 -74.37,33.35 -74.37,74.37 0,21.01 0.52,41.98 1.93,62.94 0.22,3.25 3.04,5.67 6.27,5.47 3.24,-0.22 5.66,-3.05 5.44,-6.26 -1.39,-20.7 -1.9,-41.42 -1.9,-62.15 0,-34.51 28.1,-62.62 62.62,-62.62 34.52,0 62.61,28.09 62.61,62.62 0,34.52 -28.09,62.61 -62.61,62.61 -4.05,0 -8.09,-0.39 -12.06,-1.16 -3.2,-0.61 -6.25,1.47 -6.88,4.65 -0.63,3.2 1.48,6.25 4.65,6.88 4.7,0.93 9.5,1.38 14.29,1.38z"/>
    </g>
    <g>
     <path class="fil0" d="M941.34 724.41c4.8,0 9.6,-0.45 14.31,-1.38 3.15,-0.62 5.24,-3.72 4.63,-6.88 -0.62,-3.2 -3.67,-5.26 -6.88,-4.65 -3.97,0.77 -8,1.16 -12.06,1.16 -34.52,0 -62.62,-28.07 -62.62,-62.61 0,-34.54 28.1,-62.62 62.62,-62.62 34.53,0 62.61,28.09 62.61,62.62 0,20.74 -0.48,41.45 -1.91,62.16 -0.21,3.21 2.27,6.04 5.47,6.25 3.21,0.2 6.06,-2.27 6.27,-5.47 1.42,-20.97 1.91,-41.93 1.91,-62.94 0,-41 -33.35,-74.37 -74.36,-74.37 -41,0 -74.37,33.36 -74.37,74.37 0,41.01 33.36,74.36 74.37,74.36z"/>
    </g>
    <g>
     <path class="fil0" d="M946.92 567.03c2.98,0 5.45,-2.21 5.82,-5.15 13.47,-104.02 102.81,-182.23 207.65,-182.23 103.98,0 193.2,77.52 207.36,180.58 0.44,3.17 3.46,5.48 6.64,5.03 3.21,-0.45 5.48,-3.43 5.05,-6.66 -14.95,-108.81 -109.28,-190.69 -219.05,-190.69 -110.71,0 -205.09,82.62 -219.28,192.47 -0.43,3.21 1.82,6.17 5.81,6.65z"/>
    </g>
   </g>
   <rect class="fil1" x="783.19" y="513.92" width="207.06" height="320.21"/>
   <g>
    <path class="fil2" d="M464.56 571.87l-7.2 0c-16.51,0 -29.94,-13.43 -29.94,-29.94l0 -51.05c0,-16.49 13.44,-29.94 29.94,-29.94l577.85 0c16.5,0 29.94,13.45 29.94,29.94l0 51.05c0,16.51 -13.43,29.94 -29.94,29.94l-2.54 0 0 288c0,16.49 -13.44,29.93 -29.94,29.93l-222.81 0c-16.49,0 -29.93,-13.44 -29.93,-29.93l0 -206.78 -190.74 0 0 206.78c0,16.49 -13.44,29.93 -29.93,29.93l-34.84 0c-16.51,0 -29.92,-13.42 -29.92,-29.93l0 -288zm94.69 0l0 21.35 24.92 0c-1.57,-3.63 -2.44,-7.64 -2.44,-11.83 0,-3.32 0.54,-6.53 1.55,-9.52l-24.03 0zm250.61 0l0 21.35 49.41 0c-2.24,-4.52 -3.49,-9.61 -3.49,-14.99 0,-2.18 0.21,-4.3 0.59,-6.36l-46.51 0zm113.18 0c0.39,2.06 0.59,4.19 0.59,6.36 0,5.38 -1.26,10.47 -3.49,14.99l52.66 0 0 -21.35 -49.76 0zm-173.05 0l-28.71 0c1,2.99 1.54,6.19 1.54,9.52 0,4.21 -0.87,8.2 -2.43,11.83l29.6 0 0 -21.35zm222.81 81.22l-51.89 0c1.75,4.09 2.72,8.59 2.72,13.32 0,6.33 -1.74,12.25 -4.76,17.32l53.92 0 0 -30.64zm0 90.49l-58.96 0c3.27,5.2 5.15,11.37 5.15,17.97 0,18.72 -15.22,33.94 -33.94,33.94 -18.73,0 -33.94,-15.21 -33.94,-33.94 0,-6.6 1.89,-12.76 5.16,-17.97l-46.42 0 0 86.36 162.94 0 0 -86.36zm-162.94 -59.85l50.68 0c-3.03,-5.08 -4.76,-11 -4.76,-17.32 0,-4.73 0.97,-9.23 2.72,-13.32l-48.64 0 0 30.64z"/>
   </g>
   <g>
    <g>
     <path class="fil0" d="M692.89 585.81c2.44,0 4.42,-1.98 4.42,-4.42 0,-2.44 -1.98,-4.42 -4.42,-4.42l-81.22 0c-2.43,0 -4.43,1.99 -4.43,4.42 0,2.41 2.01,4.42 4.43,4.42l81.22 0z"/>
    </g>
    <g>
     <path class="fil0" d="M893.49 761.55c0,-4.66 -3.79,-8.38 -8.43,-8.38 -4.63,0 -8.43,3.74 -8.43,8.38 0,4.65 3.78,8.43 8.43,8.43 4.64,0 8.43,-3.78 8.43,-8.43z"/>
    </g>
    <g>
     <path class="fil0" d="M898.13 666.41c0,-4.66 -3.79,-8.38 -8.43,-8.38 -4.64,0 -8.41,3.74 -8.41,8.38 0,4.65 3.77,8.42 8.41,8.42 4.64,0 8.43,-3.77 8.43,-8.42z"/>
    </g>
    <g>
     <path class="fil0" d="M898.13 578.23c0,-4.66 -3.79,-8.4 -8.43,-8.4 -4.64,0 -8.41,3.75 -8.41,8.4 0,4.64 3.77,8.41 8.41,8.41 4.64,0 8.43,-3.77 8.43,-8.41z"/>
    </g>
    <g>
     <path class="fil0" d="M994.61 718.08c2.43,0 4.43,-1.99 4.43,-4.42 0,-2.41 -2.01,-4.41 -4.43,-4.41l-213.51 0c-2.44,0 -4.42,1.97 -4.42,4.41 0,2.44 1.98,4.42 4.42,4.42l213.51 0z"/>
    </g>
    <g>
     <path class="fil0" d="M999.26 627.58c2.43,0 4.42,-2 4.42,-4.42 0,-2.43 -1.99,-4.43 -4.42,-4.43l-213.51 0c-2.44,0 -4.43,1.98 -4.43,4.43 0,2.44 1.99,4.42 4.43,4.42l213.51 0z"/>
    </g>
    <g>
     <path class="fil0" d="M779.92 627.58c2.44,0 4.43,-1.98 4.43,-4.42l0 -81.23c0,-2.44 -1.99,-4.42 -4.43,-4.42l-250.6 0c-2.44,0 -4.42,1.98 -4.42,4.42l0 81.23c0,2.44 1.98,4.42 4.42,4.42l250.6 0zm-246.18 -12.56l0 -64.98c0,-2.04 1.66,-3.69 3.7,-3.69l234.36 0c2.04,0 3.7,1.65 3.7,3.69l0 64.98c0,2.04 -1.66,3.7 -3.7,3.7l-234.36 0c-2.04,0 -3.7,-1.66 -3.7,-3.7z"/>
    </g>
    <g>
     <path class="fil0" d="M1002.73 864.29c2.42,0 4.43,-2.01 4.43,-4.42l0 -317.94c0,-2.43 -2,-4.42 -4.43,-4.42l-222.81 0c-2.43,0 -4.42,1.99 -4.42,4.42l0 317.94c0,2.41 2.01,4.42 4.42,4.42l222.81 0zm-218.38 -12.55l0 -301.7c0,-2.04 1.65,-3.69 3.69,-3.69l206.56 0c2.04,0 3.7,1.65 3.7,3.69l0 301.7c0,2.04 -1.66,3.7 -3.7,3.7l-206.56 0c-2.04,0 -3.69,-1.66 -3.69,-3.7z"/>
    </g>
    <g>
     <path class="fil0" d="M529.32 864.29c2.41,0 4.42,-2.01 4.42,-4.42l0 -317.94c0,-2.43 -1.99,-4.42 -4.42,-4.42l-34.84 0c-2.44,0 -4.41,1.98 -4.41,4.42l0 317.94c0,2.43 1.98,4.42 4.41,4.42l34.84 0zm-30.41 -12.55l0 -301.7c0,-2.04 1.66,-3.69 3.7,-3.69l18.59 0c2.04,0 3.7,1.65 3.7,3.69l0 301.7c0,2.04 -1.66,3.7 -3.7,3.7l-18.59 0c-2.04,0 -3.7,-1.66 -3.7,-3.7z"/>
    </g>
    <g>
     <path class="fil0" d="M1035.22 546.36c2.43,0 4.43,-2 4.43,-4.43l0 -51.05c0,-2.41 -2.01,-4.43 -4.43,-4.43l-577.85 0c-2.42,0 -4.43,2.02 -4.43,4.43l0 51.05c0,2.43 2,4.43 4.43,4.43l577.85 0zm-573.43 -12.56l0 -34.81c0,-2.04 1.66,-3.7 3.7,-3.7l561.61 0c2.04,0 3.7,1.66 3.7,3.7l0 34.81c0,2.04 -1.66,3.7 -3.7,3.7l-561.61 0c-2.04,0 -3.7,-1.66 -3.7,-3.7z"/>
    </g>
   </g>
   <path class="fil2" d="M152.98 786.29c3.39,-4.14 7,-8.07 10.79,-11.83 1.47,-1.44 2.96,-2.85 4.49,-4.23l-4.24 0.03c-87.4,1.61 -100.28,-70.71 -99.36,-139.41 0.04,-2.79 0.09,-5.6 0.1,-8.41l-2.54 0.09c-33.41,0.96 -61.31,-25.45 -62.19,-58.85 -0.86,-33.28 25.41,-61.05 58.68,-62.02l33.41 -0.98c6.73,-0.19 13.03,0.15 18.95,0.98l19.18 -105.02c4.83,-26.5 16.71,-51.97 35.9,-71.14 20.72,-20.67 47.65,-32.04 77.07,-32.04l141.5 0c29.44,0 56.43,11.38 77.14,32.15 19.12,19.16 31.01,44.57 35.84,71.02l19.19 105.03c5.9,-0.83 12.18,-1.17 18.91,-0.98l33.43 0.98c33.26,0.97 59.54,28.73 58.68,62.02 -0.87,33.4 -28.76,59.81 -62.18,58.85l-2.56 -0.09c0.01,2.81 0.06,5.6 0.1,8.41 0.92,68.67 -11.94,141.04 -98.78,139.42l-4.81 -0.04c1.5,1.37 2.96,2.75 4.41,4.17 3.85,3.77 7.49,7.76 10.89,11.92 9.68,4.12 18.56,10.07 26.12,17.64 15.45,15.49 24.19,36.4 24.19,58.33 0,21.91 -8.71,42.84 -24.19,58.32 -15.49,15.49 -36.41,24.23 -58.36,24.23 -21.91,0 -42.87,-8.69 -58.37,-24.18 -2.14,-2.13 -4.15,-4.37 -6.03,-6.71 -1.86,2.34 -3.88,4.58 -6.02,6.71 -15.48,15.49 -36.45,24.18 -58.37,24.18 -21.93,0 -42.84,-8.69 -58.34,-24.18 -2.16,-2.14 -4.17,-4.39 -6.06,-6.74 -1.87,2.33 -3.88,4.57 -6.02,6.69 -15.5,15.51 -36.43,24.23 -58.37,24.23 -21.92,0 -42.87,-8.69 -58.37,-24.18 -0.65,-0.65 -1.21,-1.23 -1.82,-1.92l0.28 0.28c-14.56,-15.34 -22.64,-35.59 -22.64,-56.72 0,-21.92 8.69,-42.86 24.18,-58.36 0.5,-0.52 0.97,-0.96 1.51,-1.45l0.15 -0.13c7.2,-6.82 15.5,-12.23 24.49,-16.05zm224.79 -371.84l-127.6 0c-0.47,1.41 -0.8,2.86 -0.97,3.82l-21.58 118.75c0,2.64 3.27,6.53 4.98,8.23 5.53,5.48 13.47,9.39 21.12,10.78 2.04,0.37 4.13,0.54 6.19,0.54l108.11 0c2.01,0 4.05,-0.17 6.03,-0.54 0.22,-0.03 0.42,-0.07 0.64,-0.1 7.49,-1.45 15.2,-5.31 20.63,-10.71 1.68,-1.68 4.98,-5.59 4.93,-9.01l-21.53 -117.95c-0.18,-0.96 -0.5,-2.4 -0.96,-3.82z"/>
   <g>
    <path class="fil0" d="M183.84 835.5c-6.37,0.32 -12.39,2.9 -17.09,7.36l-0.57 0.51c-5.04,5.04 -7.8,11.76 -7.8,18.9 0,6.87 2.6,13.4 7.45,18.5l0.47 0.52c5.04,5.04 11.76,7.79 18.9,7.79 7.16,0 13.9,-2.84 18.96,-7.91 5.05,-5.04 7.86,-11.77 7.86,-18.91 0,-7.15 -2.86,-13.89 -7.91,-18.95 -0.85,-0.85 -1.79,-1.67 -2.76,-2.41 -2.75,-2.1 -3.36,-5.99 -1.39,-8.83 2.81,-4.02 6.06,-7.74 9.57,-11.18 4.64,-4.55 9.79,-8.63 15.21,-12.23 5.9,-3.91 12.18,-7.29 18.64,-10.19 6.9,-3.07 14.05,-5.6 21.33,-7.64 7.88,-2.2 15.92,-3.85 24.03,-4.93 4.53,-0.59 9.08,-1.03 13.64,-1.29 1.83,-0.12 3.46,0.47 4.79,1.74 1.34,1.26 2.02,2.84 2.02,4.67l0 39.94c0,2.76 -1.65,5.13 -4.26,6.06 -3.72,1.34 -7.11,3.52 -9.91,6.33 -5.04,5.03 -7.86,11.77 -7.86,18.9 0,7.16 2.82,13.9 7.89,18.96 5.04,5.05 11.79,7.86 18.93,7.86 7.13,0 13.92,-2.81 18.96,-7.86 5.06,-5.04 7.87,-11.81 7.87,-18.96 0,-7.13 -2.81,-13.9 -7.87,-18.95 -2.8,-2.81 -6.2,-4.96 -9.93,-6.3 -2.6,-0.93 -4.26,-3.28 -4.26,-6.06l0 -39.89c0,-1.83 0.68,-3.41 2.03,-4.67 1.33,-1.27 2.95,-1.86 4.79,-1.75 4.54,0.27 9.07,0.7 13.59,1.26l0.41 0.06c7.99,1.08 15.93,2.71 23.7,4.88 7.27,2.04 14.43,4.57 21.32,7.64 6.47,2.9 12.72,6.28 18.62,10.19 5.43,3.6 10.59,7.68 15.23,12.23 3.49,3.44 6.72,7.16 9.53,11.17 1.99,2.82 1.4,6.73 -1.38,8.83 -0.97,0.74 -1.92,1.55 -2.78,2.42 -5.05,5.05 -7.86,11.81 -7.86,18.95 0,7.14 2.81,13.92 7.86,18.96 5.04,5.05 11.82,7.86 18.96,7.86 7.15,0 13.9,-2.85 18.95,-7.91 5.05,-5.04 7.88,-11.77 7.88,-18.91 0,-7.15 -2.87,-13.89 -7.91,-18.95 -4.69,-4.7 -10.93,-7.51 -17.57,-7.83 -2.81,-0.13 -5.13,-1.97 -6.45,-5.95 -3.58,-5.59 -7.84,-10.73 -12.57,-15.37 -5.1,-5 -10.71,-9.48 -16.64,-13.43 -6.33,-4.2 -13.07,-7.81 -20.01,-10.89 -7.32,-3.27 -14.89,-5.99 -22.61,-8.13 -8.19,-2.31 -16.57,-3.99 -25.2,-5.15l-0.15 -0.03c-5.19,-0.7 -10.42,-1.18 -15.66,-1.48 -3.4,-0.19 -6.08,-3 -6.08,-6.42l0 -47.67c0,-3.53 2.9,-6.43 6.44,-6.43l103.98 0c1.74,0 3.49,-0.18 5.21,-0.51 1.02,-0.2 1.93,-0.17 3.63,0.22 6.69,0.47 14.39,0.18 21.17,0.24l5.81 0.04c47.37,0.88 43.01,-48.9 42.56,-82.94 -0.1,-7.71 -0.2,-15.45 0.03,-23.17 0.55,-17.38 3.13,-43.26 26.33,-42.58l33.46 0.97c2.59,0.08 4.78,-1.98 4.84,-4.57 0.07,-2.61 -2,-4.79 -4.6,-4.86l-33.43 -0.98c-31.98,-0.93 -35.22,25.93 -36.02,51.85 -0.25,7.81 -0.14,15.64 -0.03,23.44 0.34,24.68 3.59,74.11 -32.95,73.43l-4.57 -0.05c-2.15,-0.01 -3.99,-0.99 -5.21,-2.73 -1.24,-1.76 -1.51,-3.82 -0.8,-5.84 1.02,-2.86 1.51,-5.86 1.51,-8.89l0 -13.65c0,-7.17 -2.84,-13.96 -7.92,-19.03 -5.06,-5.07 -11.85,-7.93 -19.02,-7.93l-103.98 0c-3.54,0 -6.44,-2.9 -6.44,-6.43l0 -11.11 -0.04 -0.89c-0.08,-1.82 0.52,-3.41 1.77,-4.73 1.27,-1.33 2.84,-1.99 4.66,-1.99l42.91 0c5.98,0 11.9,-0.58 17.66,-1.63l0.62 -0.15c20.42,-3.8 40.22,-13.93 54.97,-28.59 14.67,-14.57 24.28,-33.48 24.28,-54.44 0,-4.19 -0.42,-8.4 -1.18,-12.54l-21.53 -117.85c-2.78,-15.23 -9.42,-30.6 -20.47,-41.68 -10.26,-10.28 -23.06,-15.76 -37.68,-15.76l-141.5 0c-14.63,0 -27.42,5.5 -37.7,15.76 -11.06,11.05 -17.66,26.47 -20.44,41.68l-21.53 117.91c-0.76,4.13 -1.2,8.3 -1.2,12.48 0,20.96 9.6,39.88 24.29,54.46 14.85,14.76 34.88,24.92 55.45,28.67 5.89,1.08 11.85,1.68 17.83,1.68l42.88 0c1.82,0 3.39,0.66 4.66,1.99 1.26,1.32 1.85,2.91 1.78,4.73l-0.05 0.74 0 11.26c0,3.53 -2.89,6.43 -6.43,6.43l-103.97 0c-7.17,0 -13.96,2.84 -19.03,7.93 -5.08,5.07 -7.92,11.85 -7.92,19.03l0 13.65c0,3.03 0.49,6.03 1.51,8.87 0.71,2.03 0.44,4.1 -0.8,5.84 -1.23,1.76 -3.06,2.74 -5.21,2.75l-4.5 0.05c-36.6,0.68 -33.35,-48.75 -33.02,-73.43 0.1,-7.85 0.22,-15.72 -0.03,-23.57 -0.8,-25.9 -4.11,-52.65 -36.03,-51.72l-33.41 0.98c-2.62,0.07 -4.67,2.25 -4.6,4.86 0.06,2.59 2.25,4.65 4.84,4.57l33.51 -0.97c23.19,-0.67 25.73,25.33 26.28,42.68 0.24,7.69 0.12,15.4 0.02,23.07 -0.46,34.09 -4.81,83.82 42.66,82.94l5.73 -0.04c6.77,-0.06 14.47,0.24 21.85,-0.37 1.01,-0.26 1.93,-0.29 2.95,-0.09 1.71,0.34 3.46,0.51 5.2,0.51l103.97 0c3.54,0 6.43,2.9 6.43,6.43l0 47.67c0,3.42 -2.66,6.23 -6.07,6.42 -5.24,0.31 -10.47,0.78 -15.66,1.48 -8.55,1.14 -17.03,2.85 -25.34,5.18 -7.73,2.15 -15.3,4.86 -22.62,8.13 -6.94,3.09 -13.67,6.7 -20.01,10.89 -5.93,3.95 -11.54,8.41 -16.61,13.41 -4.73,4.66 -9.01,9.8 -13.16,16.65 -0.76,2.71 -3.08,4.55 -5.89,4.68zm76.08 -223.19c-5.42,0 -10.85,-0.47 -16.18,-1.43 -18.75,-3.42 -36.9,-12.64 -50.43,-26.11 -12.83,-12.75 -21.42,-29.37 -21.42,-47.74 0,-3.64 0.3,-7.27 0.95,-10.84l21.53 -117.91c2.44,-13.39 8.18,-26.86 17.88,-36.59 8.39,-8.4 19.05,-12.96 30.97,-12.96l141.5 0c11.92,0 22.58,4.57 30.97,12.94 9.73,9.7 15.43,23.24 17.88,36.61l21.53 117.96c0.64,3.55 0.95,7.17 0.95,10.79 0,18.36 -8.6,34.98 -21.42,47.73 -13.46,13.38 -31.43,22.58 -50.25,26.07l-0.2 0.03c-5.31,0.98 -10.73,1.45 -16.14,1.45l-108.11 0zm169.23 44.22c4.61,0 9.04,1.85 12.3,5.13 3.27,3.27 5.12,7.68 5.12,12.29l0 13.65c0,4.63 -1.84,9.04 -5.1,12.32 -3.27,3.27 -7.71,5.12 -12.32,5.12l-230.36 0c-4.63,0 -9.05,-1.84 -12.32,-5.12 -3.26,-3.27 -5.1,-7.69 -5.1,-12.32l0 -13.65c0,-4.63 1.85,-9.02 5.12,-12.3 3.27,-3.27 7.67,-5.12 12.3,-5.12l230.36 0zm-231.72 193.5c3.27,3.25 5.06,7.65 5.06,12.25 0,4.61 -1.79,8.99 -5.06,12.27 -3.25,3.25 -7.64,5.03 -12.23,5.03 -4.59,0 -8.99,-1.82 -12.16,-4.98l-0.71 -0.71c-2.88,-3.2 -4.42,-7.33 -4.42,-11.61 0,-4.59 1.82,-8.98 5.05,-12.23l0.61 -0.58c3.2,-2.88 7.34,-4.45 11.64,-4.45 4.59,0 8.98,1.77 12.23,5.02zm128.77 0.03c3.24,3.25 5.06,7.63 5.06,12.22 0,4.58 -1.81,8.98 -5.06,12.24 -3.25,3.24 -7.64,5.06 -12.23,5.06 -4.6,0 -8.99,-1.79 -12.26,-5.04 -3.25,-3.27 -5.04,-7.66 -5.04,-12.26 0,-4.59 1.79,-9 5.03,-12.25 3.26,-3.25 7.67,-5.02 12.27,-5.02 4.59,0 8.99,1.8 12.23,5.05zm128.79 -0.03c3.25,3.27 5.04,7.66 5.04,12.25 0,4.61 -1.79,8.99 -5.06,12.27 -3.25,3.24 -7.64,5.03 -12.23,5.03 -4.58,0 -8.98,-1.81 -12.23,-5.06 -3.26,-3.25 -5.07,-7.64 -5.07,-12.24 0,-4.59 1.82,-8.98 5.06,-12.23 3.26,-3.25 7.64,-5.04 12.24,-5.04 4.59,0 9,1.79 12.25,5.02z"/>
    <path class="fil0" d="M448.17 701.98c-0.65,0.87 -1.39,1.69 -2.16,2.47 -1.36,1.37 -2.87,2.55 -4.48,3.54 3.4,0.11 6.88,0.1 10.34,0.07 -0.65,-0.61 -1.24,-1.3 -1.78,-2.07 -0.89,-1.27 -1.52,-2.62 -1.92,-4.02zm-131.62 -51.89c-1.04,-0.93 -1.91,-2.01 -2.59,-3.22 -0.69,1.21 -1.56,2.29 -2.58,3.22l5.17 0zm-136.8 51.88c-0.39,1.4 -1.04,2.75 -1.93,4.03 -0.52,0.76 -1.12,1.45 -1.77,2.07 3.46,0.03 6.95,0.04 10.35,-0.07 -1.61,-0.99 -3.13,-2.18 -4.48,-3.54 -0.79,-0.78 -1.5,-1.61 -2.17,-2.48zm131.64 9.49c1.02,0.92 1.87,2.01 2.56,3.21 0.68,-1.2 1.55,-2.29 2.57,-3.21l-5.14 0zm5.07 -92.71l-5 0c0.22,0.2 0.44,0.41 0.64,0.62 0.72,0.77 1.36,1.57 1.85,2.43 0.5,-0.86 1.13,-1.66 1.86,-2.43 0.21,-0.22 0.43,-0.43 0.64,-0.62zm-125.05 220.64c0.54,0.14 1.1,0.32 1.62,0.49 -0.17,-0.49 -0.31,-1.02 -0.42,-1.54 -0.38,0.38 -0.78,0.72 -1.21,1.05zm121.79 -0.8c0.27,-0.02 0.51,-0.02 0.77,-0.02 0.27,0 0.51,0 0.77,0.02 -0.28,-0.39 -0.53,-0.79 -0.77,-1.2 -0.23,0.41 -0.49,0.81 -0.77,1.2zm121.67 1.33c0.54,-0.19 1.09,-0.37 1.66,-0.52 -0.44,-0.33 -0.84,-0.68 -1.24,-1.07 -0.11,0.54 -0.25,1.07 -0.43,1.59zm-120.9 -64.93c-1.15,2.01 -2.82,3.7 -4.85,4.85 0.87,0.49 1.69,1.13 2.47,1.85 0.96,0.92 1.75,1.91 2.37,2.97 0.62,-1.04 1.41,-2.04 2.35,-2.94 0.79,-0.74 1.62,-1.37 2.49,-1.86 -2.02,-1.15 -3.71,-2.84 -4.85,-4.87z"/>
   </g>
  </g>
 </g>
</svg>
