<?xml version="1.0" encoding="UTF-8"?>
<!DOCTYPE svg PUBLIC "-//W3C//DTD SVG 1.1//EN" "http://www.w3.org/Graphics/SVG/1.1/DTD/svg11.dtd">
<!-- Creator: CorelDRAW 2020 (64-Bit) -->
<svg xmlns="http://www.w3.org/2000/svg" xml:space="preserve" width="1.9358mm" height="1.9588mm" version="1.1" style="shape-rendering:geometricPrecision; text-rendering:geometricPrecision; image-rendering:optimizeQuality; fill-rule:evenodd; clip-rule:evenodd"
viewBox="0 0 5.62 5.68"
 xmlns:xlink="http://www.w3.org/1999/xlink"
 xmlns:xodm="http://www.corel.com/coreldraw/odm/2003">
 <defs>
  <style type="text/css">
   <![CDATA[
    .fil0 {fill:#FEFEFE;fill-rule:nonzero}
   ]]>
  </style>
 </defs>
 <g id="Layer_x0020_1">
  <metadata id="CorelCorpID_0Corel-Layer"/>
  <g id="_11285852912">
   <path class="fil0" d="M0.67 0.32l1.08 0c0.18,0 0.35,0.08 0.47,0.2 0.12,0.12 0.2,0.29 0.2,0.47l0 1.08c0,0.18 -0.08,0.35 -0.2,0.47 -0.12,0.12 -0.29,0.2 -0.47,0.2l-1.08 0c-0.18,0 -0.35,-0.08 -0.47,-0.2 -0.12,-0.12 -0.2,-0.29 -0.2,-0.47l0 -1.08c0,-0.18 0.08,-0.35 0.2,-0.47 0.12,-0.12 0.29,-0.2 0.47,-0.2zm1.08 0.36l-1.08 0c-0.09,0 -0.16,0.04 -0.22,0.09 -0.06,0.06 -0.09,0.13 -0.09,0.22l0 1.08c0,0.09 0.04,0.16 0.09,0.22 0.06,0.06 0.13,0.09 0.22,0.09l1.08 0c0.09,0 0.16,-0.04 0.22,-0.09 0.06,-0.06 0.09,-0.13 0.09,-0.22l0 -1.08c0,-0.09 -0.04,-0.16 -0.09,-0.22 -0.06,-0.06 -0.13,-0.09 -0.22,-0.09z"/>
   <path class="fil0" d="M0.67 3.26l1.08 0c0.18,0 0.35,0.08 0.47,0.2 0.12,0.12 0.2,0.29 0.2,0.47l0 1.08c0,0.18 -0.08,0.35 -0.2,0.47 -0.12,0.12 -0.29,0.2 -0.47,0.2l-1.08 0c-0.18,0 -0.35,-0.08 -0.47,-0.2 -0.12,-0.12 -0.2,-0.29 -0.2,-0.47l0 -1.08c0,-0.18 0.08,-0.35 0.2,-0.47 0.12,-0.12 0.29,-0.2 0.47,-0.2zm1.08 0.36l-1.08 0c-0.09,0 -0.16,0.04 -0.22,0.09 -0.06,0.06 -0.09,0.13 -0.09,0.22l0 1.08c0,0.09 0.04,0.16 0.09,0.22 0.06,0.06 0.13,0.09 0.22,0.09l1.08 0c0.09,0 0.16,-0.04 0.22,-0.09 0.06,-0.06 0.09,-0.13 0.09,-0.22l0 -1.08c0,-0.09 -0.04,-0.16 -0.09,-0.22 -0.06,-0.06 -0.13,-0.09 -0.22,-0.09z"/>
   <path class="fil0" d="M3.64 3.26l1.08 0c0.18,0 0.35,0.08 0.47,0.2 0.12,0.12 0.2,0.29 0.2,0.47l0 1.08c0,0.18 -0.08,0.35 -0.2,0.47 -0.12,0.12 -0.29,0.2 -0.47,0.2l-1.08 0c-0.18,0 -0.35,-0.08 -0.47,-0.2 -0.12,-0.12 -0.2,-0.29 -0.2,-0.47l0 -1.08c0,-0.18 0.08,-0.35 0.2,-0.47 0.12,-0.12 0.29,-0.2 0.47,-0.2zm1.08 0.36l-1.08 0c-0.09,0 -0.16,0.04 -0.22,0.09 -0.06,0.06 -0.09,0.13 -0.09,0.22l0 1.08c0,0.09 0.04,0.16 0.09,0.22 0.06,0.06 0.13,0.09 0.22,0.09l1.08 0c0.09,0 0.16,-0.04 0.22,-0.09 0.06,-0.06 0.09,-0.13 0.09,-0.22l0 -1.08c0,-0.09 -0.04,-0.16 -0.09,-0.22 -0.06,-0.06 -0.13,-0.09 -0.22,-0.09z"/>
   <path class="fil0" d="M4.66 0.2l0.76 0.76c0.13,0.13 0.2,0.3 0.2,0.47 0,0.17 -0.07,0.34 -0.2,0.47l-0.76 0.76c-0.13,0.13 -0.3,0.2 -0.47,0.2 -0.17,0 -0.34,-0.07 -0.47,-0.2l-0.76 -0.76c-0.13,-0.13 -0.2,-0.3 -0.2,-0.47 0,-0.17 0.07,-0.34 0.2,-0.47l0.76 -0.76c0.13,-0.13 0.3,-0.2 0.47,-0.2 0.17,0 0.34,0.07 0.47,0.2zm0.51 1.02l-0.76 -0.76c-0.06,-0.06 -0.14,-0.09 -0.22,-0.09 -0.08,0 -0.16,0.03 -0.22,0.09l-0.76 0.76c-0.06,0.06 -0.09,0.14 -0.09,0.22 0,0.08 0.03,0.16 0.09,0.22l0.76 0.76c0.06,0.06 0.14,0.09 0.22,0.09 0.08,0 0.16,-0.03 0.22,-0.09l0.76 -0.76c0.06,-0.06 0.09,-0.14 0.09,-0.22 0,-0.08 -0.03,-0.16 -0.09,-0.22z"/>
  </g>
 </g>
</svg>
