<?xml version="1.0" encoding="UTF-8"?>
<!DOCTYPE svg PUBLIC "-//W3C//DTD SVG 1.1//EN" "http://www.w3.org/Graphics/SVG/1.1/DTD/svg11.dtd">
<!-- Creator: CorelDRAW 2020 (64-Bit) -->
<svg xmlns="http://www.w3.org/2000/svg" xml:space="preserve" width="2.4769mm" height="2.3622mm" version="1.1" style="shape-rendering:geometricPrecision; text-rendering:geometricPrecision; image-rendering:optimizeQuality; fill-rule:evenodd; clip-rule:evenodd"
viewBox="0 0 20.31 19.37"
 xmlns:xlink="http://www.w3.org/1999/xlink"
 xmlns:xodm="http://www.corel.com/coreldraw/odm/2003">
 <defs>
  <style type="text/css">
   <![CDATA[
    .fil0 {fill:#FEFEFE;fill-rule:nonzero}
   ]]>
  </style>
 </defs>
 <g id="Layer_x0020_1">
  <metadata id="CorelCorpID_0Corel-Layer"/>
  <g id="_11371921776">
   <path class="fil0" d="M8.17 15.15c-4.06,0 -7.36,-3.22 -7.36,-7.18 0,-3.96 3.3,-7.18 7.36,-7.18 4.06,0 7.36,3.22 7.36,7.18 0,3.96 -3.3,7.18 -7.36,7.18zm8.16 -7.18c0,-4.39 -3.66,-7.97 -8.16,-7.97 -4.5,0 -8.17,3.57 -8.17,7.97 0,4.39 3.66,7.97 8.17,7.97 4.5,0 8.16,-3.57 8.16,-7.97z"/>
   <path class="fil0" d="M20.18 17.17l-4.54 -4.07c-0.16,-0.14 -0.42,-0.13 -0.57,0.02 -0.15,0.16 -0.14,0.41 0.02,0.56l4.26 3.81 -0.78 0.92 -4.35 -3.78c-0.16,-0.14 -0.43,-0.12 -0.57,0.03 -0.15,0.16 -0.13,0.41 0.03,0.55l4.66 4.05c0.07,0.06 0.17,0.1 0.27,0.1 0.01,0 0.02,0 0.03,0 0.11,-0.01 0.21,-0.06 0.28,-0.14l1.29 -1.52c0.14,-0.16 0.12,-0.4 -0.04,-0.54z"/>
  </g>
 </g>
</svg>
