<?xml version="1.0" encoding="UTF-8"?>
<!DOCTYPE svg PUBLIC "-//W3C//DTD SVG 1.1//EN" "http://www.w3.org/Graphics/SVG/1.1/DTD/svg11.dtd">
<!-- Creator: CorelDRAW 2020 (64-Bit) -->
<svg xmlns="http://www.w3.org/2000/svg" xml:space="preserve" width="1.5953mm" height="1.4663mm" version="1.1" style="shape-rendering:geometricPrecision; text-rendering:geometricPrecision; image-rendering:optimizeQuality; fill-rule:evenodd; clip-rule:evenodd"
viewBox="0 0 7.35 6.75"
 xmlns:xlink="http://www.w3.org/1999/xlink"
 xmlns:xodm="http://www.corel.com/coreldraw/odm/2003">
 <defs>
  <style type="text/css">
   <![CDATA[
    .fil0 {fill:#B2B3B3}
   ]]>
  </style>
 </defs>
 <g id="Layer_x0020_1">
  <metadata id="CorelCorpID_0Corel-Layer"/>
  <path class="fil0" d="M2.73 0c0.75,0 1.44,0.31 1.93,0.8 0.49,0.49 0.8,1.18 0.8,1.93 0,0.17 -0.02,0.33 -0.04,0.49l-0.73 0c0.04,-0.16 0.06,-0.32 0.06,-0.49 0,-0.56 -0.23,-1.06 -0.59,-1.43 -0.36,-0.36 -0.87,-0.59 -1.42,-0.59 -0.56,0 -1.06,0.22 -1.42,0.59 -0.36,0.36 -0.59,0.87 -0.59,1.43 0,0.56 0.23,1.06 0.59,1.42 0.04,0.03 0.07,0.07 0.11,0.1l0 0.86c-0.23,-0.13 -0.43,-0.28 -0.61,-0.46 -0.49,-0.49 -0.8,-1.18 -0.8,-1.93 0,-0.75 0.31,-1.44 0.8,-1.93 0.49,-0.49 1.18,-0.8 1.93,-0.8l0 0zm-1.13 2l0.85 0.85c-0.01,0.04 -0.02,0.08 -0.02,0.13 0,0.08 0.02,0.16 0.06,0.22l-0.07 0.16 0.42 0.18 0.07 -0.17c0.01,-0 0.03,-0.01 0.04,-0.01l0.26 0.26 0.18 -0.19 -0.24 -0.24c0.04,-0.06 0.06,-0.13 0.06,-0.21 0,-0.07 -0.02,-0.15 -0.06,-0.2l0.34 -0.8 -0.42 -0.17 -0.33 0.8c-0.05,0.01 -0.09,0.03 -0.13,0.05l-0.83 -0.83 -0.18 0.19z"/>
  <path class="fil0" d="M7.21 5.23l-1.01 -0.18 -0.36 -0.71 -0.04 -0.08 -0.89 0 -0.26 -0.3 -2.36 0 -0.31 0.44 0 1.87 0.31 0c0.04,0.11 0.09,0.2 0.17,0.28 0.13,0.13 0.31,0.21 0.5,0.21 0.2,0 0.37,-0.08 0.5,-0.21 0.08,-0.08 0.14,-0.17 0.17,-0.28 0.61,-0 1.28,-0 1.89,-0.01 0.03,0.11 0.09,0.21 0.18,0.29 0.13,0.13 0.31,0.21 0.5,0.21 0.2,0 0.37,-0.08 0.5,-0.21 0.08,-0.08 0.14,-0.18 0.18,-0.29 0.09,0 0.16,0 0.23,0l0.23 0 0 -0.48 -0.14 0 0 -0.55zm-4.49 0.56c0.06,-0.06 0.15,-0.1 0.25,-0.1 0.1,0 0.19,0.04 0.25,0.1 0.06,0.06 0.11,0.15 0.11,0.25 0,0.1 -0.04,0.19 -0.11,0.25 -0.06,0.06 -0.15,0.1 -0.25,0.1 -0.1,0 -0.19,-0.04 -0.25,-0.1 -0.06,-0.06 -0.1,-0.15 -0.1,-0.25 0,-0.1 0.04,-0.19 0.1,-0.25l0 0zm3.24 0c0.06,-0.06 0.15,-0.1 0.25,-0.1 0.1,0 0.19,0.04 0.25,0.1 0.07,0.06 0.11,0.15 0.11,0.25 0,0.1 -0.04,0.19 -0.11,0.25 -0.06,0.06 -0.15,0.1 -0.25,0.1 -0.1,0 -0.19,-0.04 -0.25,-0.1 -0.06,-0.06 -0.11,-0.15 -0.11,-0.25 0,-0.1 0.04,-0.19 0.11,-0.25l0 0zm-0.09 -0.77l-0.24 -0.48 -0.85 0 0 0.48 1.09 -0 0 0z"/>
 </g>
</svg>
