<?xml version="1.0" encoding="UTF-8"?>
<!DOCTYPE svg PUBLIC "-//W3C//DTD SVG 1.1//EN" "http://www.w3.org/Graphics/SVG/1.1/DTD/svg11.dtd">
<!-- Creator: CorelDRAW 2020 (64-Bit) -->
<svg xmlns="http://www.w3.org/2000/svg" xml:space="preserve" width="1.5405mm" height="1.5405mm" version="1.1" style="shape-rendering:geometricPrecision; text-rendering:geometricPrecision; image-rendering:optimizeQuality; fill-rule:evenodd; clip-rule:evenodd"
viewBox="0 0 1.76 1.76"
 xmlns:xlink="http://www.w3.org/1999/xlink"
 xmlns:xodm="http://www.corel.com/coreldraw/odm/2003">
 <defs>
  <style type="text/css">
   <![CDATA[
    .fil1 {fill:#FEFEFE;fill-rule:nonzero}
    .fil2 {fill:#E31E24;fill-rule:nonzero}
    .fil0 {fill:#28459C;fill-rule:nonzero}
   ]]>
  </style>
 </defs>
 <g id="Layer_x0020_1">
  <metadata id="CorelCorpID_0Corel-Layer"/>
  <g id="_1438277296">
   <path class="fil0" d="M0.23 1.01l0.29 0 0 0.4 -0.29 0 0 -0.4zm0.05 -0.85c0,-0.05 0.04,-0.09 0.09,-0.09 0.05,0 0.09,0.04 0.09,0.09l0 0.8 -0.18 0 0 -0.8zm0.45 0.17l0.29 0 0 0.4 -0.29 0 0 -0.4zm0.05 -0.17c0,-0.05 0.04,-0.09 0.09,-0.09 0.05,0 0.09,0.04 0.09,0.09l0 0.12 -0.18 0 0 -0.12zm0.45 0.53l0.29 0 0 0.4 -0.29 0 0 -0.4zm0.05 -0.53c0,-0.05 0.04,-0.09 0.09,-0.09 0.05,0 0.09,0.04 0.09,0.09l0 0.48 -0.18 0 0 -0.48zm0.18 1.38c0,0.05 -0.04,0.09 -0.09,0.09 -0.05,0 -0.09,-0.04 -0.09,-0.09l0 -0.4 0.18 0 0 0.4zm-0.5 0c0,0.05 -0.04,0.09 -0.09,0.09 -0.05,0 -0.09,-0.04 -0.09,-0.09l0 -0.76 0.18 0 0 0.76zm-0.5 0c0,0.05 -0.04,0.09 -0.09,0.09 -0.05,0 -0.09,-0.04 -0.09,-0.09l0 -0.08 0.18 0 0 0.08zm-0.47 0.21l1.76 0 0 -1.76 -1.76 0 0 1.76z"/>
   <path class="fil1" d="M0.38 1.64c0.05,0 0.09,-0.04 0.09,-0.09l0 -0.08 -0.18 0 0 0.08c0,0.05 0.04,0.09 0.09,0.09z"/>
   <path class="fil1" d="M0.28 0.17l0 0.8 0.18 0 0 -0.8c0,-0.05 -0.04,-0.09 -0.09,-0.09 -0.05,0 -0.09,0.04 -0.09,0.09z"/>
   <path class="fil1" d="M0.88 1.64c0.05,0 0.09,-0.04 0.09,-0.09l0 -0.76 -0.18 0 0 0.76c0,0.05 0.04,0.09 0.09,0.09z"/>
   <path class="fil1" d="M0.79 0.17l0 0.12 0.18 0 0 -0.12c0,-0.05 -0.04,-0.09 -0.09,-0.09 -0.05,0 -0.09,0.04 -0.09,0.09z"/>
   <path class="fil1" d="M1.29 0.17l0 0.48 0.18 0 0 -0.48c0,-0.05 -0.04,-0.09 -0.09,-0.09 -0.05,0 -0.09,0.04 -0.09,0.09z"/>
   <path class="fil1" d="M1.38 1.64c0.05,0 0.09,-0.04 0.09,-0.09l0 -0.4 -0.18 0 0 0.4c0,0.05 0.04,0.09 0.09,0.09z"/>
   <path class="fil2" d="M0.3 1.28l0.15 0 0 0.03 -0.15 0 0 -0.03zm0 -0.08l0.15 0 0 0.03 -0.15 0 0 -0.03zm0 -0.08l0.15 0 0 0.03 -0.15 0 0 -0.03zm0.22 0.3l0 -0.4 -0.29 0 0 0.4 0.29 0z"/>
   <path class="fil2" d="M1.31 0.96l0.15 0 0 0.03 -0.15 0 0 -0.03zm0 -0.08l0.15 0 0 0.03 -0.15 0 0 -0.03zm0 -0.08l0.15 0 0 0.03 -0.15 0 0 -0.03zm0.22 0.31l0 -0.4 -0.29 0 0 0.4 0.29 0z"/>
   <path class="fil2" d="M0.8 0.6l0.15 0 0 0.03 -0.15 0 0 -0.03zm0 -0.08l0.15 0 0 0.03 -0.15 0 0 -0.03zm0 -0.08l0.15 0 0 0.03 -0.15 0 0 -0.03zm0.22 0.31l0 -0.4 -0.29 0 0 0.4 0.29 0z"/>
   <polygon class="fil2" points="1.31,0.83 1.46,0.83 1.46,0.8 1.31,0.8 "/>
   <polygon class="fil2" points="1.31,0.91 1.46,0.91 1.46,0.88 1.31,0.88 "/>
   <polygon class="fil2" points="1.31,0.99 1.46,0.99 1.46,0.96 1.31,0.96 "/>
   <polygon class="fil2" points="0.8,0.46 0.95,0.46 0.95,0.44 0.8,0.44 "/>
   <polygon class="fil2" points="0.8,0.55 0.95,0.55 0.95,0.52 0.8,0.52 "/>
   <polygon class="fil2" points="0.8,0.63 0.95,0.63 0.95,0.6 0.8,0.6 "/>
   <polygon class="fil2" points="0.3,1.15 0.45,1.15 0.45,1.12 0.3,1.12 "/>
   <polygon class="fil2" points="0.3,1.23 0.45,1.23 0.45,1.2 0.3,1.2 "/>
   <polygon class="fil2" points="0.3,1.31 0.45,1.31 0.45,1.28 0.3,1.28 "/>
  </g>
 </g>
</svg>
