<?xml version="1.0" encoding="UTF-8"?>
<!DOCTYPE svg PUBLIC "-//W3C//DTD SVG 1.1//EN" "http://www.w3.org/Graphics/SVG/1.1/DTD/svg11.dtd">
<!-- Creator: CorelDRAW 2020 (64-Bit) -->
<svg xmlns="http://www.w3.org/2000/svg" xml:space="preserve" width="1.5802mm" height="1.5836mm" version="1.1" style="shape-rendering:geometricPrecision; text-rendering:geometricPrecision; image-rendering:optimizeQuality; fill-rule:evenodd; clip-rule:evenodd"
viewBox="0 0 2.66 2.67"
 xmlns:xlink="http://www.w3.org/1999/xlink"
 xmlns:xodm="http://www.corel.com/coreldraw/odm/2003">
 <defs>
  <style type="text/css">
   <![CDATA[
    .fil0 {fill:#1E3264;fill-rule:nonzero}
   ]]>
  </style>
 </defs>
 <g id="Layer_x0020_1">
  <metadata id="CorelCorpID_0Corel-Layer"/>
  <path class="fil0" d="M-0 0.98l0 0.77c0,0.42 0.13,0.7 0.4,0.84 0.12,0.07 0.5,0.09 1.15,0.08 0.5,0 0.78,-0.05 0.86,-0.16 0.17,-0.13 0.25,-0.36 0.25,-0.67l0 -0.99c0,-0.39 -0.14,-0.65 -0.41,-0.77l-0.18 -0.06 -0.19 -0.01 -1.08 0c-0.38,0 -0.64,0.19 -0.77,0.56 -0.02,0.11 -0.03,0.25 -0.03,0.41zm0.84 -0.74l1.03 0c0.37,0 0.56,0.2 0.56,0.59l0 1.05c-0.05,0.36 -0.2,0.55 -0.46,0.55l-0.43 0c-0.2,0 -0.41,0 -0.63,0.01 -0.37,0 -0.59,-0.12 -0.65,-0.35 -0.02,-0.13 -0.03,-0.33 -0.03,-0.59l0 -0.33c0,-0.49 0.04,-0.74 0.12,-0.74 0.08,-0.13 0.24,-0.19 0.49,-0.19zm1.05 0.4c0.04,0.1 0.1,0.15 0.16,0.15 0.07,0 0.12,-0.05 0.16,-0.15 -0.02,-0.12 -0.08,-0.18 -0.18,-0.18 -0.1,0.03 -0.15,0.09 -0.15,0.18zm-1.24 0.71c0,0.32 0.18,0.54 0.55,0.66l0.3 0c0.35,-0.13 0.53,-0.35 0.53,-0.68l0 -0.03c0,-0.18 -0.09,-0.36 -0.28,-0.52 -0.13,-0.09 -0.26,-0.13 -0.4,-0.13l-0.01 0c-0.3,0 -0.52,0.16 -0.64,0.47 -0.02,0.02 -0.03,0.09 -0.04,0.22zm0.68 -0.46l0.01 0c0.21,0 0.36,0.11 0.43,0.34 0.01,0.01 0.01,0.05 0.01,0.1 -0.05,0.3 -0.19,0.46 -0.44,0.46 -0.2,0 -0.34,-0.1 -0.43,-0.29 -0.01,-0.02 -0.02,-0.07 -0.03,-0.15 0.04,-0.31 0.18,-0.46 0.45,-0.46z"/>
 </g>
</svg>
