<?xml version="1.0" encoding="UTF-8"?>
<!DOCTYPE svg PUBLIC "-//W3C//DTD SVG 1.1//EN" "http://www.w3.org/Graphics/SVG/1.1/DTD/svg11.dtd">
<!-- Creator: CorelDRAW 2020 (64-Bit) -->
<svg xmlns="http://www.w3.org/2000/svg" xml:space="preserve" width="1.9233mm" height="1.7996mm" version="1.1" style="shape-rendering:geometricPrecision; text-rendering:geometricPrecision; image-rendering:optimizeQuality; fill-rule:evenodd; clip-rule:evenodd"
viewBox="0 0 11.62 10.87"
 xmlns:xlink="http://www.w3.org/1999/xlink"
 xmlns:xodm="http://www.corel.com/coreldraw/odm/2003">
 <defs>
  <style type="text/css">
   <![CDATA[
    .fil0 {fill:#1E3264;fill-rule:nonzero}
   ]]>
  </style>
 </defs>
 <g id="Layer_x0020_1">
  <metadata id="CorelCorpID_0Corel-Layer"/>
  <path class="fil0" d="M8.24 2.65c0.06,-0.48 0.5,-0.83 0.99,-0.77 0.49,0.06 0.83,0.5 0.77,0.99 -0.06,0.48 -0.5,0.83 -0.99,0.77 -0.48,-0.06 -0.82,-0.5 -0.77,-0.99zm-5.56 8.11c0.2,-0.16 0.24,-0.46 0.07,-0.67l-0.43 -0.55 0.62 -0.48 0.42 0.53c0.16,0.21 0.46,0.24 0.66,0.08 0.22,-0.17 0.25,-0.47 0.08,-0.68l-0.41 -0.52 2.03 -1.59c0.48,0.33 1.04,0.55 1.65,0.62 2.07,0.25 3.95,-1.21 4.21,-3.27 0.25,-2.07 -1.21,-3.95 -3.28,-4.21 -2.07,-0.26 -3.95,1.21 -4.21,3.28 -0.08,0.61 0,1.21 0.2,1.75l-3.93 3.07c-0.25,0.2 -0.28,0.53 -0.32,0.83 -0.04,0.29 -0.13,0.63 0.07,0.88 0.2,0.25 1.27,0.27 1.41,0.28l0.46 0.59c0.17,0.21 0.47,0.24 0.68,0.07z"/>
 </g>
</svg>
