<?xml version="1.0" encoding="UTF-8"?>
<!DOCTYPE svg PUBLIC "-//W3C//DTD SVG 1.1//EN" "http://www.w3.org/Graphics/SVG/1.1/DTD/svg11.dtd">
<!-- Creator: CorelDRAW 2020 (64-Bit) -->
<svg xmlns="http://www.w3.org/2000/svg" xml:space="preserve" width="1.839mm" height="1.5458mm" version="1.1" style="shape-rendering:geometricPrecision; text-rendering:geometricPrecision; image-rendering:optimizeQuality; fill-rule:evenodd; clip-rule:evenodd"
viewBox="0 0 109.71 92.22"
 xmlns:xlink="http://www.w3.org/1999/xlink"
 xmlns:xodm="http://www.corel.com/coreldraw/odm/2003">
 <defs>
  <style type="text/css">
   <![CDATA[
    .fil0 {fill:#B2B3B3;fill-rule:nonzero}
   ]]>
  </style>
 </defs>
 <g id="Layer_x0020_1">
  <metadata id="CorelCorpID_0Corel-Layer"/>
  <g id="_11470626416">
   <path class="fil0" d="M38.56 88.78c0,0.49 -0.57,1.06 -1.07,1.06l-28.64 0c-0.5,0 -0.89,-0.57 -0.89,-1.06l0 -5.3 30.6 0 0 5.3zm0 -31.14l0 23.45 -30.6 0 0 -23.45 30.6 0zm-30.6 -7.1c0,-0.49 0.39,-0.85 0.89,-0.85l28.64 0c0.5,0 1.07,0.36 1.07,0.85l0 4.71 -30.6 0 0 -4.71zm32.99 31.43l0 -31.43c0,-1.84 -1.62,-3.23 -3.46,-3.23l-28.64 0c-1.84,0 -3.28,1.4 -3.28,3.23l0 38.24c0,1.84 1.44,3.44 3.28,3.44l28.64 0c1.84,0 3.46,-1.6 3.46,-3.44l0 -6.03c0,-0.08 0,-0.68 0,-0.78z"/>
   <path class="fil0" d="M34.68 77.05c0,0.01 -0.01,0.01 -0.02,0.01l-23 0c-0.02,0 -0.03,0 -0.03,-0.01l0 -13.45c0,0 0.01,0 0.03,0l23 0c0.01,0 0.02,0 0.02,0l0 13.45zm1.18 -13.48c0,-0.64 -0.54,-1.16 -1.21,-1.16l-23 0c-0.67,0 -1.21,0.52 -1.21,1.16l0 13.5c0,0.64 0.54,1.16 1.21,1.16l23 0c0.66,0 1.21,-0.52 1.21,-1.16l0 -13.5z"/>
   <path class="fil0" d="M12.23 76.46l21.86 0 0 -12.27 -21.86 0 0 12.27zm22.43 2.37l-23 0c-1,0 -1.8,-0.78 -1.8,-1.75l0 -13.5c0,-0.97 0.81,-1.75 1.8,-1.75l23 0c0.99,0 1.8,0.79 1.8,1.75l0 13.5c0,0.97 -0.81,1.75 -1.8,1.75z"/>
   <path class="fil0" d="M29.8 53.25c-0.52,0 -0.95,-0.43 -0.95,-0.95 0,-0.52 0.43,-0.95 0.95,-0.95 0.52,0 0.95,0.42 0.95,0.95 0,0.52 -0.43,0.95 -0.95,0.95z"/>
   <path class="fil0" d="M29.8 51.94c-0.2,0 -0.36,0.16 -0.36,0.35 0,0.2 0.16,0.36 0.36,0.36 0.2,0 0.36,-0.16 0.36,-0.36 0,-0.19 -0.16,-0.35 -0.36,-0.35zm0 1.9c-0.85,0 -1.55,-0.69 -1.55,-1.55 0,-0.85 0.69,-1.55 1.55,-1.55 0.85,0 1.55,0.69 1.55,1.55 0,0.86 -0.7,1.55 -1.55,1.55z"/>
   <path class="fil0" d="M34.66 53.25c-0.52,0 -0.95,-0.43 -0.95,-0.95 0,-0.52 0.42,-0.95 0.95,-0.95 0.52,0 0.95,0.42 0.95,0.95 0,0.52 -0.42,0.95 -0.95,0.95z"/>
   <path class="fil0" d="M34.66 51.94c-0.2,0 -0.35,0.16 -0.35,0.35 0,0.2 0.16,0.36 0.35,0.36 0.2,0 0.35,-0.16 0.35,-0.36 0,-0.19 -0.16,-0.35 -0.35,-0.35zm0 1.9c-0.85,0 -1.55,-0.69 -1.55,-1.55 0,-0.85 0.69,-1.55 1.55,-1.55 0.85,0 1.55,0.69 1.55,1.55 0,0.86 -0.69,1.55 -1.55,1.55z"/>
   <path class="fil0" d="M20.49 53.25c-0.52,0 -0.95,-0.43 -0.95,-0.95 0,-0.52 0.43,-0.95 0.95,-0.95 0.52,0 0.95,0.42 0.95,0.95 0,0.52 -0.43,0.95 -0.95,0.95z"/>
   <path class="fil0" d="M20.49 51.94c-0.2,0 -0.36,0.16 -0.36,0.35 0,0.2 0.16,0.36 0.36,0.36 0.2,0 0.36,-0.16 0.36,-0.36 0,-0.19 -0.16,-0.35 -0.36,-0.35zm0 1.9c-0.85,0 -1.55,-0.69 -1.55,-1.55 0,-0.85 0.7,-1.55 1.55,-1.55 0.85,0 1.55,0.69 1.55,1.55 0,0.86 -0.69,1.55 -1.55,1.55z"/>
   <path class="fil0" d="M25.34 53.25c-0.52,0 -0.95,-0.43 -0.95,-0.95 0,-0.52 0.42,-0.95 0.95,-0.95 0.52,0 0.95,0.42 0.95,0.95 0,0.52 -0.43,0.95 -0.95,0.95z"/>
   <path class="fil0" d="M25.34 51.94c-0.2,0 -0.35,0.16 -0.35,0.35 0,0.2 0.16,0.36 0.35,0.36 0.2,0 0.36,-0.16 0.36,-0.36 0,-0.19 -0.16,-0.35 -0.36,-0.35zm0 1.9c-0.85,0 -1.55,-0.69 -1.55,-1.55 0,-0.85 0.69,-1.55 1.55,-1.55 0.85,0 1.55,0.69 1.55,1.55 0,0.86 -0.7,1.55 -1.55,1.55z"/>
   <path class="fil0" d="M18.68 8.75l0 -6.36 7.95 0 0 6.36 -7.95 0zm12.95 11.13c-0.73,0 -1.32,0.67 -1.32,1.4 0,0.73 0.59,0.99 1.32,0.99l11.29 0 0 4.37 -40.54 0 0 -4.37 22.71 0c0.72,0 1.32,-0.26 1.32,-0.99 0,-0.73 -0.6,-1.4 -1.32,-1.4l-16.97 0 6.97 -8.89c2.39,-0.02 5.7,0.01 8.28,0.01 3.04,0 5.08,-0.05 5.98,-0.01l7.17 8.89 -4.89 0zm12.21 0l-4.34 0 -8.41 -10.52c-0.04,-0.05 0.01,-0.07 -0.04,-0.12 -0.34,-0.33 -0.85,-0.38 -2.05,-0.41l0 -7.27c0,-0.73 -0.79,-1.55 -1.52,-1.55l-9.62 0c-0.73,0 -1.58,0.82 -1.58,1.55l0 7.26c-0.79,0.01 -1.58,0.01 -1.59,0.01 -0.41,0.01 -0.72,0.11 -0.97,0.42l-8.56 10.62 -3.65 0c-0.72,0 -1.53,0.76 -1.53,1.49l0 6.54c0,0.73 0.81,1.12 1.53,1.12l42.32 0c0.73,0 1.47,-0.39 1.47,-1.12l0 -6.54c0,-0.73 -0.73,-1.49 -1.47,-1.49z"/>
   <path class="fil0" d="M14.11 23.3c-0.24,0.25 -0.39,0.59 -0.39,0.94 0,0.35 0.14,0.69 0.39,0.93 0.24,0.24 0.58,0.39 0.94,0.39 0.35,0 0.69,-0.14 0.93,-0.39 0.24,-0.24 0.39,-0.58 0.39,-0.93 0,-0.35 -0.14,-0.69 -0.39,-0.94 -0.48,-0.48 -1.38,-0.48 -1.87,0z"/>
   <path class="fil0" d="M31.89 25.56c0.35,0 0.69,-0.14 0.94,-0.38 0.24,-0.25 0.38,-0.58 0.38,-0.94 0,-0.35 -0.14,-0.69 -0.38,-0.94 -0.48,-0.48 -1.39,-0.48 -1.87,0 -0.24,0.25 -0.39,0.58 -0.39,0.94 0,0.35 0.14,0.69 0.39,0.92 0.24,0.25 0.58,0.39 0.93,0.39z"/>
   <path class="fil0" d="M50.88 26.63l56.04 0 0 -23.85 -56.04 0 0 23.85zm57.43 2.79l-58.82 0c-0.77,0 -1.4,-0.63 -1.4,-1.4l0 -26.63c0,-0.76 0.63,-1.39 1.4,-1.39l58.82 0c0.77,0 1.4,0.63 1.4,1.39l0 26.63c0,0.77 -0.63,1.4 -1.4,1.4z"/>
   <path class="fil0" d="M50.88 89.43l56.04 0 0 -39.35 -56.04 0 0 39.35zm57.43 2.79l-58.82 0c-0.77,0 -1.4,-0.63 -1.4,-1.39l0 -42.14c0,-0.77 0.63,-1.39 1.4,-1.39l58.82 0c0.77,0 1.4,0.62 1.4,1.39l0 42.14c0,0.76 -0.63,1.39 -1.4,1.39z"/>
   <path class="fil0" d="M79.3 28.42c-0.77,0 -1.4,-0.63 -1.4,-1.39l0 -25.44c0,-0.77 0.63,-1.4 1.4,-1.4 0.76,0 1.39,0.63 1.39,1.4l0 25.44c0,0.76 -0.63,1.39 -1.39,1.39z"/>
   <path class="fil0" d="M79.3 90.43c-0.77,0 -1.4,-0.63 -1.4,-1.39l0 -38.96c0,-0.76 0.63,-1.39 1.4,-1.39 0.76,0 1.39,0.63 1.39,1.39l0 38.96c0,0.76 -0.63,1.39 -1.39,1.39z"/>
   <path class="fil0" d="M73.74 24.05c-0.77,0 -1.39,-0.63 -1.39,-1.39l0 -4.77c0,-0.76 0.62,-1.39 1.39,-1.39 0.76,0 1.39,0.63 1.39,1.39l0 4.77c0,0.76 -0.63,1.39 -1.39,1.39z"/>
   <path class="fil0" d="M84.47 24.05c-0.77,0 -1.39,-0.63 -1.39,-1.39l0 -4.77c0,-0.76 0.62,-1.39 1.39,-1.39 0.76,0 1.39,0.63 1.39,1.39l0 4.77c0,0.76 -0.63,1.39 -1.39,1.39z"/>
   <path class="fil0" d="M73.74 71.35c-0.77,0 -1.39,-0.63 -1.39,-1.39l0 -9.15c0,-0.76 0.62,-1.39 1.39,-1.39 0.76,0 1.39,0.63 1.39,1.39l0 9.15c0,0.76 -0.63,1.39 -1.39,1.39z"/>
   <path class="fil0" d="M84.47 70.95c-0.77,0 -1.39,-0.62 -1.39,-1.39l0 -8.75c0,-0.76 0.62,-1.39 1.39,-1.39 0.76,0 1.39,0.63 1.39,1.39l0 8.75c0,0.77 -0.63,1.39 -1.39,1.39z"/>
  </g>
 </g>
</svg>
