<?xml version="1.0" encoding="UTF-8"?>
<!DOCTYPE svg PUBLIC "-//W3C//DTD SVG 1.1//EN" "http://www.w3.org/Graphics/SVG/1.1/DTD/svg11.dtd">
<!-- Creator: CorelDRAW 2020 (64-Bit) -->
<svg xmlns="http://www.w3.org/2000/svg" xml:space="preserve" width="20.9285mm" height="4.9348mm" version="1.1" style="shape-rendering:geometricPrecision; text-rendering:geometricPrecision; image-rendering:optimizeQuality; fill-rule:evenodd; clip-rule:evenodd"
viewBox="0 0 408.85 96.4"
 xmlns:xlink="http://www.w3.org/1999/xlink"
 xmlns:xodm="http://www.corel.com/coreldraw/odm/2003">
 <defs>
  <style type="text/css">
   <![CDATA[
    .fil0 {fill:#FEFEFE}
    .fil1 {fill:#E31E24;fill-rule:nonzero}
    .fil2 {fill:#1E3264;fill-rule:nonzero}
   ]]>
  </style>
 </defs>
 <g id="Layer_x0020_1">
  <metadata id="CorelCorpID_0Corel-Layer"/>
  <path class="fil0" d="M214.04 65.72c-0.05,4.16 -0.09,8.33 -0.09,12.5 0,1.44 -1.16,2.62 -2.6,2.64 -5.17,0.08 -10.35,0.36 -15.49,0.89 -0.78,0.08 -1.47,-0.15 -2.05,-0.67 -0.58,-0.53 -0.87,-1.2 -0.86,-1.98 0.03,-3.65 0.06,-7.29 0.09,-10.93 -4.32,0.4 -8.64,0.83 -12.96,1.28 -0.03,3.96 -0.07,7.92 -0.1,11.89 -0.01,1.32 -0.97,2.41 -2.27,2.59 -5.23,0.74 -10.47,1.48 -15.69,2.3 -0.79,0.12 -1.53,-0.09 -2.13,-0.61 -0.61,-0.52 -0.92,-1.22 -0.92,-2.02 0.04,-5.4 0.12,-10.8 0.2,-16.2 0.08,-5.4 0.12,-10.8 0.2,-16.19 0.02,-1.35 1.04,-2.46 2.39,-2.59 0.6,-0.06 1.21,-0.12 1.81,-0.17 2.09,-3.79 3.39,-7.86 4.09,-12.15 0.7,-4.24 0.75,-8.48 0.75,-12.77 0,-3.47 0,-6.94 0,-10.41 0,-3.48 0,-6.97 0,-10.45 0,-1.46 1.19,-2.64 2.64,-2.64 12.14,0 24.28,0 36.42,0 1.46,0 2.64,1.19 2.64,2.64 0,7.57 0,15.13 0,22.7 0,6.68 -0.06,13.35 -0.16,20.03 0.55,-0 1.09,-0.01 1.64,-0.01 0.74,-0 1.38,0.26 1.89,0.78 0.19,0.19 0.35,0.4 0.46,0.62 0.06,-4.4 0.1,-8.8 0.13,-13.21 0.05,-10.3 0.04,-20.61 0.04,-30.91 0,-1.46 1.19,-2.64 2.64,-2.64 5.23,0 10.46,0 15.68,0 1.46,0 2.64,1.19 2.64,2.64 0,5.8 0,11.59 0,17.39 0.05,-0.18 0.1,-0.35 0.15,-0.53 1.68,-5.89 3.48,-11.75 5.22,-17.62 0.34,-1.14 1.34,-1.89 2.53,-1.89 6.11,0 12.22,0 18.33,0 1.45,0 2.64,1.19 2.64,2.64 0,10.21 0.04,20.41 -0.04,30.62 -0.07,10.2 -0.2,20.4 -0.28,30.59 -0.01,1.43 -1.17,2.6 -2.6,2.62 -5.24,0.08 -10.48,0.15 -15.73,0.22 -0.74,0.01 -1.38,-0.25 -1.9,-0.78 -0.52,-0.52 -0.78,-1.16 -0.77,-1.9 0.08,-5.71 0.14,-11.41 0.2,-17.12 -0.08,0.26 -0.16,0.53 -0.24,0.79 -1.75,5.79 -3.61,11.55 -5.42,17.32 -0.35,1.11 -1.32,1.83 -2.48,1.85 -6.1,0.09 -12.2,0.18 -18.3,0.24 -0.74,0.01 -1.38,-0.25 -1.9,-0.77 -0.19,-0.19 -0.35,-0.4 -0.47,-0.62zm94.13 -8.59c-3.07,5.9 -9.19,8.8 -17.46,8.91 -7.93,0.11 -15.85,0.23 -23.78,0.36 -0.74,0.01 -1.37,-0.25 -1.9,-0.76 -0.52,-0.52 -0.79,-1.15 -0.79,-1.89 0.04,-10.18 0.18,-20.37 0.24,-30.55 0.05,-10.18 0.04,-20.36 0.04,-30.54 0,-1.46 1.19,-2.64 2.64,-2.64 8.2,0 16.41,0 24.61,0 11.27,0 17.77,7.52 17.77,18.39 0,5.07 -1.68,10.57 -5.45,13.9 4.4,3.21 6.32,9.06 6.28,14.72 -0,0.39 -0.01,0.77 -0.03,1.15 1.29,-5.3 2.58,-10.61 3.85,-15.92 2.4,-10.07 4.82,-20.14 7.23,-30.21 0.29,-1.2 1.33,-2.03 2.57,-2.03 7.03,0 14.06,0 21.09,0 1.24,0 2.28,0.82 2.57,2.02 2.41,10.01 4.85,20.01 7.23,30.02 2.21,9.29 4.48,18.57 6.73,27.85 0.04,-9.09 0.1,-18.19 0.11,-27.28 0.01,-9.99 0,-19.98 0,-29.98 0,-1.46 1.19,-2.64 2.64,-2.64 5.23,0 10.46,0 15.68,0 1.46,0 2.64,1.19 2.64,2.64 0,3.45 0,6.9 0,10.35 0,2.56 0,5.13 0,7.69 1.73,-0 3.46,-0.01 5.18,-0.01 0,-2.57 0,-5.13 0,-7.7 0,-3.45 0,-6.89 0,-10.34 0,-1.46 1.19,-2.64 2.64,-2.64 5.23,0 10.46,0 15.68,0 1.46,0 2.64,1.19 2.64,2.64 0,9.96 0,19.92 0,29.88 0,9.96 0,19.91 0,29.87 0,1.45 -1.19,2.64 -2.64,2.64 -5.24,0 -10.47,0 -15.71,0.03 -0.73,0 -1.36,-0.25 -1.88,-0.77 -0.52,-0.52 -0.78,-1.14 -0.78,-1.87 0,-3.67 0,-7.35 0,-11.02 0,-2.79 0,-5.58 0,-8.37 -1.73,0 -3.46,0.01 -5.19,0.02 -0.01,2.8 -0.03,5.59 -0.04,8.39 -0.01,3.67 0,7.35 0,11.02 0,1.45 -1.18,2.63 -2.63,2.64 -5.24,0.03 -10.48,0.07 -15.72,0.11 -0.73,0.01 -1.37,-0.25 -1.89,-0.77 -0.2,-0.2 -0.36,-0.41 -0.48,-0.64 -0.08,0.14 -0.16,0.28 -0.27,0.41 -0.51,0.66 -1.23,1.01 -2.06,1.02 -5.51,0.04 -11.01,0.1 -16.51,0.15 -1.26,0.01 -2.33,-0.84 -2.6,-2.07 -0.8,-3.61 -1.56,-7.22 -2.32,-10.84 -2.68,0.02 -5.35,0.04 -8.03,0.06 -0.82,3.65 -1.61,7.29 -2.38,10.95 -0.26,1.23 -1.3,2.08 -2.55,2.1 -5.24,0.07 -10.48,0.14 -15.72,0.21 -0.84,0.01 -1.57,-0.34 -2.1,-0.99 -0.53,-0.66 -0.7,-1.45 -0.5,-2.27 0.44,-1.8 0.88,-3.6 1.31,-5.4zm26.07 -28.72c-0.35,1.57 -0.71,3.14 -1.06,4.71 0.7,-0 1.4,-0.01 2.1,-0.01 -0.35,-1.56 -0.69,-3.13 -1.04,-4.7zm-49.57 -10.77c0,2.15 0,4.3 0,6.45 0.34,-0 0.68,-0 1.02,-0.01 2.33,-0.01 3.26,-1.04 3.26,-3.29 0,-1.97 -0.83,-3.16 -2.89,-3.15 -0.46,0 -0.92,0 -1.39,0zm-0.11 23.73c-0.02,2.38 -0.04,4.76 -0.07,7.14 0.43,-0 0.86,-0.01 1.29,-0.01 2.39,-0.03 3.25,-1.46 3.27,-3.69 0.02,-2.68 -0.95,-3.47 -3.45,-3.44 -0.35,0 -0.7,0.01 -1.05,0.01zm-95.57 4.99c0.06,-4.18 0.13,-8.35 0.16,-12.53 0.03,-4.08 0.01,-8.17 0,-12.25 -0.56,0.02 -1.12,0.03 -1.67,0.04 -0,1.71 -0,3.43 0,5.14 0.02,4.11 -0.22,8.23 -0.86,12.3 -0.41,2.62 -1.05,5.16 -1.94,7.62 1.44,-0.11 2.87,-0.21 4.31,-0.32zm-143.29 43.06c-0.29,0.19 -0.63,0.31 -0.99,0.38 -5.24,0.88 -10.48,1.74 -15.73,2.61 -0.8,0.13 -1.54,-0.08 -2.16,-0.61 -0.61,-0.53 -0.93,-1.23 -0.91,-2.05 0.2,-10.58 0.43,-21.16 0.63,-31.75 0.18,-9.64 0.23,-19.28 0.24,-28.92 -1.65,0.07 -3.3,0.14 -4.95,0.21 -0.01,9.95 -0.07,19.89 -0.23,29.84 -0.18,10.78 -0.47,21.55 -0.67,32.33 -0.02,1.29 -0.95,2.36 -2.23,2.56 -5.22,0.82 -10.44,1.6 -15.67,2.36 -0.8,0.12 -1.52,-0.1 -2.13,-0.63 -0.6,-0.53 -0.91,-1.23 -0.9,-2.03 0.28,-15.18 0.69,-30.36 0.87,-45.54 0.18,-15.18 0.08,-30.35 0.08,-45.53 0,-1.46 1.19,-2.64 2.64,-2.64 13.84,0 27.68,0 41.52,0 1.46,0 2.64,1.19 2.64,2.64 0,14.1 0.08,28.2 -0.08,42.29 -0.08,7.38 -0.22,14.77 -0.37,22.15 1.47,-7.8 2.93,-15.61 4.33,-23.43 2.47,-13.82 4.84,-27.65 7.27,-41.48 0.22,-1.27 1.31,-2.18 2.6,-2.18 7.03,0 14.06,0 21.09,0 1.29,0 2.36,0.9 2.6,2.16 2.39,12.82 4.86,25.62 7.19,38.45 1.28,7.05 2.54,14.1 3.81,21.15 0.13,-7.16 0.25,-14.33 0.31,-21.49 0.12,-12.54 0.08,-25.08 0.08,-37.62 0,-1.46 1.19,-2.64 2.64,-2.64 5.23,0 10.46,0 15.68,0 1.45,0 2.64,1.19 2.64,2.64 0,4.19 0,8.38 0,12.57 0,3.26 0,6.52 0,9.77 1.72,-0.09 3.43,-0.19 5.15,-0.28 0,-3.26 0,-6.52 0,-9.77 0,-4.1 0,-8.2 0,-12.3 0,-1.46 1.19,-2.64 2.64,-2.64 5.23,0 10.46,0 15.68,0 1.46,0 2.64,1.19 2.64,2.64 0,11.46 0.06,22.92 -0.04,34.37 -0.1,11.46 -0.36,22.91 -0.51,34.37 -0.02,1.31 -0.97,2.39 -2.26,2.58 -5.24,0.77 -10.47,1.55 -15.7,2.36 -0.8,0.12 -1.53,-0.09 -2.14,-0.62 -0.61,-0.53 -0.92,-1.23 -0.9,-2.04 0.08,-4.36 0.12,-8.73 0.2,-13.1 0.06,-3.38 0.12,-6.76 0.18,-10.13 -1.71,0.17 -3.42,0.34 -5.14,0.51 -0.07,3.69 -0.17,7.37 -0.23,11.06 -0.08,4.46 -0.12,8.92 -0.16,13.38 -0.01,1.3 -0.94,2.38 -2.22,2.58 -5.25,0.85 -10.5,1.71 -15.75,2.58 -0.37,0.06 -0.72,0.05 -1.06,-0.03 -0.29,0.19 -0.63,0.31 -0.99,0.38 -5.51,0.92 -11.03,1.85 -16.54,2.8 -0.73,0.13 -1.4,-0.03 -1.99,-0.46 -0.6,-0.43 -0.96,-1.02 -1.07,-1.75 -0.7,-4.66 -1.43,-9.32 -2.12,-13.98 -2.61,0.35 -5.21,0.7 -7.82,1.05 -0.94,5.34 -1.83,10.7 -2.74,16.04 -0.19,1.12 -1.03,1.96 -2.15,2.16 -5.24,0.9 -10.48,1.79 -15.73,2.68 -0.37,0.06 -0.73,0.05 -1.07,-0.03zm27.23 -45.57c-0.39,-2.39 -0.77,-4.77 -1.17,-7.16 -0.41,2.47 -0.85,4.93 -1.29,7.39 0.82,-0.08 1.64,-0.15 2.46,-0.23z"/>
  <path class="fil1" d="M390.52 23.32c-3.51,0 -7.03,0.01 -10.47,0.01 0,-3.44 0,-6.9 0,-10.34 0,-3.44 0,-6.9 0,-10.35 -5.25,0 -10.51,0 -15.68,0 0,9.99 0.01,20.01 0,29.98 -0.01,9.97 -0.08,19.98 -0.12,29.96 5.21,-0.04 10.47,-0.08 15.72,-0.11 0,-3.67 -0.01,-7.36 0,-11.03 0.01,-3.66 0.04,-7.34 0.04,-11.02 3.48,-0.01 6.99,-0.02 10.47,-0.03 0,3.67 0,7.35 0,11.02 0,3.67 0,7.35 0,11.02 5.21,-0.03 10.47,-0.03 15.72,-0.03 0,-9.96 0,-19.92 0,-29.87 0,-9.95 0,-19.92 0,-29.88 -5.26,0 -10.51,0 -15.68,0 0,3.45 0,6.9 0,10.34 0,3.44 0,6.9 0,10.34zm-56.17 -6.4c0.71,3.14 1.42,6.29 2.13,9.42 0.71,3.13 1.38,6.26 2.09,9.38 -2.92,0.02 -5.85,0.04 -8.69,0.06 0.67,-3.14 1.43,-6.29 2.09,-9.41 0.67,-3.13 1.42,-6.29 2.13,-9.44 0.08,0 0.16,0 0.24,0zm-10.35 -14.28c-2.41,10.06 -4.83,20.15 -7.23,30.21 -2.41,10.09 -4.9,20.19 -7.35,30.29 5.21,-0.07 10.47,-0.14 15.72,-0.21 0.91,-4.33 1.86,-8.68 2.84,-13.03 4.11,-0.03 8.18,-0.07 12.29,-0.1 0.91,4.32 1.82,8.62 2.77,12.93 5.45,-0.04 10.98,-0.1 16.51,-0.14 -2.41,-9.97 -4.86,-19.95 -7.23,-29.93 -2.37,-9.98 -4.82,-20 -7.23,-30.01 -7.03,0 -14.1,0 -21.09,0zm-42.05 36.09c1.18,-0.01 2.41,-0.01 3.63,-0.02 1.34,-0.01 6.18,-0.05 6.12,6.11 -0.02,2.15 -0.87,6.25 -5.89,6.31 -1.33,0.01 -2.69,0.02 -3.99,0.04 0.04,-4.15 0.08,-8.29 0.12,-12.44zm0.08 -23.74c1.34,0 2.69,-0.01 4.03,-0.01 4.3,-0 5.53,3.28 5.53,5.8 0,1.74 -0.52,5.9 -5.89,5.93 -1.22,0.01 -2.45,0.01 -3.67,0.02 0,-3.92 0,-7.82 0,-11.74zm-14.85 -12.35c0,10.19 0.02,20.39 -0.04,30.56 -0.05,10.18 -0.2,20.36 -0.24,30.55 7.9,-0.12 15.84,-0.25 23.78,-0.36 5.21,-0.07 16.95,-1.11 17.07,-16.4 0.07,-9.5 -5.06,-13.44 -9.16,-14.29 0,-0.11 0,-0.22 0,-0.34 5.14,-1.41 8.33,-7.05 8.33,-13.97 0,-5.62 -2.33,-15.75 -15.13,-15.75 -8.21,0 -16.43,0 -24.61,0zm-50.41 0c0,10.32 0.02,20.62 -0.04,30.92 -0.05,10.29 -0.24,20.61 -0.36,30.9 6.08,-0.07 12.21,-0.16 18.29,-0.25 1.82,-5.77 3.67,-11.53 5.41,-17.29 1.73,-5.74 3.55,-11.51 5.33,-17.26 0.08,0 0.16,0 0.24,0 -0.04,5.74 -0.1,11.47 -0.16,17.19 -0.05,5.73 -0.12,11.46 -0.2,17.19 5.21,-0.07 10.47,-0.14 15.72,-0.22 0.08,-10.19 0.2,-20.4 0.28,-30.59 0.08,-10.19 0.04,-20.4 0.04,-30.6 -6.12,0 -12.21,0 -18.33,0 -1.74,5.86 -3.54,11.73 -5.21,17.59 -1.67,5.85 -3.44,11.75 -5.17,17.62 -0.08,0 -0.16,0 -0.24,0 0.04,-5.85 0.08,-11.73 0.08,-17.59 0,-5.86 0,-11.74 0,-17.62 -5.26,0 -10.47,0 -15.68,0zm-24.98 16.2c0,5 0.04,10 0,14.99 -0.04,4.98 -0.12,9.97 -0.2,14.97 -3.67,0.27 -7.35,0.55 -11.02,0.82 1.78,-3.65 2.85,-7.26 3.44,-10.99 0.59,-3.74 0.85,-7.65 0.83,-11.87 -0.01,-2.57 0,-5.15 0,-7.73 2.29,-0.06 4.62,-0.11 6.95,-0.18zm-20.74 -16.2c0,3.48 0,6.98 0,10.45 0,3.47 0,6.94 0,10.41 0,4.01 -0.02,8.54 -0.79,13.2 -0.77,4.66 -2.25,9.51 -5.09,14.22 -1.07,0.1 -2.13,0.2 -3.16,0.3 -0.08,5.4 -0.12,10.81 -0.2,16.19 -0.08,5.4 -0.16,10.8 -0.2,16.18 5.22,-0.81 10.47,-1.56 15.72,-2.31 0.04,-4.74 0.08,-9.49 0.12,-14.24 6.08,-0.64 12.17,-1.24 18.25,-1.79 -0.04,4.62 -0.08,9.24 -0.12,13.85 5.21,-0.53 10.47,-0.82 15.72,-0.9 0,-5.03 0.06,-10.07 0.12,-15.1 0.06,-5.03 0.12,-10.07 0.2,-15.11 -1.46,0.01 -2.92,0.02 -4.34,0.03 0.12,-7.56 0.2,-15.12 0.2,-22.69 0,-7.55 0,-15.12 0,-22.7 -12.17,0 -24.29,0 -36.42,0z"/>
  <path class="fil2" d="M125.34 27.21c-3.52,0.19 -6.99,0.38 -10.43,0.57 0,-4.17 0,-8.38 0,-12.57 0,-4.17 0,-8.38 0,-12.57 -5.26,0 -10.47,0 -15.68,0 0,12.55 0.04,25.12 -0.08,37.65 -0.12,12.54 -0.4,25.11 -0.59,37.64 5.21,-0.87 10.47,-1.72 15.76,-2.58 0.04,-4.47 0.08,-8.94 0.16,-13.4 0.08,-4.47 0.2,-8.95 0.28,-13.41 3.48,-0.34 6.91,-0.69 10.43,-1.05 -0.08,4.36 -0.16,8.75 -0.24,13.11 -0.08,4.36 -0.12,8.72 -0.2,13.1 5.22,-0.8 10.47,-1.59 15.72,-2.36 0.16,-11.44 0.41,-22.9 0.51,-34.35 0.1,-11.43 0.04,-22.89 0.04,-34.35 -5.25,0 -10.47,0 -15.68,0 0,4.11 0,8.2 0,12.3 0,4.08 0,8.19 0,12.27zm-53.49 -5.61c0.71,4.14 1.42,8.27 2.13,12.36 0.71,4.08 1.34,8.17 2.01,12.23 -2.92,0.28 -5.85,0.56 -8.73,0.82 0.75,-4.25 1.54,-8.52 2.21,-12.74 0.67,-4.22 1.42,-8.46 2.13,-12.66 0.08,0 0.16,0 0.24,-0.01zm-10.35 -18.96c-2.41,13.7 -4.78,27.56 -7.27,41.49 -2.52,14.1 -5.29,28.33 -7.9,42.7 5.21,-0.89 10.51,-1.78 15.72,-2.68 1.03,-6 2.01,-11.99 3.08,-17.96 4.15,-0.56 8.22,-1.1 12.32,-1.65 0.79,5.55 1.66,11.06 2.49,16.55 5.49,-0.95 11.02,-1.88 16.55,-2.8 -2.25,-12.25 -4.43,-24.68 -6.71,-37.2 -2.3,-12.66 -4.78,-25.48 -7.19,-38.44 -7.03,0 -14.1,0 -21.09,0zm-57.91 0c0,15.19 0.1,30.39 -0.08,45.56 -0.18,15.18 -0.59,30.37 -0.87,45.56 5.17,-0.76 10.39,-1.53 15.64,-2.36 0.2,-10.77 0.49,-21.56 0.67,-32.33 0.18,-10.78 0.24,-21.56 0.24,-32.33 3.4,-0.14 6.83,-0.3 10.23,-0.44 0,10.58 -0.04,21.15 -0.24,31.73 -0.2,10.58 -0.43,21.15 -0.63,31.75 5.21,-0.86 10.47,-1.72 15.72,-2.6 0.24,-14.09 0.59,-28.19 0.75,-42.26 0.16,-14.07 0.08,-28.17 0.08,-42.26 -13.86,0 -27.73,0 -41.52,0z"/>
 </g>
</svg>
