<?xml version="1.0" encoding="UTF-8"?>
<!DOCTYPE svg PUBLIC "-//W3C//DTD SVG 1.1//EN" "http://www.w3.org/Graphics/SVG/1.1/DTD/svg11.dtd">
<!-- Creator: CorelDRAW 2020 (64-Bit) -->
<svg xmlns="http://www.w3.org/2000/svg" xml:space="preserve" width="2.1006mm" height="2.1013mm" version="1.1" style="shape-rendering:geometricPrecision; text-rendering:geometricPrecision; image-rendering:optimizeQuality; fill-rule:evenodd; clip-rule:evenodd"
viewBox="0 0 49.28 49.3"
 xmlns:xlink="http://www.w3.org/1999/xlink"
 xmlns:xodm="http://www.corel.com/coreldraw/odm/2003">
 <defs>
  <style type="text/css">
   <![CDATA[
    .fil0 {fill:#E31E24}
    .fil1 {fill:#1E3264;fill-rule:nonzero}
   ]]>
  </style>
 </defs>
 <g id="Layer_x0020_1">
  <metadata id="CorelCorpID_0Corel-Layer"/>
  <path class="fil0" d="M40.45 10.71l0.51 -0.04c0.41,-0.03 0.81,-0.1 1.2,-0.15 0.55,-0.1 1.1,-0.19 1.66,-0.19 0.48,0 1.02,0.08 1.32,0.52 0.54,0.82 -0.35,2.15 -0.79,2.87 -0.21,0.35 -0.42,0.71 -0.61,1.07l-0.23 0.46 0.51 0.11c0.39,0.08 0.8,0.12 1.21,0.16 0.83,0.09 2.46,0.16 2.77,1.1 0.31,0.93 -0.93,1.99 -1.53,2.59 -0.29,0.27 -0.59,0.55 -0.85,0.86l-0.34 0.39 0.47 0.23c0.37,0.18 0.76,0.33 1.15,0.48 0.78,0.3 2.3,0.8 2.38,1.78 0.08,0.98 -1.4,1.68 -2.12,2.08 -0.36,0.2 -0.73,0.4 -1.08,0.63l-0.43 0.3 0.4 0.34c0.31,0.27 0.65,0.5 0.96,0.74 0.69,0.49 2.06,1.37 1.87,2.35 -0.18,0.94 -1.78,1.25 -2.6,1.47 -0.39,0.08 -0.78,0.2 -1.17,0.32l-0.51 0.16 0.29 0.45c0.23,0.34 0.5,0.67 0.76,0.99 0.54,0.66 1.62,1.82 1.18,2.73 -0.37,0.76 -1.53,0.75 -2.26,0.75 -0.21,0 -0.42,-0.01 -0.63,-0.01 -0.2,0 -0.4,0 -0.61,0 -0.2,0 -0.41,-0 -0.61,0.01l-0.54 0.03 0.19 0.5c0.14,0.38 0.29,0.77 0.5,1.17 0.34,0.77 1.04,2.16 0.39,2.93 -0.25,0.28 -0.62,0.36 -0.99,0.36 -0.65,0 -1.33,-0.21 -1.92,-0.41 -0.42,-0.11 -0.84,-0.23 -1.27,-0.31l-0.52 -0.09 0.05 0.52c0.04,0.41 0.1,0.81 0.17,1.22 0.13,0.83 0.47,2.4 -0.35,2.96 -0.18,0.12 -0.41,0.17 -0.62,0.17 -0.69,0 -1.65,-0.61 -2.28,-0.96 -0.33,-0.22 -0.67,-0.44 -1.03,-0.6l-0.46 -0.21 -0.1 0.5c-0.08,0.4 -0.12,0.81 -0.17,1.21 -0.09,0.83 -0.16,2.45 -1.27,2.81 -0.92,0.04 -1.79,-0.94 -2.36,-1.54 -0.31,-0.28 -0.59,-0.58 -0.9,-0.87l-0.4 -0.37 -0.24 0.49c-0.17,0.36 -0.3,0.73 -0.46,1.08 -0.31,0.8 -0.77,2.39 -1.75,2.46l-0.24 0.03c-0.87,-0.02 -1.51,-1.49 -1.87,-2.14 -0.22,-0.36 -0.42,-0.72 -0.65,-1.07l-0.29 -0.46 -0.35 0.42c-0.26,0.31 -0.5,0.65 -0.73,0.98 -0.47,0.65 -1.27,1.87 -2.15,1.87l-0.29 0 -0 -0.04c-0.92,-0.19 -1.16,-1.8 -1.36,-2.57 -0.1,-0.4 -0.18,-0.82 -0.33,-1.21l-0.18 -0.47 -0.42 0.28c-0.34,0.23 -0.66,0.48 -0.98,0.74 -0.58,0.47 -1.51,1.29 -2.28,1.29l-0.12 0 -0.11 -0.05c-1.05,-0.44 -0.99,-1.99 -0.99,-2.96 0.02,-0.4 0.02,-0.81 0,-1.21l-0.03 -0.55 -0.51 0.19c-0.38,0.14 -0.76,0.31 -1.18,0.52 -0.62,0.25 -1.47,0.67 -2.13,0.67 -0.28,0 -0.56,-0.1 -0.77,-0.28 -0.74,-0.63 -0.2,-2.18 0.03,-2.99 0.12,-0.38 0.22,-0.77 0.32,-1.16l0.14 -0.55 -0.57 0.05c-0.41,0.04 -0.82,0.11 -1.25,0.18 -0.55,0.07 -1.09,0.16 -1.64,0.16 -0.47,0 -1,-0.08 -1.29,-0.51 -0.56,-0.83 0.34,-2.16 0.78,-2.89 0.21,-0.35 0.45,-0.7 0.61,-1.08l0.2 -0.46 -0.49 -0.09c-0.4,-0.08 -0.81,-0.13 -1.22,-0.17 -0.84,-0.08 -2.43,-0.15 -2.76,-1.1 -0.32,-0.91 0.94,-1.99 1.51,-2.54 0.29,-0.3 0.6,-0.59 0.87,-0.91l0.37 -0.42 -0.52 -0.21c-0.37,-0.15 -0.72,-0.3 -1.07,-0.46 -0.77,-0.29 -2.38,-0.8 -2.44,-1.77 -0.07,-1 1.39,-1.68 2.12,-2.09 0.35,-0.2 0.72,-0.39 1.06,-0.61l0.44 -0.28 -0.39 -0.35c-0.3,-0.28 -0.64,-0.52 -0.95,-0.76 -0.67,-0.49 -2.05,-1.37 -1.86,-2.34 0.19,-0.97 1.79,-1.28 2.6,-1.48 0.39,-0.1 0.8,-0.18 1.18,-0.33l0.45 -0.17 -0.25 -0.41c-0.22,-0.35 -0.49,-0.68 -0.75,-1 -0.53,-0.65 -1.62,-1.84 -1.19,-2.73 0.37,-0.75 1.54,-0.73 2.26,-0.73 0.21,0 0.41,0 0.62,0 0.2,0 0.41,0 0.61,0 0.2,0 0.4,0 0.6,0l0.55 0 -0.16 -0.52c-0.13,-0.4 -0.29,-0.8 -0.48,-1.2 -0.34,-0.76 -1.07,-2.18 -0.42,-2.92 0.25,-0.28 0.61,-0.37 0.97,-0.37 0.66,0 1.38,0.23 2.01,0.41 0.39,0.11 0.8,0.24 1.2,0.3l0.5 0.08 -0.04 -0.5c-0.03,-0.41 -0.09,-0.82 -0.17,-1.24 -0.12,-0.8 -0.47,-2.39 0.32,-2.91 0.19,-0.13 0.41,-0.19 0.64,-0.19 0.71,0 1.66,0.6 2.26,0.97 0.34,0.21 0.69,0.42 1.05,0.6l0.46 0.23 0.12 -0.5c0.1,-0.41 0.14,-0.83 0.19,-1.25 0.09,-0.82 0.16,-2.45 1.25,-2.79 0.94,-0.04 1.81,0.9 2.4,1.52 0.29,0.3 0.58,0.61 0.9,0.88l0.4 0.35 0.23 -0.48c0.18,-0.37 0.34,-0.76 0.48,-1.18 0.3,-0.76 0.77,-2.27 1.8,-2.34l0.04 0c0.94,0 1.61,1.4 2.02,2.13 0.18,0.36 0.38,0.71 0.6,1.04l0.28 0.44 0.35 -0.38c0.28,-0.3 0.52,-0.65 0.76,-0.98 0.47,-0.64 1.26,-1.87 2.24,-1.86 1.02,0.17 1.35,1.74 1.55,2.57 0.12,0.41 0.19,0.85 0.36,1.24l0.2 0.47 0.41 -0.3c0.32,-0.24 0.64,-0.5 0.95,-0.76 0.59,-0.47 1.51,-1.26 2.51,-1.22 1.02,0.42 0.97,2.02 0.96,2.94 -0,0.4 -0,0.81 0.02,1.21l0.02 0.51 0.49 -0.15c0.38,-0.11 0.76,-0.3 1.12,-0.45 0.63,-0.28 1.52,-0.7 2.2,-0.7 0.24,0 0.52,0.05 0.73,0.22 0.76,0.66 0.24,2.19 0,3.03 -0.12,0.38 -0.23,0.79 -0.3,1.18l-0.09 0.51zm-22.41 -5.48l-0.15 0.79c-0.05,0.28 -0.08,0.57 -0.12,0.84 -0.07,0.67 -0.13,2 -1.01,2.39 -0.73,0.05 -1.51,-0.44 -2.09,-0.8 -0.27,-0.14 -0.54,-0.32 -0.83,-0.44l-0.67 -0.28 0.12 0.72c0.05,0.27 0.07,0.53 0.11,0.79 0.11,0.66 0.38,1.96 -0.17,2.46 -0.2,0.19 -0.48,0.24 -0.74,0.24 -0.56,0 -1.16,-0.19 -1.75,-0.36 -0.26,-0.09 -0.52,-0.17 -0.79,-0.23l-0.74 -0.16 0.28 0.7c0.1,0.26 0.21,0.52 0.31,0.76 0.28,0.61 0.89,1.79 0.47,2.41 -0.34,0.55 -1.28,0.55 -1.87,0.55 -0.17,0 -0.35,0 -0.55,0 -0.29,-0.02 -0.58,-0.02 -0.87,0l-0.73 0.05 0.44 0.59c0.17,0.23 0.34,0.46 0.63,0.74 0.39,0.54 1.18,1.44 0.95,2.17 -0.24,0.67 -1.53,0.93 -2.21,1.1 -0.25,0.04 -0.52,0.13 -0.77,0.19l-0.78 0.2 0.63 0.5c0.22,0.17 0.43,0.33 0.62,0.5 0.55,0.41 1.7,1.12 1.65,1.88 -0.05,0.76 -1.22,1.33 -1.85,1.69 -0.25,0.11 -0.49,0.26 -0.72,0.4l-0.67 0.42 0.73 0.3c0.27,0.11 0.54,0.22 0.82,0.33 0.64,0.24 1.85,0.63 2.01,1.38 0.15,0.72 -0.84,1.58 -1.34,2.06 -0.21,0.19 -0.42,0.39 -0.61,0.6l-0.48 0.53 0.7 0.14c0.29,0.06 0.58,0.08 0.96,0.09 0.67,0.1 1.9,0.17 2.23,0.85 0.32,0.67 -0.42,1.74 -0.75,2.3 -0.14,0.26 -0.3,0.51 -0.43,0.78l-0.33 0.67 0.74 -0.09c0.28,-0.04 0.56,-0.07 0.88,-0.13 0.46,-0.06 0.91,-0.14 1.38,-0.14 0.36,0 0.76,0.05 1.01,0.34 0.5,0.57 0.07,1.77 -0.12,2.4 -0.07,0.29 -0.14,0.55 -0.23,0.84l-0.23 0.77 0.75 -0.28c0.26,-0.1 0.51,-0.2 0.76,-0.29 0.53,-0.24 1.33,-0.63 1.91,-0.63l0.14 0 0.12 0.06c0.85,0.42 0.83,1.66 0.81,2.46 0,0.29 -0.01,0.59 0,0.88l0.03 0.8 0.63 -0.5c0.21,-0.17 0.42,-0.34 0.63,-0.5 0.48,-0.39 1.32,-1.12 2.12,-1.1 0.8,0.25 1.07,1.5 1.24,2.22 0.07,0.27 0.14,0.54 0.23,0.8l0.21 0.65 0.47 -0.49c0.2,-0.21 0.39,-0.45 0.57,-0.75 0.41,-0.54 1.05,-1.53 1.79,-1.53l0.09 0c0.75,0.06 1.25,1.2 1.61,1.83 0.11,0.24 0.27,0.48 0.4,0.71l0.38 0.66 0.33 -0.69c0.12,-0.26 0.23,-0.52 0.34,-0.77 0.24,-0.64 0.61,-1.9 1.46,-2.06 0.74,-0.04 1.51,0.82 2,1.33 0.19,0.21 0.39,0.41 0.61,0.6l0.57 0.5 0.09 -0.75c0.03,-0.27 0.07,-0.55 0.1,-0.8 0.08,-0.69 0.12,-1.99 0.83,-2.34l0.11 -0.06 0.12 -0c0.72,-0.03 1.48,0.46 2.07,0.82 0.25,0.15 0.51,0.3 0.79,0.42l0.66 0.3 -0.1 -0.72c-0.04,-0.28 -0.08,-0.56 -0.14,-0.87 -0.1,-0.67 -0.37,-1.9 0.22,-2.42 0.21,-0.17 0.46,-0.22 0.72,-0.22 0.55,0 1.18,0.2 1.72,0.37 0.25,0.08 0.51,0.13 0.76,0.21l0.75 0.27 -0.23 -0.76c-0.08,-0.27 -0.23,-0.51 -0.32,-0.77 -0.26,-0.62 -0.88,-1.84 -0.46,-2.47 0.35,-0.53 1.28,-0.52 1.86,-0.52 0.18,0 0.37,0 0.55,0 0.29,0 0.61,0.04 0.89,-0l0.67 -0.09 -0.4 -0.54c-0.17,-0.23 -0.35,-0.46 -0.57,-0.7 -0.42,-0.53 -1.26,-1.47 -1.02,-2.18 0.24,-0.72 1.51,-0.97 2.21,-1.14 0.25,-0.04 0.51,-0.14 0.76,-0.2l0.74 -0.18 -0.57 -0.51c-0.22,-0.19 -0.44,-0.38 -0.7,-0.56 -0.54,-0.41 -1.62,-1.08 -1.57,-1.83 0.04,-0.76 1.21,-1.32 1.87,-1.69 0.22,-0.09 0.45,-0.26 0.67,-0.38l0.64 -0.36 -0.66 -0.34c-0.25,-0.13 -0.52,-0.23 -0.77,-0.34 -0.64,-0.25 -1.92,-0.63 -2.06,-1.38 -0.14,-0.73 0.84,-1.59 1.33,-2.07 0.21,-0.19 0.41,-0.39 0.61,-0.6l0.51 -0.55 -0.75 -0.11c-0.27,-0.04 -0.55,-0.07 -0.81,-0.11 -0.67,-0.08 -2.02,-0.13 -2.36,-0.8 -0.34,-0.69 0.39,-1.74 0.74,-2.31 0.15,-0.25 0.3,-0.51 0.43,-0.77l0.31 -0.61 -0.69 0.04c-0.29,0.01 -0.57,0.06 -0.85,0.09 -0.48,0.08 -0.96,0.17 -1.45,0.17 -0.36,0 -0.77,-0.04 -1.02,-0.33 -0.5,-0.56 -0.07,-1.81 0.12,-2.46 0.08,-0.28 0.16,-0.56 0.23,-0.84l0.17 -0.77 -0.72 0.32c-0.25,0.11 -0.51,0.22 -0.76,0.33 -0.53,0.23 -1.3,0.6 -1.87,0.6l-0.14 0 -0.12 -0.06c-0.85,-0.41 -0.83,-1.68 -0.82,-2.48 0,-0.29 0.02,-0.59 -0,-0.88l-0.06 -0.72 -0.57 0.43c-0.23,0.17 -0.45,0.37 -0.68,0.55 -0.49,0.38 -1.29,1.07 -2.07,1.05 -0.82,-0.21 -1.08,-1.48 -1.25,-2.17 -0.07,-0.27 -0.15,-0.54 -0.21,-0.82l-0.17 -0.71 -0.51 0.53c-0.2,0.21 -0.37,0.45 -0.53,0.66 -0.4,0.56 -1.09,1.65 -1.85,1.65l-0.1 -0c-0.73,-0.06 -1.26,-1.22 -1.58,-1.82 -0.12,-0.24 -0.29,-0.47 -0.42,-0.7l-0.38 -0.67 -0.33 0.7c-0.12,0.25 -0.21,0.5 -0.32,0.73 -0.24,0.63 -0.61,1.91 -1.46,2.09 -0.02,0 -0.04,0 -0.14,0.01 -0.67,-0 -1.42,-0.88 -1.87,-1.33 -0.19,-0.19 -0.38,-0.39 -0.57,-0.6l-0.54 -0.59z"/>
  <g id="_11724949136">
   <polygon class="fil1" points="18.78,28.21 17.04,28.21 14.06,23.32 14.06,28.21 12.4,28.21 12.4,21.09 14.56,21.09 17.13,25.17 17.13,21.09 18.78,21.09 "/>
   <polygon class="fil1" points="25.66,22.45 22.38,22.45 22.38,23.69 25.42,23.69 25.42,25.06 22.38,25.06 22.38,26.82 25.66,26.82 25.66,28.21 20.59,28.21 20.59,21.09 25.66,21.09 "/>
   <polygon class="fil1" points="34.99,28.21 32.98,28.21 31.74,23.57 30.5,28.21 28.49,28.21 26.6,21.09 28.49,21.09 29.57,25.99 30.88,21.09 32.68,21.09 33.91,25.99 35.06,21.09 36.88,21.09 "/>
  </g>
 </g>
</svg>
