<?xml version="1.0" encoding="UTF-8"?>
<!DOCTYPE svg PUBLIC "-//W3C//DTD SVG 1.1//EN" "http://www.w3.org/Graphics/SVG/1.1/DTD/svg11.dtd">
<!-- Creator: CorelDRAW 2020 (64-Bit) -->
<svg xmlns="http://www.w3.org/2000/svg" xml:space="preserve" width="2.7105mm" height="2.3568mm" version="1.1" style="shape-rendering:geometricPrecision; text-rendering:geometricPrecision; image-rendering:optimizeQuality; fill-rule:evenodd; clip-rule:evenodd"
viewBox="0 0 338.78 294.57"
 xmlns:xlink="http://www.w3.org/1999/xlink"
 xmlns:xodm="http://www.corel.com/coreldraw/odm/2003">
 <defs>
  <style type="text/css">
   <![CDATA[
    .fil0 {fill:#B2B3B3;fill-rule:nonzero}
   ]]>
  </style>
 </defs>
 <g id="Layer_x0020_1">
  <metadata id="CorelCorpID_0Corel-Layer"/>
  <g id="_2296846720">
   <path class="fil0" d="M122.7 163.83c4.29,18.25 -6.74,36.51 -24.56,40.66 -17.8,4.12 -35.63,-7.42 -39.91,-25.72 -4.25,-18.26 6.71,-36.48 24.54,-40.63 17.82,-4.12 35.65,7.41 39.93,25.7z"/>
   <path class="fil0" d="M151.95 231.89c-4.05,-17.66 -18.95,-29.42 -33.3,-26.06l-38.31 8.89c-14.31,3.32 -22.57,20.41 -18.46,38.08 0,0 46.05,17.79 90.07,-20.91z"/>
   <path class="fil0" d="M289.62 134.35l-104.38 24.2c-5.55,1.3 -11.09,-2.09 -12.41,-7.64 -1.22,-5.57 2.15,-11.11 7.7,-12.41l104.47 -24.26c5.56,-1.27 11.1,2.19 12.36,7.72 1.26,5.57 -2.19,11.09 -7.74,12.39zm-48.43 85.74l-27.56 6.45c-12.19,2.76 -24.34,-4.81 -27.2,-17 -2.77,-12.15 4.76,-24.37 16.97,-27.22l27.55 -6.37c12.15,-2.81 24.35,4.75 27.12,16.99 2.86,12.16 -4.71,24.37 -16.89,27.16zm-91.24 36.16l-69.77 16.24c-13.45,3.09 -26.9,-5.29 -30.08,-18.8l-19.81 -85.7c-3.2,-13.41 5.21,-26.86 18.65,-30.05l69.82 -16.15c13.49,-3.16 26.96,5.19 30.15,18.66l19.82 85.65c3.11,13.55 -5.21,27.06 -18.77,30.15zm-37.63 -169.87l74.77 -17.34c3.97,-0.91 8.22,2.79 9.49,8.34 1.29,5.54 -0.86,10.75 -4.81,11.69l-74.83 17.42c-4.02,0.9 -8.24,-2.85 -9.56,-8.36 -1.26,-5.55 0.9,-10.79 4.95,-11.75zm225.78 118.11l-32.91 -141.89c-3.11,-13.37 -16.56,-21.85 -30.1,-18.72l-255.63 59.39c-13.49,3.11 -21.92,16.56 -18.8,30.05l32.93 141.84c3.12,13.49 16.56,21.9 30.08,18.74l255.69 -59.36c13.55,-3.15 21.91,-16.64 18.72,-30.05z"/>
   <path class="fil0" d="M150.75 44.22c-8.32,0 -15.1,-6.67 -15.1,-14.99 0,-8.3 6.77,-15.06 15.1,-15.06 8.27,0 14.97,6.76 14.97,15.06 0,8.31 -6.7,14.99 -14.97,14.99zm7.77 -44.22l-15.14 0c-13.95,0 -25.24,11.29 -25.24,25.22l5.44 48.41c0,11.69 9.44,21.05 21.1,21.05l12.65 0c11.59,0 21.01,-9.36 21.01,-21.05l5.47 -48.41c0,-13.94 -11.29,-25.22 -25.3,-25.22z"/>
  </g>
 </g>
</svg>
