<?xml version="1.0" encoding="UTF-8"?>
<!DOCTYPE svg PUBLIC "-//W3C//DTD SVG 1.1//EN" "http://www.w3.org/Graphics/SVG/1.1/DTD/svg11.dtd">
<!-- Creator: CorelDRAW 2020 (64-Bit) -->
<svg xmlns="http://www.w3.org/2000/svg" xml:space="preserve" width="1.7609mm" height="1.6998mm" version="1.1" style="shape-rendering:geometricPrecision; text-rendering:geometricPrecision; image-rendering:optimizeQuality; fill-rule:evenodd; clip-rule:evenodd"
viewBox="0 0 4.13 3.99"
 xmlns:xlink="http://www.w3.org/1999/xlink"
 xmlns:xodm="http://www.corel.com/coreldraw/odm/2003">
 <defs>
  <style type="text/css">
   <![CDATA[
    .fil0 {fill:#1E3264}
   ]]>
  </style>
 </defs>
 <g id="Layer_x0020_1">
  <metadata id="CorelCorpID_0Corel-Layer"/>
  <path class="fil0" d="M1.8 3.22c-0.05,-0.05 -0.11,-0.07 -0.18,-0.07 -0.07,0 -0.13,0.03 -0.18,0.07l-0 0c-0.05,0.05 -0.07,0.11 -0.07,0.18 0,0.07 0.03,0.13 0.07,0.18 0.05,0.05 0.11,0.07 0.18,0.07 0.07,0 0.13,-0.03 0.18,-0.07 0.05,-0.05 0.07,-0.11 0.07,-0.18 0,-0.07 -0.03,-0.13 -0.07,-0.18zm1.87 0c-0.05,-0.05 -0.11,-0.07 -0.18,-0.07 -0.07,0 -0.13,0.03 -0.18,0.07l-0 0c-0.05,0.05 -0.07,0.11 -0.07,0.18 0,0.07 0.03,0.13 0.07,0.18 0.05,0.05 0.11,0.07 0.18,0.07 0.07,0 0.13,-0.03 0.18,-0.07 0.05,-0.05 0.07,-0.11 0.07,-0.18 0,-0.07 -0.03,-0.13 -0.07,-0.18l0 0zm-0.53 -0.84l0.32 0 0.1 -0.36 -0.41 0 0 0.36zm-0.67 0l0.43 0 0 -0.36 -0.43 0 0 0.36zm0.43 0.25l-0.43 0 0 0.4 0.43 0 0 -0.4zm0.5 0l-0.25 0 0 0.3c0.06,-0.04 0.12,-0.08 0.19,-0.1l0.06 -0.21 0 0zm-1.62 0l0.06 0.22c0.08,0.03 0.15,0.08 0.21,0.14 0.01,0.01 0.02,0.03 0.04,0.04l0.15 0 0 -0.4 -0.45 0 0 0zm0.54 -2.62l0 0.69 -0.35 0 0.69 0.69 0.69 -0.69 -0.35 0 0 -0.69 -0.69 0 0 0zm-2.31 1l1.33 0 0.04 0.17 0.32 1.21 0.52 0 0 -0.36 -0.41 0 -0.1 -0.45 2.43 0 -0.08 0.28 -0.28 1.03c0.05,0.03 0.09,0.06 0.13,0.1 0.11,0.11 0.17,0.25 0.17,0.42 0,0.16 -0.07,0.31 -0.17,0.42l-0 0c-0.11,0.11 -0.25,0.17 -0.42,0.17 -0.16,0 -0.31,-0.07 -0.42,-0.17 -0.09,-0.09 -0.15,-0.21 -0.17,-0.35l-0.7 0c-0.02,0.14 -0.08,0.26 -0.17,0.35l-0 0c-0.11,0.11 -0.25,0.17 -0.42,0.17 -0.16,0 -0.31,-0.07 -0.42,-0.17 -0.11,-0.11 -0.17,-0.25 -0.17,-0.42 0,-0.16 0.07,-0.31 0.17,-0.42l0 -0 0 -0c0.05,-0.05 0.11,-0.09 0.17,-0.12l-0.38 -1.42 -0.99 0 0 -0.45z"/>
 </g>
</svg>
