<?xml version="1.0" encoding="UTF-8"?>
<!DOCTYPE svg PUBLIC "-//W3C//DTD SVG 1.1//EN" "http://www.w3.org/Graphics/SVG/1.1/DTD/svg11.dtd">
<!-- Creator: CorelDRAW 2020 (64-Bit) -->
<svg xmlns="http://www.w3.org/2000/svg" xml:space="preserve" width="1.3936mm" height="1.9399mm" version="1.1" style="shape-rendering:geometricPrecision; text-rendering:geometricPrecision; image-rendering:optimizeQuality; fill-rule:evenodd; clip-rule:evenodd"
viewBox="0 0 1.44 2"
 xmlns:xlink="http://www.w3.org/1999/xlink"
 xmlns:xodm="http://www.corel.com/coreldraw/odm/2003">
 <defs>
  <style type="text/css">
   <![CDATA[
    .fil0 {fill:#E31E24;fill-rule:nonzero}
    .fil1 {fill:#28459C;fill-rule:nonzero}
   ]]>
  </style>
 </defs>
 <g id="Layer_x0020_1">
  <metadata id="CorelCorpID_0Corel-Layer"/>
  <g id="_2430081488">
   <path class="fil0" d="M0.95 0.71c0,-0.13 -0.1,-0.23 -0.23,-0.23 -0.13,0 -0.23,0.1 -0.23,0.23 0,0.09 0.05,0.16 0.12,0.2l0 -0.15c0,-0.06 0.05,-0.11 0.11,-0.11l0.01 0c0.05,0 0.09,0.04 0.09,0.09l0 0.18c0.08,-0.04 0.13,-0.11 0.13,-0.2z"/>
   <path class="fil1" d="M0.82 0.74c0,-0.05 -0.04,-0.09 -0.09,-0.09l-0.01 0c-0.06,0 -0.11,0.05 -0.11,0.11l-0 0.15 -0.01 0.33c-0,0.01 -0,0.24 -0,0.24 -0.02,-0.02 -0.04,-0.04 -0.06,-0.06 -0.05,-0.05 -0.13,-0.09 -0.19,-0.09 -0.03,-0 -0.05,0 -0.07,0.01 -0,0 -0.01,0.01 -0.01,0.01 -0.03,0.03 -0.05,0.07 -0.03,0.11 0.01,0.01 0.02,0.02 0.04,0.03 0.02,0.01 0.06,0.03 0.08,0.06 0.04,0.06 0.15,0.18 0.21,0.25 0.01,0.01 0.04,0.04 0.05,0.04 0.04,0.03 0.07,0.05 0.08,0.06 0.01,0.01 0.06,0.04 0.06,0.04 0.04,0.03 0.12,0.05 0.21,0.05 0.09,0 0.17,0.01 0.23,-0.05l0 0 0 -0c0.06,-0.06 0.1,-0.13 0.1,-0.22 0,-0.02 0,-0.1 0,-0.11l0 -0.29c0,-0.02 -0,-0.09 -0.06,-0.11 -0.03,-0.01 -0.05,-0.01 -0.07,0l-0 0 -0 0c-0.01,-0.04 -0.03,-0.06 -0.07,-0.07 -0.04,-0.01 -0.07,0.01 -0.09,0.02 -0.02,-0.04 -0.05,-0.06 -0.1,-0.05 -0.04,0 -0.06,0.02 -0.08,0.04l0 -0.43z"/>
   <path class="fil1" d="M1.23 1.09l0.04 0.05c0.01,0.01 0.02,0.01 0.03,-0 0.09,-0.12 0.14,-0.27 0.14,-0.42 0,-0.4 -0.32,-0.72 -0.72,-0.72 -0.03,0 -0.05,0 -0.08,0 -0.33,0.04 -0.6,0.3 -0.63,0.64 -0.02,0.18 0.03,0.36 0.13,0.5 0.01,0.01 0.02,0.01 0.03,0l0.04 -0.05c0.01,-0.01 0.01,-0.02 0,-0.03 -0.07,-0.11 -0.11,-0.23 -0.11,-0.36 0.01,-0.32 0.27,-0.58 0.58,-0.59 0.35,-0.02 0.64,0.26 0.64,0.61 0,0.12 -0.04,0.24 -0.11,0.34 -0.01,0.01 -0,0.02 0,0.03z"/>
   <path class="fil0" d="M1.02 0.86l0.05 0.05c0.01,0.01 0.03,0.01 0.03,-0 0.03,-0.06 0.05,-0.13 0.05,-0.19 0,-0.2 -0.14,-0.38 -0.34,-0.42 -0.06,-0.01 -0.12,-0.01 -0.18,0 -0.2,0.04 -0.34,0.22 -0.34,0.42 0,0.07 0.02,0.13 0.05,0.19 0.01,0.01 0.02,0.02 0.03,0l0.05 -0.05c0.01,-0.01 0.01,-0.01 0,-0.02 -0.02,-0.04 -0.02,-0.08 -0.02,-0.12 0,-0.14 0.09,-0.26 0.21,-0.31 0.07,-0.03 0.15,-0.03 0.22,0 0.13,0.05 0.21,0.17 0.21,0.31 0,0.04 -0.01,0.08 -0.02,0.12 -0,0.01 -0,0.02 0,0.02z"/>
  </g>
 </g>
</svg>
