<?xml version="1.0" encoding="UTF-8"?>
<!DOCTYPE svg PUBLIC "-//W3C//DTD SVG 1.1//EN" "http://www.w3.org/Graphics/SVG/1.1/DTD/svg11.dtd">
<!-- Creator: CorelDRAW 2020 (64-Bit) -->
<svg xmlns="http://www.w3.org/2000/svg" xml:space="preserve" width="1.443mm" height="1.3564mm" version="1.1" style="shape-rendering:geometricPrecision; text-rendering:geometricPrecision; image-rendering:optimizeQuality; fill-rule:evenodd; clip-rule:evenodd"
viewBox="0 0 4.38 4.12"
 xmlns:xlink="http://www.w3.org/1999/xlink"
 xmlns:xodm="http://www.corel.com/coreldraw/odm/2003">
 <defs>
  <style type="text/css">
   <![CDATA[
    .fil0 {fill:#1E3264;fill-rule:nonzero}
   ]]>
  </style>
 </defs>
 <g id="Layer_x0020_1">
  <metadata id="CorelCorpID_0Corel-Layer"/>
  <path class="fil0" d="M3.1 2.57l0.01 0.01c-0,0 -0.01,0.01 -0.01,0.01 -0.14,0.24 -0.32,0.41 -0.53,0.52 -0.22,0.12 -0.47,0.17 -0.73,0.17 -0.32,0 -0.66,-0.08 -0.96,-0.23 -0.3,-0.15 -0.57,-0.35 -0.77,-0.59 -0.02,-0.02 -0.05,-0.03 -0.08,-0.01 -0.03,0.01 -0.04,0.04 -0.03,0.07 0.2,0.57 0.51,0.98 0.87,1.24 0.36,0.26 0.78,0.37 1.19,0.37 0.67,-0 1.34,-0.3 1.8,-0.76 0,-0 0,-0 0,-0 0,-0 0.01,-0.01 0.01,-0.01l0.01 0.01 0.27 0.27c0.02,0.02 0.04,0.02 0.06,0.01 0.02,-0.01 0.04,-0.03 0.04,-0.05l0.12 -1.47c0,-0.02 -0.01,-0.04 -0.02,-0.05 -0.01,-0.01 -0.03,-0.02 -0.05,-0.02l-1.47 0.12c-0.02,0 -0.04,0.02 -0.05,0.04 -0.01,0.02 -0,0.05 0.01,0.06l0.28 0.28 0.01 0.01zm-1.81 -1.01l-0.01 -0.01c0,-0 0.01,-0.01 0.01,-0.01 0.14,-0.24 0.32,-0.41 0.53,-0.52 0.22,-0.12 0.47,-0.17 0.73,-0.17 0.32,0 0.66,0.08 0.96,0.23 0.3,0.15 0.57,0.35 0.77,0.59 0.02,0.02 0.05,0.03 0.08,0.01 0.03,-0.01 0.04,-0.04 0.03,-0.07 -0.2,-0.57 -0.51,-0.98 -0.87,-1.24 -0.36,-0.26 -0.78,-0.37 -1.19,-0.37 -0.67,0 -1.34,0.3 -1.8,0.76 -0,0 -0,0 -0,0 -0,0 -0.01,0.01 -0.01,0.01l-0.01 -0.01 -0.27 -0.27c-0.02,-0.02 -0.04,-0.02 -0.06,-0.01 -0.02,0.01 -0.04,0.03 -0.04,0.05l-0.12 1.47c-0,0.02 0.01,0.04 0.02,0.05 0.01,0.01 0.03,0.02 0.05,0.02l1.47 -0.12c0.02,-0 0.04,-0.02 0.05,-0.04 0.01,-0.02 0,-0.05 -0.01,-0.06l-0.28 -0.28 -0.01 -0.01z"/>
 </g>
</svg>
