<?xml version="1.0" encoding="UTF-8"?>
<!DOCTYPE svg PUBLIC "-//W3C//DTD SVG 1.1//EN" "http://www.w3.org/Graphics/SVG/1.1/DTD/svg11.dtd">
<!-- Creator: CorelDRAW 2020 (64-Bit) -->
<svg xmlns="http://www.w3.org/2000/svg" xml:space="preserve" width="1.7484mm" height="1.4553mm" version="1.1" style="shape-rendering:geometricPrecision; text-rendering:geometricPrecision; image-rendering:optimizeQuality; fill-rule:evenodd; clip-rule:evenodd"
viewBox="0 0 2.77 2.31"
 xmlns:xlink="http://www.w3.org/1999/xlink"
 xmlns:xodm="http://www.corel.com/coreldraw/odm/2003">
 <defs>
  <style type="text/css">
   <![CDATA[
    .fil0 {fill:#1E3264;fill-rule:nonzero}
   ]]>
  </style>
 </defs>
 <g id="Layer_x0020_1">
  <metadata id="CorelCorpID_0Corel-Layer"/>
  <path class="fil0" d="M-0 1.05l0 0.06c0.47,0.15 0.72,0.24 0.75,0.27 0.14,0.49 0.22,0.75 0.26,0.78 0.04,0 0.06,0.01 0.06,0.02 0.03,0 0.17,-0.12 0.4,-0.35l0.03 0 0.65 0.48 0.11 0c0.05,0 0.18,-0.51 0.37,-1.53 0.06,-0.25 0.11,-0.47 0.14,-0.67l0 -0.02c-0.04,-0.06 -0.06,-0.09 -0.08,-0.09 -0.08,0 -0.41,0.12 -0.99,0.35 -0.87,0.33 -1.43,0.55 -1.67,0.65l-0.03 0.05z"/>
 </g>
</svg>
