<?xml version="1.0" encoding="UTF-8"?>
<!DOCTYPE svg PUBLIC "-//W3C//DTD SVG 1.1//EN" "http://www.w3.org/Graphics/SVG/1.1/DTD/svg11.dtd">
<!-- Creator: CorelDRAW 2020 (64-Bit) -->
<svg xmlns="http://www.w3.org/2000/svg" xml:space="preserve" width="2.5714mm" height="1.6224mm" version="1.1" style="shape-rendering:geometricPrecision; text-rendering:geometricPrecision; image-rendering:optimizeQuality; fill-rule:evenodd; clip-rule:evenodd"
viewBox="0 0 4.86 3.07"
 xmlns:xlink="http://www.w3.org/1999/xlink"
 xmlns:xodm="http://www.corel.com/coreldraw/odm/2003">
 <defs>
  <style type="text/css">
   <![CDATA[
    .fil0 {fill:#E31E24;fill-rule:nonzero}
    .fil1 {fill:#28459C;fill-rule:nonzero}
   ]]>
  </style>
 </defs>
 <g id="Layer_x0020_1">
  <metadata id="CorelCorpID_0Corel-Layer"/>
  <g id="_5993065376">
   <path class="fil0" d="M2.84 0.43c0,-0.24 0.19,-0.43 0.43,-0.43 0.17,0 0.32,0.1 0.39,0.25 0.07,-0.15 0.22,-0.25 0.39,-0.25 0.24,0 0.43,0.19 0.43,0.43 0,0.05 -0.01,0.1 -0.02,0.14 -0.02,0.05 -0.04,0.1 -0.08,0.14 -0.01,0.02 -0.03,0.03 -0.05,0.05l-0.65 0.65c-0,0 -0.01,0.01 -0.01,0.01 -0.01,0 -0.01,-0 -0.01,-0.01l-0.68 -0.67 0 -0c-0.04,-0.04 -0.08,-0.1 -0.1,-0.16 -0.02,-0.05 -0.03,-0.09 -0.03,-0.14z"/>
   <path class="fil1" d="M0 1.5l-0 -0c0.35,0 0.57,-0.21 0.82,-0.39 0.19,-0.13 0.4,-0.24 0.7,-0.24 0.14,0 0.25,0 0.35,0l0.71 0c0.1,0 0.19,0.08 0.19,0.19 0,0.1 -0.08,0.19 -0.19,0.19l-0.67 0c-0.14,0.02 -0.24,0.14 -0.24,0.28 0,0.11 0.06,0.2 0.15,0.25 0.02,0.01 0.12,0.03 0.26,0.07 0.09,0.02 0.17,0.04 0.25,0.07l0.02 0c0.29,0.08 0.61,0.16 0.67,0.17 0.04,0 0.07,0 0.1,-0.01l1.06 -0.68 0.19 -0.14 0 0c0.01,-0.01 0.02,-0.01 0.03,-0.02 0.01,-0.01 0.03,-0.01 0.04,-0.02 0.01,-0 0.02,-0.01 0.04,-0.01 0.01,-0 0.03,-0 0.04,-0 0.02,0 0.04,0 0.06,0.01 0.16,0.01 0.28,0.14 0.28,0.3 0,0.08 -0.04,0.16 -0.09,0.21l0 0 -0 0c-0.02,0.02 -0.05,0.04 -0.07,0.05l-0.07 0.05 -1.65 1.2 0 -0c-0.01,0 -0.01,0.01 -0.02,0.01 -0.04,0.01 -0.08,0.02 -0.12,0.02 -0.02,0 -0.05,-0 -0.07,-0.01l-0.01 -0c-0.56,-0.14 -1.72,-0.44 -2.26,-0.57 -0.01,-0.01 -0.03,-0.01 -0.04,-0.01 -0.14,-0.03 -0.33,-0.08 -0.45,-0.08l0 -0.08 -0 0 0 -0.11 0 -0.71z"/>
  </g>
 </g>
</svg>
