<?xml version="1.0" encoding="UTF-8"?>
<!DOCTYPE svg PUBLIC "-//W3C//DTD SVG 1.1//EN" "http://www.w3.org/Graphics/SVG/1.1/DTD/svg11.dtd">
<!-- Creator: CorelDRAW 2020 (64-Bit) -->
<svg xmlns="http://www.w3.org/2000/svg" xml:space="preserve" width="1.8866mm" height="1.7178mm" version="1.1" style="shape-rendering:geometricPrecision; text-rendering:geometricPrecision; image-rendering:optimizeQuality; fill-rule:evenodd; clip-rule:evenodd"
viewBox="0 0 3.09 2.81"
 xmlns:xlink="http://www.w3.org/1999/xlink"
 xmlns:xodm="http://www.corel.com/coreldraw/odm/2003">
 <defs>
  <style type="text/css">
   <![CDATA[
    .fil0 {fill:#B2B3B3}
   ]]>
  </style>
 </defs>
 <g id="Layer_x0020_1">
  <metadata id="CorelCorpID_0Corel-Layer"/>
  <path class="fil0" d="M0.16 2.77c0.16,-0.22 0.36,-0.4 0.6,-0.53 0.24,-0.12 0.51,-0.19 0.78,-0.19 0.27,0 0.54,0.07 0.78,0.19 0.24,0.12 0.45,0.31 0.6,0.53 0.03,0.04 0.09,0.05 0.13,0.02 0.04,-0.03 0.05,-0.09 0.02,-0.13 -0.17,-0.25 -0.4,-0.45 -0.67,-0.58 -0.27,-0.14 -0.56,-0.21 -0.86,-0.21 -0.3,0 -0.6,0.07 -0.86,0.21 -0.27,0.14 -0.49,0.34 -0.67,0.58 -0.03,0.04 -0.02,0.1 0.02,0.13 0.04,0.03 0.1,0.02 0.13,-0.02zm1.4 -2.77c-0.2,0 -0.39,0.08 -0.53,0.22 -0.14,0.14 -0.22,0.33 -0.22,0.53 0,0.2 0.08,0.39 0.22,0.53 0.14,0.14 0.33,0.22 0.53,0.22 0.2,0 0.39,-0.08 0.53,-0.22 0.14,-0.14 0.22,-0.33 0.22,-0.53 0,-0.2 -0.08,-0.39 -0.22,-0.53 -0.14,-0.14 -0.33,-0.22 -0.53,-0.22zm0.4 0.35c0.11,0.11 0.17,0.25 0.17,0.4 0,0.15 -0.06,0.3 -0.17,0.4 -0.11,0.11 -0.25,0.17 -0.4,0.17 -0.15,0 -0.3,-0.06 -0.4,-0.17 -0.11,-0.11 -0.17,-0.25 -0.17,-0.4 0,-0.15 0.06,-0.3 0.17,-0.4 0.11,-0.11 0.25,-0.17 0.4,-0.17 0.15,0 0.3,0.06 0.4,0.17z"/>
 </g>
</svg>
