<?xml version="1.0" encoding="UTF-8"?>
<!DOCTYPE svg PUBLIC "-//W3C//DTD SVG 1.1//EN" "http://www.w3.org/Graphics/SVG/1.1/DTD/svg11.dtd">
<!-- Creator: CorelDRAW 2020 (64-Bit) -->
<svg xmlns="http://www.w3.org/2000/svg" xml:space="preserve" width="2.4335mm" height="2.0971mm" version="1.1" style="shape-rendering:geometricPrecision; text-rendering:geometricPrecision; image-rendering:optimizeQuality; fill-rule:evenodd; clip-rule:evenodd"
viewBox="0 0 106.76 92"
 xmlns:xlink="http://www.w3.org/1999/xlink"
 xmlns:xodm="http://www.corel.com/coreldraw/odm/2003">
 <defs>
  <style type="text/css">
   <![CDATA[
    .fil1 {fill:#E31E24;fill-rule:nonzero}
    .fil0 {fill:#1E3264;fill-rule:nonzero}
   ]]>
  </style>
 </defs>
 <g id="Layer_x0020_1">
  <metadata id="CorelCorpID_0Corel-Layer"/>
  <path class="fil0" d="M92.39 60.75l-11.21 5.83 -11.98 6.32c0,0 -16.86,-1.68 -22.17,-3.41 -1.63,-0.56 -3.82,-2 -4.38,-5.16 -0.15,-0.56 0,0 -0.31,-2.27 -0.27,-2.26 3.35,-1.26 3.35,-1.26l19.77 3.63c0.08,0 0.13,0 0.19,-0.02 1.57,0.18 3.1,-0.21 4.22,-1.1 0.65,-0.43 1.1,-0.91 1.32,-1.49 0.27,-0.46 0.48,-0.96 0.62,-1.5 0.59,-2.77 -1.31,-5.47 -4.27,-5.99l-8.02 -1.52 -23.92 -4.58c-4.18,-1.18 -8.67,1.66 -8.67,1.66l-26.93 14.1 14.67 28.01 8.93 -4.64c3.11,-1.64 7.9,-1.24 7.9,-1.24l20.64 3.29c11.18,1.51 14.45,0.04 14.45,0.04l32.01 -16.78c3.39,-1.82 4.76,-5.93 3.05,-9.23 -1.78,-3.29 -5.86,-4.48 -9.26,-2.68z"/>
  <path class="fil1" d="M36.57 43.44l0 -33.65c0,-1.79 1.87,-3.3 4.16,-3.3l0 0 19.16 0.01 0 12.27 17.03 0.01 0.01 -12.27 19.19 0.01c2.23,0 4.15,1.51 4.15,3.3l0 10.75 -0.03 29.35 0 6.02c2.41,1.04 4.43,2.86 5.67,5.24 0.25,0.45 0.47,0.88 0.6,1.35 0.13,-0.61 0.2,-1.22 0.2,-1.85l0.01 -10.76 0.04 -29.35 0 -10.72c0,-5.4 -4.79,-9.8 -10.63,-9.81l-19.18 -0.01 0 -0.02 -17.05 0 0 0.01 -19.16 -0.01 0 0c-5.87,0 -10.66,4.41 -10.66,9.77l0 33.7c1.04,-0.22 2.18,-0.39 3.39,-0.39 1.04,0 2.07,0.13 3.11,0.35z"/>
 </g>
</svg>
