<?xml version="1.0" encoding="UTF-8"?>
<!DOCTYPE svg PUBLIC "-//W3C//DTD SVG 1.1//EN" "http://www.w3.org/Graphics/SVG/1.1/DTD/svg11.dtd">
<!-- Creator: CorelDRAW 2020 (64-Bit) -->
<svg xmlns="http://www.w3.org/2000/svg" xml:space="preserve" width="1.6351mm" height="1.6576mm" version="1.1" style="shape-rendering:geometricPrecision; text-rendering:geometricPrecision; image-rendering:optimizeQuality; fill-rule:evenodd; clip-rule:evenodd"
viewBox="0 0 2.88 2.92"
 xmlns:xlink="http://www.w3.org/1999/xlink"
 xmlns:xodm="http://www.corel.com/coreldraw/odm/2003">
 <defs>
  <style type="text/css">
   <![CDATA[
    .fil0 {fill:#898989;fill-rule:nonzero}
   ]]>
  </style>
 </defs>
 <g id="Layer_x0020_1">
  <metadata id="CorelCorpID_0Corel-Layer"/>
  <path class="fil0" d="M0.19 1.97l0.89 0 0 -1.9 -1.04 0c-0.02,0 -0.04,-0.02 -0.04,-0.04 0,-0.02 0.02,-0.04 0.04,-0.04l1.07 0 0.34 0 0.21 0 0.34 0 0.21 0 0.34 0 0.28 0c0.02,0 0.04,0.02 0.04,0.04 0,0.02 -0.02,0.04 -0.04,0.04l-0.24 0 0 1.9 0.09 0c0.03,0 0.05,0.01 0.07,0.03 0.02,0.02 0.03,0.05 0.03,0.07l0 0.58c0,0.03 -0.01,0.05 -0.03,0.07l-0 0c-0.02,0.02 -0.04,0.03 -0.07,0.03l0 0.12c0,0.02 -0.02,0.04 -0.04,0.04 -0.02,0 -0.04,-0.02 -0.04,-0.04l0 -0.12 -2.36 0 0 0.12c0,0.02 -0.02,0.04 -0.04,0.04 -0.02,0 -0.04,-0.02 -0.04,-0.04l0 -0.12c-0.03,-0 -0.05,-0.01 -0.07,-0.03 -0.02,-0.02 -0.03,-0.04 -0.03,-0.07l0 -0.58c0,-0.03 0.01,-0.05 0.03,-0.07 0.02,-0.02 0.04,-0.03 0.07,-0.03zm1.77 0.28c-0.02,0 -0.04,-0.02 -0.04,-0.04 0,-0.02 0.02,-0.04 0.04,-0.04l0.29 0c0.02,0 0.04,0.02 0.04,0.04 0,0.02 -0.02,0.04 -0.04,0.04l-0.29 0zm-1.32 0c-0.02,0 -0.04,-0.02 -0.04,-0.04 0,-0.02 0.02,-0.04 0.04,-0.04l0.29 0c0.02,0 0.04,0.02 0.04,0.04 0,0.02 -0.02,0.04 -0.04,0.04l-0.29 0zm1.72 -1.99c0,-0.02 0.02,-0.04 0.04,-0.04 0.02,0 0.04,0.02 0.04,0.04l0 0.22c0,0.02 -0.02,0.04 -0.04,0.04 -0.02,0 -0.04,-0.02 -0.04,-0.04l0 -0.22zm-0.56 0c0,-0.02 0.02,-0.04 0.04,-0.04 0.02,0 0.04,0.02 0.04,0.04l0 0.22c0,0.02 -0.02,0.04 -0.04,0.04 -0.02,0 -0.04,-0.02 -0.04,-0.04l0 -0.22zm-0.55 0c0,-0.02 0.02,-0.04 0.04,-0.04 0.02,0 0.04,0.02 0.04,0.04l0 0.22c0,0.02 -0.02,0.04 -0.04,0.04 -0.02,0 -0.04,-0.02 -0.04,-0.04l0 -0.22zm1.28 -0.19l-0.27 0 0 1.9 0.27 0 0 -1.9zm-0.34 0l-0.14 0 0 1.9 0.14 0 0 -1.9zm-0.21 0l-0.27 0 0 1.9 0.27 0 0 -1.9zm-0.34 0l-0.14 0 0 1.9 0.14 0 0 -1.9zm-0.21 0l-0.27 0 0 1.9 0.27 0 0 -1.9zm-1.03 0.13l0.38 0c0.04,0 0.08,0.02 0.11,0.05 0.03,0.03 0.05,0.07 0.05,0.11l0 1.3c0,0.04 -0.02,0.08 -0.05,0.11 -0.03,0.03 -0.07,0.05 -0.11,0.05l-0.38 0c-0.04,0 -0.08,-0.02 -0.11,-0.05 -0.03,-0.03 -0.05,-0.07 -0.05,-0.11l0 -1.3c0,-0.04 0.02,-0.08 0.05,-0.11 0.03,-0.03 0.07,-0.05 0.11,-0.05zm0.38 0.07l-0.38 0c-0.02,0 -0.04,0.01 -0.06,0.02 -0.01,0.01 -0.02,0.04 -0.02,0.06l0 1.3c0,0.02 0.01,0.04 0.02,0.06 0.01,0.01 0.04,0.02 0.06,0.02l0.38 0c0.02,0 0.04,-0.01 0.06,-0.02 0.01,-0.01 0.02,-0.04 0.02,-0.06l0 -1.3c0,-0.02 -0.01,-0.04 -0.02,-0.06 -0.01,-0.01 -0.04,-0.02 -0.06,-0.02zm0.64 2.42l0 -0.65 -1.22 0c-0.01,0 -0.02,0 -0.02,0.01 -0.01,0.01 -0.01,0.01 -0.01,0.02l0 0.58c0,0.01 0,0.02 0.01,0.02 0.01,0.01 0.01,0.01 0.02,0.01l1.22 0zm0.07 -0.65l0 0.65 1.22 0c0.01,0 0.01,-0 0.02,-0.01l0 -0c0.01,-0.01 0.01,-0.01 0.01,-0.02l0 -0.58c0,-0.01 -0,-0.02 -0.01,-0.02 -0.01,-0.01 -0.01,-0.01 -0.02,-0.01l-1.22 0z"/>
 </g>
</svg>
