<?xml version="1.0" encoding="UTF-8"?>
<!DOCTYPE svg PUBLIC "-//W3C//DTD SVG 1.1//EN" "http://www.w3.org/Graphics/SVG/1.1/DTD/svg11.dtd">
<!-- Creator: CorelDRAW 2020 (64-Bit) -->
<svg xmlns="http://www.w3.org/2000/svg" xml:space="preserve" width="1.7245mm" height="1.6403mm" version="1.1" style="shape-rendering:geometricPrecision; text-rendering:geometricPrecision; image-rendering:optimizeQuality; fill-rule:evenodd; clip-rule:evenodd"
viewBox="0 0 2.22 2.11"
 xmlns:xlink="http://www.w3.org/1999/xlink"
 xmlns:xodm="http://www.corel.com/coreldraw/odm/2003">
 <defs>
  <style type="text/css">
   <![CDATA[
    .fil1 {fill:#E31E24}
    .fil0 {fill:#1E3264}
   ]]>
  </style>
 </defs>
 <g id="Layer_x0020_1">
  <metadata id="CorelCorpID_0Corel-Layer"/>
  <path class="fil0" d="M2 0.87l-0.58 -0.08c-0.02,-0 -0.04,-0.02 -0.05,-0.04l-0.26 -0.52 -0.25 0.53c-0.01,0.02 -0.03,0.04 -0.05,0.04l-0.58 0.09 0.42 0.4c0.02,0.02 0.02,0.04 0.02,0.06l-0.09 0.57 0.39 -0.21c0.03,-0.02 0.08,-0.01 0.09,0.03 0.02,0.03 0.01,0.08 -0.03,0.09l-0.51 0.27c-0.01,0.01 -0.03,0.01 -0.04,0.01 -0.04,-0.01 -0.06,-0.04 -0.06,-0.08l0.11 -0.67 -0.49 -0.47c-0.01,-0.01 -0.02,-0.03 -0.02,-0.04 -0.01,-0.04 0.02,-0.07 0.06,-0.08l0.68 -0.1 0.3 -0.62c0.01,-0.01 0.02,-0.02 0.03,-0.03 0.03,-0.02 0.08,-0 0.09,0.03l0.31 0.62 0.68 0.09c0.01,0 0.03,0.01 0.04,0.02 0.03,0.03 0.03,0.07 0,0.1l-0.19 0.19c-0.03,0.03 -0.07,0.03 -0.1,0 -0.03,-0.03 -0.03,-0.07 -0,-0.1l0.09 -0.1z"/>
  <path class="fil1" d="M1.5 1.22c0.04,-0.05 0.09,-0.08 0.15,-0.09 0.09,-0.02 0.19,0.02 0.25,0.09 0.09,0.1 0.05,0.28 -0.02,0.37 -0.05,0.06 -0.31,0.36 -0.38,0.39l0 0 -0 -0 -0 0 0 -0c-0.08,-0.03 -0.34,-0.33 -0.38,-0.39 -0.07,-0.08 -0.11,-0.26 -0.02,-0.37 0.06,-0.07 0.16,-0.11 0.25,-0.09 0.06,0.01 0.11,0.04 0.15,0.09z"/>
 </g>
</svg>
