<?xml version="1.0" encoding="UTF-8"?>
<!DOCTYPE svg PUBLIC "-//W3C//DTD SVG 1.1//EN" "http://www.w3.org/Graphics/SVG/1.1/DTD/svg11.dtd">
<!-- Creator: CorelDRAW 2020 (64-Bit) -->
<svg xmlns="http://www.w3.org/2000/svg" xml:space="preserve" width="2.2122mm" height="1.5389mm" version="1.1" style="shape-rendering:geometricPrecision; text-rendering:geometricPrecision; image-rendering:optimizeQuality; fill-rule:evenodd; clip-rule:evenodd"
viewBox="0 0 4.82 3.35"
 xmlns:xlink="http://www.w3.org/1999/xlink"
 xmlns:xodm="http://www.corel.com/coreldraw/odm/2003">
 <defs>
  <style type="text/css">
   <![CDATA[
    .fil0 {fill:#1E3264;fill-rule:nonzero}
   ]]>
  </style>
 </defs>
 <g id="Layer_x0020_1">
  <metadata id="CorelCorpID_0Corel-Layer"/>
  <path class="fil0" d="M2.25 0c-1.37,0 -2.06,0.11 -2.06,0.32 -0.1,0.06 -0.17,0.5 -0.19,1.32l0 0.02c0,0.92 0.11,1.45 0.34,1.57 0.18,0.08 0.58,0.12 1.22,0.12l2.21 0c0.51,0 0.81,-0.11 0.91,-0.34 0.1,-0.24 0.14,-0.64 0.14,-1.18l0 -0.34c0,-0.77 -0.1,-1.21 -0.29,-1.35 -0.15,-0.1 -0.91,-0.15 -2.28,-0.15zm-0.32 1l0.02 0c0.77,0.4 1.17,0.62 1.2,0.66l-1.15 0.64 -0.08 0 0 -1.3z"/>
 </g>
</svg>
