<?xml version="1.0" encoding="UTF-8"?>
<!DOCTYPE svg PUBLIC "-//W3C//DTD SVG 1.1//EN" "http://www.w3.org/Graphics/SVG/1.1/DTD/svg11.dtd">
<!-- Creator: CorelDRAW 2020 (64-Bit) -->
<svg xmlns="http://www.w3.org/2000/svg" xml:space="preserve" width="1.8523mm" height="1.9472mm" version="1.1" style="shape-rendering:geometricPrecision; text-rendering:geometricPrecision; image-rendering:optimizeQuality; fill-rule:evenodd; clip-rule:evenodd"
viewBox="0 0 4.43 4.66"
 xmlns:xlink="http://www.w3.org/1999/xlink"
 xmlns:xodm="http://www.corel.com/coreldraw/odm/2003">
 <defs>
  <style type="text/css">
   <![CDATA[
    .fil1 {fill:#E31E24;fill-rule:nonzero}
    .fil0 {fill:#1E3264;fill-rule:nonzero}
   ]]>
  </style>
 </defs>
 <g id="Layer_x0020_1">
  <metadata id="CorelCorpID_0Corel-Layer"/>
  <g id="_5972244096">
   <g>
    <path class="fil0" d="M2.08 4.17c-1.15,0 -2.08,-0.93 -2.08,-2.08 0,-1.15 0.93,-2.08 2.08,-2.08 1.15,0 2.08,0.94 2.08,2.08 0,0.1 -0.01,0.2 -0.02,0.29l-0.21 -0.03c0.01,-0.09 0.02,-0.18 0.02,-0.26 0,-1.03 -0.84,-1.87 -1.87,-1.87 -1.03,0 -1.87,0.84 -1.87,1.87 0,1.03 0.84,1.87 1.87,1.87 0.11,0 0.21,-0.01 0.32,-0.03l0.04 0.21c-0.12,0.02 -0.24,0.03 -0.35,0.03z"/>
   </g>
   <polygon class="fil0" points="3.96,2.76 3.96,3.64 4.43,3.64 3.66,4.66 2.89,3.64 3.36,3.64 3.36,2.76 "/>
   <g>
    <g>
     <polygon class="fil1" points="1.35,2.97 1.2,2.82 2.82,1.2 2.97,1.35 "/>
    </g>
    <g>
     <path class="fil1" d="M1.58 1.99c-0.11,0 -0.21,-0.04 -0.29,-0.12 -0.08,-0.08 -0.12,-0.18 -0.12,-0.29 0,-0.11 0.04,-0.21 0.12,-0.29 0.08,-0.08 0.18,-0.12 0.29,-0.12 0.11,0 0.21,0.04 0.29,0.12 0.08,0.08 0.12,0.18 0.12,0.29 0,0.11 -0.04,0.21 -0.12,0.29l0 0c-0.08,0.08 -0.19,0.12 -0.29,0.12zm0 -0.61l0 0c-0.05,0 -0.1,0.02 -0.14,0.06 -0.04,0.04 -0.06,0.09 -0.06,0.14 0,0.05 0.02,0.1 0.06,0.14 0.08,0.08 0.2,0.08 0.28,0 0.04,-0.04 0.06,-0.09 0.06,-0.14 0,-0.05 -0.02,-0.1 -0.06,-0.14 -0.04,-0.04 -0.09,-0.06 -0.14,-0.06z"/>
    </g>
    <g>
     <path class="fil1" d="M2.59 3c-0.11,0 -0.21,-0.04 -0.29,-0.12 -0.08,-0.08 -0.12,-0.18 -0.12,-0.29 0,-0.11 0.04,-0.21 0.12,-0.29 0.16,-0.16 0.42,-0.16 0.58,0 0.16,0.16 0.16,0.42 0,0.58 -0.08,0.08 -0.18,0.12 -0.29,0.12zm0 -0.61l0 0c-0.05,0 -0.1,0.02 -0.14,0.06 -0.04,0.04 -0.06,0.09 -0.06,0.14 0,0.05 0.02,0.1 0.06,0.14 0.08,0.08 0.21,0.08 0.28,0 0.08,-0.08 0.08,-0.2 0,-0.28 -0.04,-0.04 -0.09,-0.06 -0.14,-0.06z"/>
    </g>
   </g>
  </g>
 </g>
</svg>
