<?xml version="1.0" encoding="UTF-8"?>
<!DOCTYPE svg PUBLIC "-//W3C//DTD SVG 1.1//EN" "http://www.w3.org/Graphics/SVG/1.1/DTD/svg11.dtd">
<!-- Creator: CorelDRAW 2020 (64-Bit) -->
<svg xmlns="http://www.w3.org/2000/svg" xml:space="preserve" width="2.0857mm" height="1.8992mm" version="1.1" style="shape-rendering:geometricPrecision; text-rendering:geometricPrecision; image-rendering:optimizeQuality; fill-rule:evenodd; clip-rule:evenodd"
viewBox="0 0 4.1 3.73"
 xmlns:xlink="http://www.w3.org/1999/xlink"
 xmlns:xodm="http://www.corel.com/coreldraw/odm/2003">
 <defs>
  <style type="text/css">
   <![CDATA[
    .fil0 {fill:#1E3264}
   ]]>
  </style>
 </defs>
 <g id="Layer_x0020_1">
  <metadata id="CorelCorpID_0Corel-Layer"/>
  <path class="fil0" d="M0.81 1.48l0 1.43 1.05 0.57 0 -1.43c-0.61,-0.33 -0.37,-0.2 -1.05,-0.57zm1.44 0.52l0.38 0.08 1.06 -0.62 -0.44 -0.03 -1 0.56 0 0zm-0.43 -1.93c-0.04,0 -0.07,0.03 -0.07,0.07l0 0.68 -0.26 0 0 0c-0.02,0 -0.04,0.01 -0.05,0.03 -0.02,0.03 -0.02,0.07 0.01,0.1l0.29 0.22 0.29 0.22c0.02,0.02 0.06,0.02 0.09,0l0.29 -0.22 0.28 -0.22c0.02,-0.01 0.03,-0.03 0.03,-0.06 0,-0.04 -0.03,-0.07 -0.07,-0.07l-0.26 0 0 -0.68c0,-0.04 -0.03,-0.07 -0.07,-0.07l-0.5 0 0 0zm-0.89 1.27l1.03 0.56 1.04 -0.56 -0.36 -0.18 0.12 -0.09c0.02,-0.01 0.03,-0.02 0.04,-0.04l0.43 0.22c0.01,0 0.01,0.01 0.02,0.01l0.75 0.05 0 0c0.03,0 0.06,0.02 0.08,0.05 0.03,0.05 0.01,0.1 -0.03,0.13l-0.75 0.44 0 1.05 -0 0c0,0.03 -0.02,0.07 -0.05,0.08l-1.24 0.67 0 0 -0 0 -0 0 -0 0 -0 0 -0 0 -0 0 -0 0 -0 0 0 0 -0 0 -0 0 -0 0 -0 0 -0 0 -0 0 -0 0 -0 0 -0 0 -0 0 -0 0 -0 0 -0 0 -0 0 -0 0 -0 0 -0 0 -0 0 -0 0 -0 0 -0 0 -0 0 -0 0 -0 0 -0 0 -0 0 -0 0 -0 0 -0 0 -0 0 -0 0 -0 0 -0 0 -0 0 0 0 -0 0 -0 0 -0 0 -0 0 -0 0 0 0 -0 0 -0 0 -0 0 -0 0 -0 0 -0 0 0 0 -0 0 -0 0 -0.01 0 -0 0 -0 -0 -0 0 -0 -0 -0 0 -0 -0 -0 0 -0 -0 -0 0 -0 -0 -0 -0 -0 0 -0 -0 -0 0 -0 -0 -0 0 -0 -0 0 0 -0 -0 -0 0 -0 -0 -0 -0 -0 0 -0 -0 -0 -0 -0 0 -0 -0 -0 -0 -0 0 -0 -0 -0 -0 -0 0 -0 -0 -0 0 -0 -0 -0 -0 -0 -0 -0 -0 -0 -0 -0 -0 -0 0 -0 -0 -0 -0 -0 -0 -0 0 -0 -0 -0 -0 -0 -0 -0 0 -0 -0 -0 -0 -0 -0 -0 -0 -0 -0 -0 0 -0 -0 -0 -0 0 0 -1.24 -0.67c-0.03,-0.02 -0.05,-0.05 -0.05,-0.08l-0 0 0 -1.64c0,-0.01 0,-0.02 0,-0.02l-0.6 -0.59c-0.04,-0.04 -0.04,-0.1 -0,-0.13 0.01,-0.01 0.02,-0.02 0.03,-0.02l-0 -0 1.3 -0.54c0.04,-0.02 0.08,-0.01 0.1,0.02l0 0 0.15 0.15 0 0.27 -0.24 -0.24 -1.11 0.46 0.51 0.5 0.52 -0.24c0.01,0.04 0.04,0.08 0.08,0.11l0.06 0.05 -0.5 0.23 0 0z"/>
 </g>
</svg>
