<?xml version="1.0" encoding="UTF-8"?>
<!DOCTYPE svg PUBLIC "-//W3C//DTD SVG 1.1//EN" "http://www.w3.org/Graphics/SVG/1.1/DTD/svg11.dtd">
<!-- Creator: CorelDRAW 2020 (64-Bit) -->
<svg xmlns="http://www.w3.org/2000/svg" xml:space="preserve" width="1.5697mm" height="1.728mm" version="1.1" style="shape-rendering:geometricPrecision; text-rendering:geometricPrecision; image-rendering:optimizeQuality; fill-rule:evenodd; clip-rule:evenodd"
viewBox="0 0 4.92 5.42"
 xmlns:xlink="http://www.w3.org/1999/xlink"
 xmlns:xodm="http://www.corel.com/coreldraw/odm/2003">
 <defs>
  <style type="text/css">
   <![CDATA[
    .fil0 {fill:#FEFEFE}
   ]]>
  </style>
 </defs>
 <g id="Layer_x0020_1">
  <metadata id="CorelCorpID_0Corel-Layer"/>
  <path class="fil0" d="M4.5 3.85l-4.07 0 0 1.14 4.07 0 0 -1.14zm-0.86 -2.79l0 -0.37 0.41 0 0 -0.69 -1.33 0 0 0 -0.08 0 0 0.69 0.4 0 0 0.37 -2.23 0 0 1.02 -0.43 1.16 2.05 -0 2.05 0 0 0 -0.43 -1.16 0 -1.02 -0.42 0zm0.25 -0.9l-1.09 0 0 0.37 1.09 0 0 -0.37zm-2.72 1.64l0 -0.5 2.53 0 0 0.5 -2.53 0zm0.24 0.46c0.1,0 0.2,0 0.3,0 -0.01,0.05 -0.02,0.11 -0.03,0.17 -0.1,0 -0.2,0 -0.31,0 0.01,-0.06 0.02,-0.11 0.04,-0.17zm0.42 0c0.1,0 0.2,0 0.3,0 -0.01,0.05 -0.01,0.11 -0.01,0.17 -0.1,0 -0.2,0 -0.31,0 0.01,-0.06 0.02,-0.11 0.02,-0.17l0 0zm0.41 0c0.1,0 0.2,0 0.3,0 0,0.05 0,0.11 0,0.17 -0.1,0 -0.2,0 -0.31,0 0,-0.06 0.01,-0.11 0.01,-0.17l0 0zm-1.32 0.28c0.1,0 0.21,0 0.31,0 -0.01,0.06 -0.03,0.12 -0.04,0.19 -0.11,0 -0.21,0 -0.32,0 0.02,-0.06 0.04,-0.13 0.05,-0.19l0 0zm0.43 0c0.1,0 0.21,0 0.31,0 -0.01,0.06 -0.02,0.12 -0.03,0.19 -0.11,0 -0.22,0 -0.32,0 0.01,-0.06 0.03,-0.13 0.04,-0.19l0 0zm0.44 0c0.1,0 0.21,0 0.31,0 -0,0.06 -0.01,0.12 -0.01,0.19 -0.11,0 -0.22,0 -0.32,0 0.01,-0.06 0.02,-0.13 0.03,-0.19l0 0zm0.43 0c0.1,0 0.21,0 0.31,0 0,0.06 0,0.12 0,0.19 -0.11,0 -0.22,0 -0.32,0 0,-0.06 0.01,-0.13 0.01,-0.19l0 0zm-1.39 0.3c0.11,0 0.22,0 0.33,0 -0.02,0.07 -0.03,0.14 -0.05,0.21 -0.11,0 -0.23,0 -0.34,0 0.02,-0.07 0.04,-0.14 0.06,-0.21l0 0zm0.46 0c0.11,0 0.22,0 0.33,0 -0.01,0.07 -0.02,0.14 -0.03,0.21 -0.11,0 -0.23,0 -0.34,0 0.01,-0.07 0.03,-0.14 0.04,-0.21l0 0zm0.46 0c0.11,0 0.22,0 0.33,0 -0,0.07 -0.01,0.14 -0.02,0.21 -0.11,0 -0.23,0 -0.34,0 0.01,-0.07 0.02,-0.14 0.03,-0.21l0 0zm0.46 0c0.11,0 0.22,0 0.33,0 0,0.07 0,0.14 0,0.21 -0.11,0 -0.23,0 -0.34,0 0,-0.07 0.01,-0.14 0.01,-0.21l0 0zm-1.21 -0.58c0.1,0 0.2,0 0.3,0 -0.01,0.05 -0.03,0.11 -0.04,0.17 -0.1,0 -0.2,0 -0.31,0 0.02,-0.06 0.03,-0.11 0.05,-0.17l0 0zm-0.12 1.88l1.22 0 0 0.16 0.69 0 0 -0.16 1.29 0 0 0.62 -3.19 0 0 -0.62zm-0.66 -0.71l4.71 0 0 2 -4.92 0 0 -2 0.21 0 0 0z"/>
 </g>
</svg>
